<svg width="36" height="36" viewBox="0 0 36 36" fill="none" xmlns="http://www.w3.org/2000/svg">
<circle cx="18" cy="18" r="18" fill="url(#paint0_linear_4862_11007)" fill-opacity="0.16"/>
<g clip-path="url(#clip0_4862_11007)">
<path d="M10.008 13.5804C10.008 12.7572 10 11.9261 10.008 11.1029C10.016 10.4396 10.4398 10.008 11.1114 10.008C12.7746 10 14.4458 10.016 16.1089 10C16.3728 10 16.4128 10.0799 16.4048 10.3117C16.3888 10.8551 16.4048 11.4066 16.3968 11.95C16.3888 12.1578 16.4208 12.2458 16.6687 12.2537C17.2764 12.2617 17.6762 12.6533 17.6762 13.1968C17.6762 13.7403 17.2764 14.1399 16.6687 14.1479C16.4288 14.1479 16.3888 14.2278 16.3888 14.4436C16.4048 14.987 16.3728 15.5385 16.3968 16.0819C16.4048 16.3536 16.3168 16.4096 16.061 16.4016C15.5172 16.3856 14.9655 16.3936 14.4218 16.4016C14.2539 16.4096 14.1579 16.3936 14.1579 16.1538C14.1419 15.5145 13.7501 15.1149 13.1904 15.1229C12.6467 15.1309 12.2709 15.5305 12.2549 16.1459C12.2469 16.3616 12.1829 16.4096 11.983 16.4016C11.4073 16.3856 10.8396 16.3856 10.2639 16.4016C10.048 16.4096 10 16.3377 10 16.1379C10.008 15.2827 10.008 14.4356 10.008 13.5804Z" fill="url(#paint1_linear_4862_11007)"/>
<path d="M22.4178 10.0088C23.2334 10.0088 24.041 10.0088 24.8566 10.0088C25.5762 10.0088 25.992 10.4324 25.992 11.1517C25.992 12.806 25.984 14.4524 26 16.1067C26 16.3625 25.936 16.4184 25.6882 16.4104C25.1444 16.3944 24.5927 16.4184 24.049 16.3944C23.8011 16.3864 23.7451 16.4584 23.7451 16.6981C23.7371 17.2656 23.3293 17.6732 22.8016 17.6732C22.2579 17.6812 21.8501 17.2736 21.8421 16.6742C21.8421 16.4424 21.7701 16.3864 21.5542 16.3944C20.9945 16.4104 20.4348 16.3864 19.8751 16.4024C19.6432 16.4104 19.5872 16.3385 19.5952 16.1147C19.6112 15.5393 19.6112 14.9719 19.5952 14.3964C19.5872 14.2046 19.6512 14.1567 19.8431 14.1487C20.4908 14.1247 20.8906 13.7411 20.8826 13.1817C20.8746 12.6382 20.4748 12.2546 19.8591 12.2386C19.6512 12.2306 19.5952 12.1747 19.5952 11.9749C19.6112 11.3994 19.6112 10.832 19.5952 10.2566C19.5872 10.0488 19.6512 9.98485 19.8591 9.99284C20.7146 10.0168 21.5622 10.0088 22.4178 10.0088Z" fill="url(#paint2_linear_4862_11007)"/>
<path d="M13.5662 25.9928C12.7506 25.9928 11.943 26.0008 11.1274 25.9928C10.4318 25.9848 10.008 25.5692 10 24.8739C9.992 23.2115 10 21.5412 9.992 19.8789C9.992 19.6551 10.048 19.5832 10.2799 19.5912C10.8556 19.6071 11.4233 19.5912 11.999 19.5992C12.1909 19.5992 12.2389 19.5512 12.2469 19.3594C12.2709 18.712 12.6467 18.3124 13.2064 18.3204C13.7501 18.3284 14.1339 18.72 14.1499 19.3354C14.1579 19.5432 14.2059 19.6071 14.4138 19.5992C14.9895 19.5832 15.5572 19.5992 16.1329 19.5912C16.3408 19.5832 16.4048 19.6391 16.4048 19.8549C16.3888 20.3984 16.3808 20.9498 16.4048 21.4933C16.4128 21.765 16.3488 21.8449 16.061 21.8449C15.5732 21.8369 15.1894 22.2045 15.1254 22.6601C15.0615 23.1236 15.3413 23.5632 15.8051 23.707C15.8211 23.715 15.8291 23.723 15.8451 23.723C16.5007 23.6191 16.4208 24.0667 16.4048 24.4663C16.3968 24.8659 16.3888 25.2655 16.4048 25.6651C16.4208 25.9208 16.3568 26.0008 16.085 26.0008C15.2454 25.9768 14.4058 25.9928 13.5662 25.9928Z" fill="url(#paint3_linear_4862_11007)"/>
<path d="M26 22.4279C26 23.2271 26 24.0263 26 24.8255C26 25.5767 25.5842 25.9843 24.8406 25.9843C23.2014 25.9843 21.5622 25.9763 19.923 25.9923C19.6592 25.9923 19.5872 25.9284 19.5952 25.6646C19.6192 25.1052 19.5952 24.5457 19.6032 23.9863C19.6112 23.7945 19.5552 23.7465 19.3633 23.7385C18.7157 23.7146 18.3159 23.3309 18.3238 22.7795C18.3318 22.236 18.7316 21.8524 19.3393 21.8364C19.5472 21.8285 19.6112 21.7805 19.6032 21.5727C19.5872 20.9973 19.6032 20.4298 19.5952 19.8544C19.5872 19.6466 19.6432 19.5827 19.8591 19.5907C20.4188 19.6067 20.9785 19.6147 21.5382 19.5907C21.8341 19.5747 21.8421 19.7106 21.8501 19.9343C21.8581 20.4219 22.2099 20.8055 22.6737 20.8694C23.1374 20.9333 23.5772 20.6536 23.7211 20.1901C23.7291 20.1741 23.7291 20.1581 23.7291 20.1501C23.6252 19.4948 24.081 19.5827 24.4808 19.5987C24.8966 19.6067 25.3044 19.6147 25.7202 19.5987C25.944 19.5907 26.016 19.6546 26.008 19.8784C25.992 20.7256 26 21.5807 26 22.4279Z" fill="url(#paint4_linear_4862_11007)"/>
</g>
<defs>
<linearGradient id="paint0_linear_4862_11007" x1="18" y1="0" x2="18" y2="36" gradientUnits="userSpaceOnUse">
<stop stop-color="#5FA5FF"/>
<stop offset="1" stop-color="#2A87FF"/>
</linearGradient>
<linearGradient id="paint1_linear_4862_11007" x1="13.8381" y1="10" x2="13.8381" y2="16.4031" gradientUnits="userSpaceOnUse">
<stop stop-color="#5FA5FF"/>
<stop offset="1" stop-color="#2A87FF"/>
</linearGradient>
<linearGradient id="paint2_linear_4862_11007" x1="22.7972" y1="9.99219" x2="22.7972" y2="17.6733" gradientUnits="userSpaceOnUse">
<stop stop-color="#5FA5FF"/>
<stop offset="1" stop-color="#2A87FF"/>
</linearGradient>
<linearGradient id="paint3_linear_4862_11007" x1="13.2042" y1="18.3203" x2="13.2042" y2="26.0008" gradientUnits="userSpaceOnUse">
<stop stop-color="#5FA5FF"/>
<stop offset="1" stop-color="#2A87FF"/>
</linearGradient>
<linearGradient id="paint4_linear_4862_11007" x1="22.1662" y1="19.5859" x2="22.1662" y2="25.9923" gradientUnits="userSpaceOnUse">
<stop stop-color="#5FA5FF"/>
<stop offset="1" stop-color="#2A87FF"/>
</linearGradient>
<clipPath id="clip0_4862_11007">
<rect width="16" height="16" fill="white" transform="translate(10 10)"/>
</clipPath>
</defs>
</svg>
