<svg xmlns="http://www.w3.org/2000/svg" xmlns:xlink="http://www.w3.org/1999/xlink" width="512" zoomAndPan="magnify" viewBox="0 0 384 383.999986" height="512" preserveAspectRatio="xMidYMid meet" version="1.0"><defs><clipPath id="a7bd223fd2"><path d="M 52.5 0 L 331.5 0 C 360.496094 0 384 23.503906 384 52.5 L 384 331.5 C 384 360.496094 360.496094 384 331.5 384 L 52.5 384 C 23.503906 384 0 360.496094 0 331.5 L 0 52.5 C 0 23.503906 23.503906 0 52.5 0 Z M 52.5 0 " clip-rule="nonzero"/></clipPath><clipPath id="86aad236e5"><path d="M 0 0 L 384 0 L 384 384 L 0 384 Z M 0 0 " clip-rule="nonzero"/></clipPath><clipPath id="0cce04ff94"><path d="M 52.5 0 L 331.5 0 C 360.496094 0 384 23.503906 384 52.5 L 384 331.5 C 384 360.496094 360.496094 384 331.5 384 L 52.5 384 C 23.503906 384 0 360.496094 0 331.5 L 0 52.5 C 0 23.503906 23.503906 0 52.5 0 Z M 52.5 0 " clip-rule="nonzero"/></clipPath><clipPath id="422ac387e2"><rect x="0" width="384" y="0" height="384"/></clipPath><clipPath id="8e8cfff204"><path d="M 62.140625 88.6875 L 320.183594 88.6875 L 320.183594 147.5625 L 62.140625 147.5625 Z M 62.140625 88.6875 " clip-rule="nonzero"/></clipPath><clipPath id="27f6009c13"><path d="M 91.578125 88.6875 L 290.589844 88.6875 C 306.851562 88.6875 320.03125 101.867188 320.03125 118.125 C 320.03125 134.382812 306.851562 147.5625 290.589844 147.5625 L 91.578125 147.5625 C 75.320312 147.5625 62.140625 134.382812 62.140625 118.125 C 62.140625 101.867188 75.320312 88.6875 91.578125 88.6875 Z M 91.578125 88.6875 " clip-rule="nonzero"/></clipPath><clipPath id="b6510be63c"><path d="M 0.140625 0.6875 L 258 0.6875 L 258 59.5625 L 0.140625 59.5625 Z M 0.140625 0.6875 " clip-rule="nonzero"/></clipPath><clipPath id="e38784d7c5"><path d="M 29.578125 0.6875 L 228.589844 0.6875 C 244.851562 0.6875 258.03125 13.867188 258.03125 30.125 C 258.03125 46.382812 244.851562 59.5625 228.589844 59.5625 L 29.578125 59.5625 C 13.320312 59.5625 0.140625 46.382812 0.140625 30.125 C 0.140625 13.867188 13.320312 0.6875 29.578125 0.6875 Z M 29.578125 0.6875 " clip-rule="nonzero"/></clipPath><clipPath id="4e54c8dc08"><rect x="0" width="259" y="0" height="60"/></clipPath><clipPath id="69d4abdd3a"><path d="M 63.96875 119.746094 L 321.859375 119.746094 L 321.859375 147.5625 L 63.96875 147.5625 Z M 63.96875 119.746094 " clip-rule="nonzero"/></clipPath><clipPath id="67e22feff7"><path d="M 0.96875 0.746094 L 258.859375 0.746094 L 258.859375 28.5625 L 0.96875 28.5625 Z M 0.96875 0.746094 " clip-rule="nonzero"/></clipPath><clipPath id="002bb47738"><rect x="0" width="259" y="0" height="29"/></clipPath><clipPath id="2ee6a2b1f5"><path d="M 63.550781 147.5625 L 321.851562 147.5625 L 321.851562 336.492188 L 63.550781 336.492188 Z M 63.550781 147.5625 " clip-rule="nonzero"/></clipPath><clipPath id="926f843325"><path d="M 288.101562 336.492188 L 97.714844 336.492188 C 88.761719 336.492188 80.179688 332.9375 73.847656 326.609375 C 67.519531 320.277344 63.964844 311.695312 63.964844 302.742188 L 63.964844 181.3125 C 63.964844 172.363281 67.519531 163.777344 73.847656 157.449219 C 80.179688 151.117188 88.761719 147.5625 97.714844 147.5625 L 288.101562 147.5625 C 297.054688 147.5625 305.640625 151.117188 311.96875 157.449219 C 318.296875 163.777344 321.851562 172.363281 321.851562 181.3125 L 321.851562 302.742188 C 321.851562 311.695312 318.296875 320.277344 311.96875 326.609375 C 305.640625 332.9375 297.054688 336.492188 288.101562 336.492188 Z M 288.101562 336.492188 " clip-rule="nonzero"/></clipPath><clipPath id="b73ac7732f"><path d="M 1 0.5625 L 258.851562 0.5625 L 258.851562 189.492188 L 1 189.492188 Z M 1 0.5625 " clip-rule="nonzero"/></clipPath><clipPath id="762bc843b2"><path d="M 225.101562 189.492188 L 34.714844 189.492188 C 25.761719 189.492188 17.179688 185.9375 10.847656 179.609375 C 4.519531 173.277344 0.964844 164.695312 0.964844 155.742188 L 0.964844 34.3125 C 0.964844 25.363281 4.519531 16.777344 10.847656 10.449219 C 17.179688 4.117188 25.761719 0.5625 34.714844 0.5625 L 225.101562 0.5625 C 234.054688 0.5625 242.640625 4.117188 248.96875 10.449219 C 255.296875 16.777344 258.851562 25.363281 258.851562 34.3125 L 258.851562 155.742188 C 258.851562 164.695312 255.296875 173.277344 248.96875 179.609375 C 242.640625 185.9375 234.054688 189.492188 225.101562 189.492188 Z M 225.101562 189.492188 " clip-rule="nonzero"/></clipPath><clipPath id="825f2b7a8e"><rect x="0" width="259" y="0" height="190"/></clipPath><clipPath id="d7d25d226f"><path d="M 62.132812 147.5625 L 320.023438 147.5625 L 320.023438 236.824219 L 62.132812 236.824219 Z M 62.132812 147.5625 " clip-rule="nonzero"/></clipPath><clipPath id="b6e1eca890"><path d="M 0.132812 0.5625 L 258.023438 0.5625 L 258.023438 89.824219 L 0.132812 89.824219 Z M 0.132812 0.5625 " clip-rule="nonzero"/></clipPath><clipPath id="73fe32d91f"><rect x="0" width="259" y="0" height="90"/></clipPath><clipPath id="6ce0b6e62e"><path d="M 111.117188 39.898438 L 130.660156 39.898438 L 130.660156 122.273438 L 111.117188 122.273438 Z M 111.117188 39.898438 " clip-rule="nonzero"/></clipPath><clipPath id="d8ecda77ce"><path d="M 120.890625 39.898438 C 123.480469 39.898438 125.964844 40.929688 127.800781 42.761719 C 129.632812 44.59375 130.660156 47.082031 130.660156 49.671875 L 130.660156 112.480469 C 130.660156 115.070312 129.632812 117.554688 127.800781 119.390625 C 125.964844 121.222656 123.480469 122.25 120.890625 122.25 C 118.296875 122.25 115.8125 121.222656 113.980469 119.390625 C 112.148438 117.554688 111.117188 115.070312 111.117188 112.480469 L 111.117188 49.671875 C 111.117188 47.082031 112.148438 44.59375 113.980469 42.761719 C 115.8125 40.929688 118.296875 39.898438 120.890625 39.898438 Z M 120.890625 39.898438 " clip-rule="nonzero"/></clipPath><clipPath id="458bab6acd"><path d="M 0.117188 0.898438 L 19.660156 0.898438 L 19.660156 83.273438 L 0.117188 83.273438 Z M 0.117188 0.898438 " clip-rule="nonzero"/></clipPath><clipPath id="1e5ec635f5"><path d="M 9.890625 0.898438 C 12.480469 0.898438 14.964844 1.929688 16.800781 3.761719 C 18.632812 5.59375 19.660156 8.082031 19.660156 10.671875 L 19.660156 73.480469 C 19.660156 76.070312 18.632812 78.554688 16.800781 80.390625 C 14.964844 82.222656 12.480469 83.25 9.890625 83.25 C 7.296875 83.25 4.8125 82.222656 2.980469 80.390625 C 1.148438 78.554688 0.117188 76.070312 0.117188 73.480469 L 0.117188 10.671875 C 0.117188 8.082031 1.148438 5.59375 2.980469 3.761719 C 4.8125 1.929688 7.296875 0.898438 9.890625 0.898438 Z M 9.890625 0.898438 " clip-rule="nonzero"/></clipPath><clipPath id="fe42472604"><rect x="0" width="20" y="0" height="84"/></clipPath><clipPath id="63bebbe418"><path d="M 253.757812 39.898438 L 272.882812 39.898438 L 272.882812 122.308594 L 253.757812 122.308594 Z M 253.757812 39.898438 " clip-rule="nonzero"/></clipPath><clipPath id="6c1b63172f"><path d="M 263.320312 39.898438 C 268.601562 39.898438 272.882812 44.179688 272.882812 49.464844 L 272.882812 112.6875 C 272.882812 117.96875 268.601562 122.25 263.320312 122.25 C 258.039062 122.25 253.757812 117.96875 253.757812 112.6875 L 253.757812 49.464844 C 253.757812 44.179688 258.039062 39.898438 263.320312 39.898438 Z M 263.320312 39.898438 " clip-rule="nonzero"/></clipPath><clipPath id="d3ee84c13e"><path d="M 0.757812 0.898438 L 19.882812 0.898438 L 19.882812 83.308594 L 0.757812 83.308594 Z M 0.757812 0.898438 " clip-rule="nonzero"/></clipPath><clipPath id="b97ded1aa4"><path d="M 10.320312 0.898438 C 15.601562 0.898438 19.882812 5.179688 19.882812 10.464844 L 19.882812 73.6875 C 19.882812 78.96875 15.601562 83.25 10.320312 83.25 C 5.039062 83.25 0.757812 78.96875 0.757812 73.6875 L 0.757812 10.464844 C 0.757812 5.179688 5.039062 0.898438 10.320312 0.898438 Z M 10.320312 0.898438 " clip-rule="nonzero"/></clipPath><clipPath id="fac1ceb079"><rect x="0" width="20" y="0" height="84"/></clipPath><clipPath id="1d1b196224"><path d="M 55.058594 79.027344 L 328.808594 79.027344 L 328.808594 343.777344 L 55.058594 343.777344 Z M 55.058594 79.027344 " clip-rule="nonzero"/></clipPath><clipPath id="49492b7da8"><path d="M 328.9375 131.527344 L 328.9375 290.949219 C 328.9375 319.945312 305.433594 343.449219 276.4375 343.449219 L 107.558594 343.449219 C 78.566406 343.449219 55.058594 319.945312 55.058594 290.949219 L 55.058594 131.527344 C 55.058594 102.53125 78.566406 79.027344 107.558594 79.027344 L 276.4375 79.027344 C 305.433594 79.027344 328.9375 102.53125 328.9375 131.527344 Z M 328.9375 131.527344 " clip-rule="nonzero"/></clipPath><clipPath id="5324672103"><path d="M 241.085938 182.042969 L 289.453125 182.042969 L 289.453125 229.125 L 241.085938 229.125 Z M 241.085938 182.042969 " clip-rule="nonzero"/></clipPath><clipPath id="3b46cb47fd"><path d="M 264.625 182.042969 L 265.84375 182.042969 C 272.085938 182.042969 278.074219 184.523438 282.488281 188.9375 C 286.90625 193.355469 289.386719 199.339844 289.386719 205.585938 C 289.386719 211.828125 286.90625 217.816406 282.488281 222.230469 C 278.074219 226.644531 272.085938 229.125 265.84375 229.125 L 264.625 229.125 C 258.382812 229.125 252.394531 226.644531 247.980469 222.230469 C 243.566406 217.816406 241.085938 211.828125 241.085938 205.585938 C 241.085938 199.339844 243.566406 193.355469 247.980469 188.9375 C 252.394531 184.523438 258.382812 182.042969 264.625 182.042969 Z M 264.625 182.042969 " clip-rule="nonzero"/></clipPath><clipPath id="782a940c80"><path d="M 0.0859375 0.0429688 L 48.441406 0.0429688 L 48.441406 47.125 L 0.0859375 47.125 Z M 0.0859375 0.0429688 " clip-rule="nonzero"/></clipPath><clipPath id="971dac0c46"><path d="M 23.625 0.0429688 L 24.84375 0.0429688 C 31.085938 0.0429688 37.074219 2.523438 41.488281 6.9375 C 45.90625 11.355469 48.386719 17.339844 48.386719 23.585938 C 48.386719 29.828125 45.90625 35.816406 41.488281 40.230469 C 37.074219 44.644531 31.085938 47.125 24.84375 47.125 L 23.625 47.125 C 17.382812 47.125 11.394531 44.644531 6.980469 40.230469 C 2.566406 35.816406 0.0859375 29.828125 0.0859375 23.585938 C 0.0859375 17.339844 2.566406 11.355469 6.980469 6.9375 C 11.394531 2.523438 17.382812 0.0429688 23.625 0.0429688 Z M 23.625 0.0429688 " clip-rule="nonzero"/></clipPath><clipPath id="31032e2fea"><rect x="0" width="49" y="0" height="48"/></clipPath><clipPath id="1d2e27afca"><path d="M 94.613281 182.042969 L 142.984375 182.042969 L 142.984375 229.125 L 94.613281 229.125 Z M 94.613281 182.042969 " clip-rule="nonzero"/></clipPath><clipPath id="7ef5d90aa4"><path d="M 118.15625 182.042969 L 119.375 182.042969 C 125.617188 182.042969 131.605469 184.523438 136.019531 188.9375 C 140.433594 193.355469 142.914062 199.339844 142.914062 205.585938 C 142.914062 211.828125 140.433594 217.816406 136.019531 222.230469 C 131.605469 226.644531 125.617188 229.125 119.375 229.125 L 118.15625 229.125 C 111.914062 229.125 105.925781 226.644531 101.511719 222.230469 C 97.09375 217.816406 94.613281 211.828125 94.613281 205.585938 C 94.613281 199.339844 97.09375 193.355469 101.511719 188.9375 C 105.925781 184.523438 111.914062 182.042969 118.15625 182.042969 Z M 118.15625 182.042969 " clip-rule="nonzero"/></clipPath><clipPath id="fc78574c30"><path d="M 0.613281 0.0429688 L 48.984375 0.0429688 L 48.984375 47.125 L 0.613281 47.125 Z M 0.613281 0.0429688 " clip-rule="nonzero"/></clipPath><clipPath id="08e4155b38"><path d="M 24.15625 0.0429688 L 25.375 0.0429688 C 31.617188 0.0429688 37.605469 2.523438 42.019531 6.9375 C 46.433594 11.355469 48.914062 17.339844 48.914062 23.585938 C 48.914062 29.828125 46.433594 35.816406 42.019531 40.230469 C 37.605469 44.644531 31.617188 47.125 25.375 47.125 L 24.15625 47.125 C 17.914062 47.125 11.925781 44.644531 7.511719 40.230469 C 3.09375 35.816406 0.613281 29.828125 0.613281 23.585938 C 0.613281 17.339844 3.09375 11.355469 7.511719 6.9375 C 11.925781 2.523438 17.914062 0.0429688 24.15625 0.0429688 Z M 24.15625 0.0429688 " clip-rule="nonzero"/></clipPath><clipPath id="b1eaa32892"><rect x="0" width="49" y="0" height="48"/></clipPath><clipPath id="01be609522"><path d="M 167.851562 182.042969 L 216.21875 182.042969 L 216.21875 229.125 L 167.851562 229.125 Z M 167.851562 182.042969 " clip-rule="nonzero"/></clipPath><clipPath id="34ece7f39e"><path d="M 191.390625 182.042969 L 192.609375 182.042969 C 198.851562 182.042969 204.839844 184.523438 209.253906 188.9375 C 213.671875 193.355469 216.148438 199.339844 216.148438 205.585938 C 216.148438 211.828125 213.671875 217.816406 209.253906 222.230469 C 204.839844 226.644531 198.851562 229.125 192.609375 229.125 L 191.390625 229.125 C 185.148438 229.125 179.160156 226.644531 174.746094 222.230469 C 170.328125 217.816406 167.851562 211.828125 167.851562 205.585938 C 167.851562 199.339844 170.328125 193.355469 174.746094 188.9375 C 179.160156 184.523438 185.148438 182.042969 191.390625 182.042969 Z M 191.390625 182.042969 " clip-rule="nonzero"/></clipPath><clipPath id="7f4e51eb24"><path d="M 0.851562 0.0429688 L 49.21875 0.0429688 L 49.21875 47.125 L 0.851562 47.125 Z M 0.851562 0.0429688 " clip-rule="nonzero"/></clipPath><clipPath id="e49ebd87d7"><path d="M 24.390625 0.0429688 L 25.609375 0.0429688 C 31.851562 0.0429688 37.839844 2.523438 42.253906 6.9375 C 46.671875 11.355469 49.148438 17.339844 49.148438 23.585938 C 49.148438 29.828125 46.671875 35.816406 42.253906 40.230469 C 37.839844 44.644531 31.851562 47.125 25.609375 47.125 L 24.390625 47.125 C 18.148438 47.125 12.160156 44.644531 7.746094 40.230469 C 3.328125 35.816406 0.851562 29.828125 0.851562 23.585938 C 0.851562 17.339844 3.328125 11.355469 7.746094 6.9375 C 12.160156 2.523438 18.148438 0.0429688 24.390625 0.0429688 Z M 24.390625 0.0429688 " clip-rule="nonzero"/></clipPath><clipPath id="53e3c4fe0e"><rect x="0" width="50" y="0" height="48"/></clipPath><clipPath id="da583bc68a"><path d="M 94.613281 249.261719 L 142.984375 249.261719 L 142.984375 296.34375 L 94.613281 296.34375 Z M 94.613281 249.261719 " clip-rule="nonzero"/></clipPath><clipPath id="9a625a19b7"><path d="M 118.15625 249.261719 L 119.375 249.261719 C 125.617188 249.261719 131.605469 251.742188 136.019531 256.15625 C 140.433594 260.570312 142.914062 266.558594 142.914062 272.800781 C 142.914062 279.046875 140.433594 285.03125 136.019531 289.449219 C 131.605469 293.863281 125.617188 296.34375 119.375 296.34375 L 118.15625 296.34375 C 111.914062 296.34375 105.925781 293.863281 101.511719 289.449219 C 97.09375 285.03125 94.613281 279.046875 94.613281 272.800781 C 94.613281 266.558594 97.09375 260.570312 101.511719 256.15625 C 105.925781 251.742188 111.914062 249.261719 118.15625 249.261719 Z M 118.15625 249.261719 " clip-rule="nonzero"/></clipPath><clipPath id="fcdb1c3586"><path d="M 0.613281 0.261719 L 48.984375 0.261719 L 48.984375 47.34375 L 0.613281 47.34375 Z M 0.613281 0.261719 " clip-rule="nonzero"/></clipPath><clipPath id="68cdc13e10"><path d="M 24.15625 0.261719 L 25.375 0.261719 C 31.617188 0.261719 37.605469 2.742188 42.019531 7.15625 C 46.433594 11.570312 48.914062 17.558594 48.914062 23.800781 C 48.914062 30.046875 46.433594 36.03125 42.019531 40.449219 C 37.605469 44.863281 31.617188 47.34375 25.375 47.34375 L 24.15625 47.34375 C 17.914062 47.34375 11.925781 44.863281 7.511719 40.449219 C 3.09375 36.03125 0.613281 30.046875 0.613281 23.800781 C 0.613281 17.558594 3.09375 11.570312 7.511719 7.15625 C 11.925781 2.742188 17.914062 0.261719 24.15625 0.261719 Z M 24.15625 0.261719 " clip-rule="nonzero"/></clipPath><clipPath id="ef74357d37"><rect x="0" width="49" y="0" height="48"/></clipPath><clipPath id="ba8230b41a"><path d="M 167.851562 249.261719 L 216.21875 249.261719 L 216.21875 296.34375 L 167.851562 296.34375 Z M 167.851562 249.261719 " clip-rule="nonzero"/></clipPath><clipPath id="8b90c2aee1"><path d="M 191.390625 249.261719 L 192.609375 249.261719 C 198.851562 249.261719 204.839844 251.742188 209.253906 256.15625 C 213.671875 260.570312 216.148438 266.558594 216.148438 272.800781 C 216.148438 279.046875 213.671875 285.03125 209.253906 289.449219 C 204.839844 293.863281 198.851562 296.34375 192.609375 296.34375 L 191.390625 296.34375 C 185.148438 296.34375 179.160156 293.863281 174.746094 289.449219 C 170.328125 285.03125 167.851562 279.046875 167.851562 272.800781 C 167.851562 266.558594 170.328125 260.570312 174.746094 256.15625 C 179.160156 251.742188 185.148438 249.261719 191.390625 249.261719 Z M 191.390625 249.261719 " clip-rule="nonzero"/></clipPath><clipPath id="f5baf4a175"><path d="M 0.851562 0.261719 L 49.21875 0.261719 L 49.21875 47.34375 L 0.851562 47.34375 Z M 0.851562 0.261719 " clip-rule="nonzero"/></clipPath><clipPath id="bd58dc9e34"><path d="M 24.390625 0.261719 L 25.609375 0.261719 C 31.851562 0.261719 37.839844 2.742188 42.253906 7.15625 C 46.671875 11.570312 49.148438 17.558594 49.148438 23.800781 C 49.148438 30.046875 46.671875 36.03125 42.253906 40.449219 C 37.839844 44.863281 31.851562 47.34375 25.609375 47.34375 L 24.390625 47.34375 C 18.148438 47.34375 12.160156 44.863281 7.746094 40.449219 C 3.328125 36.03125 0.851562 30.046875 0.851562 23.800781 C 0.851562 17.558594 3.328125 11.570312 7.746094 7.15625 C 12.160156 2.742188 18.148438 0.261719 24.390625 0.261719 Z M 24.390625 0.261719 " clip-rule="nonzero"/></clipPath><clipPath id="1e77403bfd"><rect x="0" width="50" y="0" height="48"/></clipPath><clipPath id="f78afcef87"><path d="M 241.085938 249.261719 L 289.453125 249.261719 L 289.453125 296.34375 L 241.085938 296.34375 Z M 241.085938 249.261719 " clip-rule="nonzero"/></clipPath><clipPath id="30d68f625b"><path d="M 264.625 249.261719 L 265.84375 249.261719 C 272.085938 249.261719 278.074219 251.742188 282.488281 256.15625 C 286.90625 260.570312 289.386719 266.558594 289.386719 272.800781 C 289.386719 279.046875 286.90625 285.03125 282.488281 289.449219 C 278.074219 293.863281 272.085938 296.34375 265.84375 296.34375 L 264.625 296.34375 C 258.382812 296.34375 252.394531 293.863281 247.980469 289.449219 C 243.566406 285.03125 241.085938 279.046875 241.085938 272.800781 C 241.085938 266.558594 243.566406 260.570312 247.980469 256.15625 C 252.394531 251.742188 258.382812 249.261719 264.625 249.261719 Z M 264.625 249.261719 " clip-rule="nonzero"/></clipPath><clipPath id="08924db945"><path d="M 0.0859375 0.261719 L 48.441406 0.261719 L 48.441406 47.34375 L 0.0859375 47.34375 Z M 0.0859375 0.261719 " clip-rule="nonzero"/></clipPath><clipPath id="b4fcb3e8f0"><path d="M 23.625 0.261719 L 24.84375 0.261719 C 31.085938 0.261719 37.074219 2.742188 41.488281 7.15625 C 45.90625 11.570312 48.386719 17.558594 48.386719 23.800781 C 48.386719 30.046875 45.90625 36.03125 41.488281 40.449219 C 37.074219 44.863281 31.085938 47.34375 24.84375 47.34375 L 23.625 47.34375 C 17.382812 47.34375 11.394531 44.863281 6.980469 40.449219 C 2.566406 36.03125 0.0859375 30.046875 0.0859375 23.800781 C 0.0859375 17.558594 2.566406 11.570312 6.980469 7.15625 C 11.394531 2.742188 17.382812 0.261719 23.625 0.261719 Z M 23.625 0.261719 " clip-rule="nonzero"/></clipPath><clipPath id="74c39d9c1e"><rect x="0" width="49" y="0" height="48"/></clipPath></defs><g clip-path="url(#a7bd223fd2)"><g><g clip-path="url(#422ac387e2)"><g clip-path="url(#86aad236e5)"><g clip-path="url(#0cce04ff94)"><rect x="-84.48" width="552.96" fill="#ffffff" height="552.959979" y="-84.479997" fill-opacity="1"/></g></g></g></g><path stroke-linecap="butt" transform="matrix(0.75, 0, 0, 0.75, 0.0000072, 0.000000000000021316)" fill="none" stroke-linejoin="miter" d="M 69.999991 -0.000000000000028422 L 441.999997 -0.000000000000028422 C 480.661456 -0.000000000000028422 511.999998 31.338542 511.999998 70.000001 L 511.999998 442.000007 C 511.999998 480.661466 480.661456 512.000008 441.999997 512.000008 L 69.999991 512.000008 C 31.338533 512.000008 -0.0000096 480.661466 -0.0000096 442.000007 L -0.0000096 70.000001 C -0.0000096 31.338542 31.338533 -0.000000000000028422 69.999991 -0.000000000000028422 Z M 69.999991 -0.000000000000028422 " stroke="#000000" stroke-width="12" stroke-opacity="1" stroke-miterlimit="4"/></g><g clip-path="url(#8e8cfff204)"><g clip-path="url(#27f6009c13)"><g transform="matrix(1, 0, 0, 1, 62, 88)"><g clip-path="url(#4e54c8dc08)"><g clip-path="url(#b6510be63c)"><g clip-path="url(#e38784d7c5)"><path fill="#0693e3" d="M 0.140625 0.6875 L 257.953125 0.6875 L 257.953125 59.5625 L 0.140625 59.5625 Z M 0.140625 0.6875 " fill-opacity="1" fill-rule="nonzero"/></g></g></g></g></g></g><g clip-path="url(#69d4abdd3a)"><g transform="matrix(1, 0, 0, 1, 63, 119)"><g clip-path="url(#002bb47738)"><g clip-path="url(#67e22feff7)"><path fill="#0693e3" d="M 0.96875 0.746094 L 258.816406 0.746094 L 258.816406 28.5625 L 0.96875 28.5625 Z M 0.96875 0.746094 " fill-opacity="1" fill-rule="nonzero"/></g></g></g></g><g clip-path="url(#2ee6a2b1f5)"><g clip-path="url(#926f843325)"><g transform="matrix(1, 0, 0, 1, 63, 147)"><g clip-path="url(#825f2b7a8e)"><g clip-path="url(#b73ac7732f)"><g clip-path="url(#762bc843b2)"><path fill="#ffffff" d="M 258.851562 189.492188 L 1.289062 189.492188 L 1.289062 0.5625 L 258.851562 0.5625 Z M 258.851562 189.492188 " fill-opacity="1" fill-rule="nonzero"/></g></g></g></g></g></g><g clip-path="url(#d7d25d226f)"><g transform="matrix(1, 0, 0, 1, 62, 147)"><g clip-path="url(#73fe32d91f)"><g clip-path="url(#b6e1eca890)"><path fill="#ffffff" d="M 258.023438 89.824219 L 0 89.824219 L 0 0.5625 L 258.023438 0.5625 Z M 258.023438 89.824219 " fill-opacity="1" fill-rule="nonzero"/></g></g></g></g><g clip-path="url(#6ce0b6e62e)"><g clip-path="url(#d8ecda77ce)"><g transform="matrix(1, 0, 0, 1, 111, 39)"><g clip-path="url(#fe42472604)"><g clip-path="url(#458bab6acd)"><g clip-path="url(#1e5ec635f5)"><path fill="#0f1131" d="M 0.117188 0.898438 L 19.660156 0.898438 L 19.660156 83.273438 L 0.117188 83.273438 Z M 0.117188 0.898438 " fill-opacity="1" fill-rule="nonzero"/></g></g></g></g></g></g><g clip-path="url(#63bebbe418)"><g clip-path="url(#6c1b63172f)"><g transform="matrix(1, 0, 0, 1, 253, 39)"><g clip-path="url(#fac1ceb079)"><g clip-path="url(#d3ee84c13e)"><g clip-path="url(#b97ded1aa4)"><path fill="#0f1131" d="M 0.757812 0.898438 L 19.882812 0.898438 L 19.882812 83.234375 L 0.757812 83.234375 Z M 0.757812 0.898438 " fill-opacity="1" fill-rule="nonzero"/></g></g></g></g></g></g><g clip-path="url(#1d1b196224)"><g clip-path="url(#49492b7da8)"><path stroke-linecap="butt" transform="matrix(0.75, 0, 0, 0.75, 55.060455, 79.026887)" fill="none" stroke-linejoin="miter" d="M 365.169399 70.000611 L 365.169399 282.563114 C 365.169399 321.224573 333.830857 352.563115 295.169398 352.563115 L 69.99752 352.563115 C 31.341269 352.563115 -0.00248145 321.224573 -0.00248145 282.563114 L -0.00248145 70.000611 C -0.00248145 31.339152 31.341269 0.000609608 69.99752 0.000609608 L 295.169398 0.000609608 C 333.830857 0.000609608 365.169399 31.339152 365.169399 70.000611 Z M 365.169399 70.000611 " stroke="#0f1131" stroke-width="32" stroke-opacity="1" stroke-miterlimit="4"/></g></g><g clip-path="url(#5324672103)"><g clip-path="url(#3b46cb47fd)"><g transform="matrix(1, 0, 0, 1, 241, 182)"><g clip-path="url(#31032e2fea)"><g clip-path="url(#782a940c80)"><g clip-path="url(#971dac0c46)"><path fill="#0693e3" d="M 0.0859375 0.0429688 L 48.453125 0.0429688 L 48.453125 47.125 L 0.0859375 47.125 Z M 0.0859375 0.0429688 " fill-opacity="1" fill-rule="nonzero"/></g></g></g></g></g></g><g clip-path="url(#1d2e27afca)"><g clip-path="url(#7ef5d90aa4)"><g transform="matrix(1, 0, 0, 1, 94, 182)"><g clip-path="url(#b1eaa32892)"><g clip-path="url(#fc78574c30)"><g clip-path="url(#08e4155b38)"><path fill="#0693e3" d="M 0.613281 0.0429688 L 48.984375 0.0429688 L 48.984375 47.125 L 0.613281 47.125 Z M 0.613281 0.0429688 " fill-opacity="1" fill-rule="nonzero"/></g></g></g></g></g></g><g clip-path="url(#01be609522)"><g clip-path="url(#34ece7f39e)"><g transform="matrix(1, 0, 0, 1, 167, 182)"><g clip-path="url(#53e3c4fe0e)"><g clip-path="url(#7f4e51eb24)"><g clip-path="url(#e49ebd87d7)"><path fill="#0693e3" d="M 0.851562 0.0429688 L 49.21875 0.0429688 L 49.21875 47.125 L 0.851562 47.125 Z M 0.851562 0.0429688 " fill-opacity="1" fill-rule="nonzero"/></g></g></g></g></g></g><g clip-path="url(#da583bc68a)"><g clip-path="url(#9a625a19b7)"><g transform="matrix(1, 0, 0, 1, 94, 249)"><g clip-path="url(#ef74357d37)"><g clip-path="url(#fcdb1c3586)"><g clip-path="url(#68cdc13e10)"><path fill="#0693e3" d="M 0.613281 0.261719 L 48.984375 0.261719 L 48.984375 47.34375 L 0.613281 47.34375 Z M 0.613281 0.261719 " fill-opacity="1" fill-rule="nonzero"/></g></g></g></g></g></g><g clip-path="url(#ba8230b41a)"><g clip-path="url(#8b90c2aee1)"><g transform="matrix(1, 0, 0, 1, 167, 249)"><g clip-path="url(#1e77403bfd)"><g clip-path="url(#f5baf4a175)"><g clip-path="url(#bd58dc9e34)"><path fill="#0693e3" d="M 0.851562 0.261719 L 49.21875 0.261719 L 49.21875 47.34375 L 0.851562 47.34375 Z M 0.851562 0.261719 " fill-opacity="1" fill-rule="nonzero"/></g></g></g></g></g></g><g clip-path="url(#f78afcef87)"><g clip-path="url(#30d68f625b)"><g transform="matrix(1, 0, 0, 1, 241, 249)"><g clip-path="url(#74c39d9c1e)"><g clip-path="url(#08924db945)"><g clip-path="url(#b4fcb3e8f0)"><path fill="#0693e3" d="M 0.0859375 0.261719 L 48.453125 0.261719 L 48.453125 47.34375 L 0.0859375 47.34375 Z M 0.0859375 0.261719 " fill-opacity="1" fill-rule="nonzero"/></g></g></g></g></g></g></svg>