<svg xmlns="http://www.w3.org/2000/svg" xmlns:xlink="http://www.w3.org/1999/xlink" width="512" zoomAndPan="magnify" viewBox="0 0 384 383.999986" height="512" preserveAspectRatio="xMidYMid meet" version="1.0"><defs><filter x="0%" y="0%" width="100%" height="100%" id="f093e474fc"><feColorMatrix values="0 0 0 0 1 0 0 0 0 1 0 0 0 0 1 0 0 0 1 0" color-interpolation-filters="sRGB"/></filter><clipPath id="bcb2b29a71"><path d="M 52.5 0 L 331.5 0 C 360.496094 0 384 23.503906 384 52.5 L 384 331.5 C 384 360.496094 360.496094 384 331.5 384 L 52.5 384 C 23.503906 384 0 360.496094 0 331.5 L 0 52.5 C 0 23.503906 23.503906 0 52.5 0 Z M 52.5 0 " clip-rule="nonzero"/></clipPath><clipPath id="2fb50d466c"><path d="M 0 0 L 384 0 L 384 384 L 0 384 Z M 0 0 " clip-rule="nonzero"/></clipPath><clipPath id="e7953ec77c"><path d="M 52.5 0 L 331.5 0 C 360.496094 0 384 23.503906 384 52.5 L 384 331.5 C 384 360.496094 360.496094 384 331.5 384 L 52.5 384 C 23.503906 384 0 360.496094 0 331.5 L 0 52.5 C 0 23.503906 23.503906 0 52.5 0 Z M 52.5 0 " clip-rule="nonzero"/></clipPath><clipPath id="c2d3f674c1"><rect x="0" width="384" y="0" height="384"/></clipPath><clipPath id="f3790edda3"><path d="M 62.140625 88.6875 L 320.183594 88.6875 L 320.183594 147.5625 L 62.140625 147.5625 Z M 62.140625 88.6875 " clip-rule="nonzero"/></clipPath><clipPath id="3418e71b44"><path d="M 91.578125 88.6875 L 290.589844 88.6875 C 306.851562 88.6875 320.03125 101.867188 320.03125 118.125 C 320.03125 134.382812 306.851562 147.5625 290.589844 147.5625 L 91.578125 147.5625 C 75.320312 147.5625 62.140625 134.382812 62.140625 118.125 C 62.140625 101.867188 75.320312 88.6875 91.578125 88.6875 Z M 91.578125 88.6875 " clip-rule="nonzero"/></clipPath><clipPath id="7c7efaf23d"><path d="M 0.140625 0.6875 L 258 0.6875 L 258 59.5625 L 0.140625 59.5625 Z M 0.140625 0.6875 " clip-rule="nonzero"/></clipPath><clipPath id="71cb29d78e"><path d="M 29.578125 0.6875 L 228.589844 0.6875 C 244.851562 0.6875 258.03125 13.867188 258.03125 30.125 C 258.03125 46.382812 244.851562 59.5625 228.589844 59.5625 L 29.578125 59.5625 C 13.320312 59.5625 0.140625 46.382812 0.140625 30.125 C 0.140625 13.867188 13.320312 0.6875 29.578125 0.6875 Z M 29.578125 0.6875 " clip-rule="nonzero"/></clipPath><clipPath id="bb1a98d68f"><rect x="0" width="259" y="0" height="60"/></clipPath><clipPath id="665925253d"><path d="M 63.96875 119.746094 L 321.859375 119.746094 L 321.859375 147.5625 L 63.96875 147.5625 Z M 63.96875 119.746094 " clip-rule="nonzero"/></clipPath><clipPath id="312f40fa33"><path d="M 0.96875 0.746094 L 258.859375 0.746094 L 258.859375 28.5625 L 0.96875 28.5625 Z M 0.96875 0.746094 " clip-rule="nonzero"/></clipPath><clipPath id="bc7650abaf"><rect x="0" width="259" y="0" height="29"/></clipPath><clipPath id="cb5e92ccc0"><path d="M 63.550781 147.5625 L 321.851562 147.5625 L 321.851562 336.492188 L 63.550781 336.492188 Z M 63.550781 147.5625 " clip-rule="nonzero"/></clipPath><clipPath id="407d3148a7"><path d="M 288.101562 336.492188 L 97.714844 336.492188 C 88.761719 336.492188 80.179688 332.9375 73.847656 326.609375 C 67.519531 320.277344 63.964844 311.695312 63.964844 302.742188 L 63.964844 181.3125 C 63.964844 172.363281 67.519531 163.777344 73.847656 157.449219 C 80.179688 151.117188 88.761719 147.5625 97.714844 147.5625 L 288.101562 147.5625 C 297.054688 147.5625 305.640625 151.117188 311.96875 157.449219 C 318.296875 163.777344 321.851562 172.363281 321.851562 181.3125 L 321.851562 302.742188 C 321.851562 311.695312 318.296875 320.277344 311.96875 326.609375 C 305.640625 332.9375 297.054688 336.492188 288.101562 336.492188 Z M 288.101562 336.492188 " clip-rule="nonzero"/></clipPath><clipPath id="05370baf5a"><path d="M 1 0.5625 L 258.851562 0.5625 L 258.851562 189.492188 L 1 189.492188 Z M 1 0.5625 " clip-rule="nonzero"/></clipPath><clipPath id="073c80ff9c"><path d="M 225.101562 189.492188 L 34.714844 189.492188 C 25.761719 189.492188 17.179688 185.9375 10.847656 179.609375 C 4.519531 173.277344 0.964844 164.695312 0.964844 155.742188 L 0.964844 34.3125 C 0.964844 25.363281 4.519531 16.777344 10.847656 10.449219 C 17.179688 4.117188 25.761719 0.5625 34.714844 0.5625 L 225.101562 0.5625 C 234.054688 0.5625 242.640625 4.117188 248.96875 10.449219 C 255.296875 16.777344 258.851562 25.363281 258.851562 34.3125 L 258.851562 155.742188 C 258.851562 164.695312 255.296875 173.277344 248.96875 179.609375 C 242.640625 185.9375 234.054688 189.492188 225.101562 189.492188 Z M 225.101562 189.492188 " clip-rule="nonzero"/></clipPath><clipPath id="bd2064b1bf"><rect x="0" width="259" y="0" height="190"/></clipPath><clipPath id="8b1a161452"><path d="M 62.132812 147.5625 L 320.023438 147.5625 L 320.023438 236.824219 L 62.132812 236.824219 Z M 62.132812 147.5625 " clip-rule="nonzero"/></clipPath><clipPath id="284e2fc0fe"><path d="M 0.132812 0.5625 L 258.023438 0.5625 L 258.023438 89.824219 L 0.132812 89.824219 Z M 0.132812 0.5625 " clip-rule="nonzero"/></clipPath><clipPath id="05afc017fa"><rect x="0" width="259" y="0" height="90"/></clipPath><clipPath id="e0e5722e64"><path d="M 111.117188 39.898438 L 130.660156 39.898438 L 130.660156 122.273438 L 111.117188 122.273438 Z M 111.117188 39.898438 " clip-rule="nonzero"/></clipPath><clipPath id="c23dd80de4"><path d="M 120.890625 39.898438 C 123.480469 39.898438 125.964844 40.929688 127.800781 42.761719 C 129.632812 44.59375 130.660156 47.082031 130.660156 49.671875 L 130.660156 112.480469 C 130.660156 115.070312 129.632812 117.554688 127.800781 119.390625 C 125.964844 121.222656 123.480469 122.25 120.890625 122.25 C 118.296875 122.25 115.8125 121.222656 113.980469 119.390625 C 112.148438 117.554688 111.117188 115.070312 111.117188 112.480469 L 111.117188 49.671875 C 111.117188 47.082031 112.148438 44.59375 113.980469 42.761719 C 115.8125 40.929688 118.296875 39.898438 120.890625 39.898438 Z M 120.890625 39.898438 " clip-rule="nonzero"/></clipPath><clipPath id="9adb0090cb"><path d="M 0.117188 0.898438 L 19.660156 0.898438 L 19.660156 83.273438 L 0.117188 83.273438 Z M 0.117188 0.898438 " clip-rule="nonzero"/></clipPath><clipPath id="26ebc74ff2"><path d="M 9.890625 0.898438 C 12.480469 0.898438 14.964844 1.929688 16.800781 3.761719 C 18.632812 5.59375 19.660156 8.082031 19.660156 10.671875 L 19.660156 73.480469 C 19.660156 76.070312 18.632812 78.554688 16.800781 80.390625 C 14.964844 82.222656 12.480469 83.25 9.890625 83.25 C 7.296875 83.25 4.8125 82.222656 2.980469 80.390625 C 1.148438 78.554688 0.117188 76.070312 0.117188 73.480469 L 0.117188 10.671875 C 0.117188 8.082031 1.148438 5.59375 2.980469 3.761719 C 4.8125 1.929688 7.296875 0.898438 9.890625 0.898438 Z M 9.890625 0.898438 " clip-rule="nonzero"/></clipPath><clipPath id="a41ec529ba"><rect x="0" width="20" y="0" height="84"/></clipPath><clipPath id="68cc7231d5"><path d="M 253.757812 39.898438 L 272.882812 39.898438 L 272.882812 122.308594 L 253.757812 122.308594 Z M 253.757812 39.898438 " clip-rule="nonzero"/></clipPath><clipPath id="1a2ae7b8ce"><path d="M 263.320312 39.898438 C 268.601562 39.898438 272.882812 44.179688 272.882812 49.464844 L 272.882812 112.6875 C 272.882812 117.96875 268.601562 122.25 263.320312 122.25 C 258.039062 122.25 253.757812 117.96875 253.757812 112.6875 L 253.757812 49.464844 C 253.757812 44.179688 258.039062 39.898438 263.320312 39.898438 Z M 263.320312 39.898438 " clip-rule="nonzero"/></clipPath><clipPath id="a5fe00a90d"><path d="M 0.757812 0.898438 L 19.882812 0.898438 L 19.882812 83.308594 L 0.757812 83.308594 Z M 0.757812 0.898438 " clip-rule="nonzero"/></clipPath><clipPath id="3c9c17259a"><path d="M 10.320312 0.898438 C 15.601562 0.898438 19.882812 5.179688 19.882812 10.464844 L 19.882812 73.6875 C 19.882812 78.96875 15.601562 83.25 10.320312 83.25 C 5.039062 83.25 0.757812 78.96875 0.757812 73.6875 L 0.757812 10.464844 C 0.757812 5.179688 5.039062 0.898438 10.320312 0.898438 Z M 10.320312 0.898438 " clip-rule="nonzero"/></clipPath><clipPath id="a2b6623048"><rect x="0" width="20" y="0" height="84"/></clipPath><clipPath id="6077ec42a6"><path d="M 55.058594 79.027344 L 328.808594 79.027344 L 328.808594 343.777344 L 55.058594 343.777344 Z M 55.058594 79.027344 " clip-rule="nonzero"/></clipPath><clipPath id="725672cf59"><path d="M 328.9375 131.527344 L 328.9375 290.949219 C 328.9375 319.945312 305.433594 343.449219 276.4375 343.449219 L 107.558594 343.449219 C 78.566406 343.449219 55.058594 319.945312 55.058594 290.949219 L 55.058594 131.527344 C 55.058594 102.53125 78.566406 79.027344 107.558594 79.027344 L 276.4375 79.027344 C 305.433594 79.027344 328.9375 102.53125 328.9375 131.527344 Z M 328.9375 131.527344 " clip-rule="nonzero"/></clipPath><mask id="4bc59fe30c"><g filter="url(#f093e474fc)"><rect x="-38.4" width="460.8" fill="#000000" y="-38.399999" height="460.799983" fill-opacity="0.35"/></g></mask><clipPath id="55bd4192a1"><path d="M 0.191406 0.214844 L 121.09375 0.214844 L 121.09375 139.53125 L 0.191406 139.53125 Z M 0.191406 0.214844 " clip-rule="nonzero"/></clipPath><clipPath id="becab43064"><path d="M 4.691406 0.214844 L 116.59375 0.214844 C 119.078125 0.214844 121.09375 2.230469 121.09375 4.714844 L 121.09375 134.84375 C 121.09375 137.328125 119.078125 139.34375 116.59375 139.34375 L 4.691406 139.34375 C 2.207031 139.34375 0.191406 137.328125 0.191406 134.84375 L 0.191406 4.714844 C 0.191406 2.230469 2.207031 0.214844 4.691406 0.214844 Z M 4.691406 0.214844 " clip-rule="nonzero"/></clipPath><clipPath id="29da437678"><path d="M 0.191406 0.214844 L 121.09375 0.214844 L 121.09375 139.359375 L 0.191406 139.359375 Z M 0.191406 0.214844 " clip-rule="nonzero"/></clipPath><clipPath id="baf7a17d73"><path d="M 4.691406 0.214844 L 116.59375 0.214844 C 119.078125 0.214844 121.09375 2.230469 121.09375 4.714844 L 121.09375 134.84375 C 121.09375 137.328125 119.078125 139.34375 116.59375 139.34375 L 4.691406 139.34375 C 2.207031 139.34375 0.191406 137.328125 0.191406 134.84375 L 0.191406 4.714844 C 0.191406 2.230469 2.207031 0.214844 4.691406 0.214844 Z M 4.691406 0.214844 " clip-rule="nonzero"/></clipPath><clipPath id="eb61e1bdaa"><rect x="0" width="122" y="0" height="140"/></clipPath><clipPath id="09f6570c97"><rect x="0" width="122" y="0" height="140"/></clipPath><mask id="e4deccc253"><g filter="url(#f093e474fc)"><rect x="-38.4" width="460.8" fill="#000000" y="-38.399999" height="460.799983" fill-opacity="0.35"/></g></mask><clipPath id="2917059780"><path d="M 1.042969 0.214844 L 36.636719 0.214844 L 36.636719 82.667969 L 1.042969 82.667969 Z M 1.042969 0.214844 " clip-rule="nonzero"/></clipPath><clipPath id="df8e86d756"><path d="M 5.542969 0.214844 L 32.136719 0.214844 C 34.621094 0.214844 36.636719 2.230469 36.636719 4.714844 L 36.636719 78.132812 C 36.636719 80.617188 34.621094 82.632812 32.136719 82.632812 L 5.542969 82.632812 C 3.054688 82.632812 1.042969 80.617188 1.042969 78.132812 L 1.042969 4.714844 C 1.042969 2.230469 3.054688 0.214844 5.542969 0.214844 Z M 5.542969 0.214844 " clip-rule="nonzero"/></clipPath><clipPath id="b052376470"><path d="M 0.0429688 0.214844 L 35.636719 0.214844 L 35.636719 82.667969 L 0.0429688 82.667969 Z M 0.0429688 0.214844 " clip-rule="nonzero"/></clipPath><clipPath id="a0694cdd31"><path d="M 4.542969 0.214844 L 31.136719 0.214844 C 33.621094 0.214844 35.636719 2.230469 35.636719 4.714844 L 35.636719 78.132812 C 35.636719 80.617188 33.621094 82.632812 31.136719 82.632812 L 4.542969 82.632812 C 2.054688 82.632812 0.0429688 80.617188 0.0429688 78.132812 L 0.0429688 4.714844 C 0.0429688 2.230469 2.054688 0.214844 4.542969 0.214844 Z M 4.542969 0.214844 " clip-rule="nonzero"/></clipPath><clipPath id="9f54491f77"><rect x="0" width="36" y="0" height="83"/></clipPath><clipPath id="3160f5671e"><rect x="0" width="37" y="0" height="83"/></clipPath><mask id="4d87e32deb"><g filter="url(#f093e474fc)"><rect x="-38.4" width="460.8" fill="#000000" y="-38.399999" height="460.799983" fill-opacity="0.35"/></g></mask><clipPath id="737c7e7229"><path d="M 1.042969 0.847656 L 36.636719 0.847656 L 36.636719 45.359375 L 1.042969 45.359375 Z M 1.042969 0.847656 " clip-rule="nonzero"/></clipPath><clipPath id="65c5a69233"><path d="M 5.542969 0.847656 L 32.136719 0.847656 C 34.621094 0.847656 36.636719 2.863281 36.636719 5.347656 L 36.636719 40.84375 C 36.636719 43.328125 34.621094 45.34375 32.136719 45.34375 L 5.542969 45.34375 C 3.054688 45.34375 1.042969 43.328125 1.042969 40.84375 L 1.042969 5.347656 C 1.042969 2.863281 3.054688 0.847656 5.542969 0.847656 Z M 5.542969 0.847656 " clip-rule="nonzero"/></clipPath><clipPath id="a2ae646031"><path d="M 0.0429688 0.847656 L 35.636719 0.847656 L 35.636719 45.359375 L 0.0429688 45.359375 Z M 0.0429688 0.847656 " clip-rule="nonzero"/></clipPath><clipPath id="031c1c3181"><path d="M 4.542969 0.847656 L 31.136719 0.847656 C 33.621094 0.847656 35.636719 2.863281 35.636719 5.347656 L 35.636719 40.84375 C 35.636719 43.328125 33.621094 45.34375 31.136719 45.34375 L 4.542969 45.34375 C 2.054688 45.34375 0.0429688 43.328125 0.0429688 40.84375 L 0.0429688 5.347656 C 0.0429688 2.863281 2.054688 0.847656 4.542969 0.847656 Z M 4.542969 0.847656 " clip-rule="nonzero"/></clipPath><clipPath id="332d36311a"><rect x="0" width="36" y="0" height="46"/></clipPath><clipPath id="88f9ea8fa5"><rect x="0" width="37" y="0" height="46"/></clipPath></defs><g clip-path="url(#bcb2b29a71)"><g><g clip-path="url(#c2d3f674c1)"><g clip-path="url(#2fb50d466c)"><g clip-path="url(#e7953ec77c)"><rect x="-84.48" width="552.96" fill="#ffffff" height="552.959979" y="-84.479997" fill-opacity="1"/></g></g></g></g><path stroke-linecap="butt" transform="matrix(0.75, 0, 0, 0.75, 0.0000072, 0.000000000000021316)" fill="none" stroke-linejoin="miter" d="M 69.999991 -0.000000000000028422 L 441.999997 -0.000000000000028422 C 480.661456 -0.000000000000028422 511.999998 31.338542 511.999998 70.000001 L 511.999998 442.000007 C 511.999998 480.661466 480.661456 512.000008 441.999997 512.000008 L 69.999991 512.000008 C 31.338533 512.000008 -0.0000096 480.661466 -0.0000096 442.000007 L -0.0000096 70.000001 C -0.0000096 31.338542 31.338533 -0.000000000000028422 69.999991 -0.000000000000028422 Z M 69.999991 -0.000000000000028422 " stroke="#000000" stroke-width="12" stroke-opacity="1" stroke-miterlimit="4"/></g><g clip-path="url(#f3790edda3)"><g clip-path="url(#3418e71b44)"><g transform="matrix(1, 0, 0, 1, 62, 88)"><g clip-path="url(#bb1a98d68f)"><g clip-path="url(#7c7efaf23d)"><g clip-path="url(#71cb29d78e)"><path fill="#0693e3" d="M 0.140625 0.6875 L 257.953125 0.6875 L 257.953125 59.5625 L 0.140625 59.5625 Z M 0.140625 0.6875 " fill-opacity="1" fill-rule="nonzero"/></g></g></g></g></g></g><g clip-path="url(#665925253d)"><g transform="matrix(1, 0, 0, 1, 63, 119)"><g clip-path="url(#bc7650abaf)"><g clip-path="url(#312f40fa33)"><path fill="#0693e3" d="M 0.96875 0.746094 L 258.816406 0.746094 L 258.816406 28.5625 L 0.96875 28.5625 Z M 0.96875 0.746094 " fill-opacity="1" fill-rule="nonzero"/></g></g></g></g><g clip-path="url(#cb5e92ccc0)"><g clip-path="url(#407d3148a7)"><g transform="matrix(1, 0, 0, 1, 63, 147)"><g clip-path="url(#bd2064b1bf)"><g clip-path="url(#05370baf5a)"><g clip-path="url(#073c80ff9c)"><path fill="#ffffff" d="M 258.851562 189.492188 L 1.289062 189.492188 L 1.289062 0.5625 L 258.851562 0.5625 Z M 258.851562 189.492188 " fill-opacity="1" fill-rule="nonzero"/></g></g></g></g></g></g><g clip-path="url(#8b1a161452)"><g transform="matrix(1, 0, 0, 1, 62, 147)"><g clip-path="url(#05afc017fa)"><g clip-path="url(#284e2fc0fe)"><path fill="#ffffff" d="M 258.023438 89.824219 L 0 89.824219 L 0 0.5625 L 258.023438 0.5625 Z M 258.023438 89.824219 " fill-opacity="1" fill-rule="nonzero"/></g></g></g></g><g clip-path="url(#e0e5722e64)"><g clip-path="url(#c23dd80de4)"><g transform="matrix(1, 0, 0, 1, 111, 39)"><g clip-path="url(#a41ec529ba)"><g clip-path="url(#9adb0090cb)"><g clip-path="url(#26ebc74ff2)"><path fill="#0f1131" d="M 0.117188 0.898438 L 19.660156 0.898438 L 19.660156 83.273438 L 0.117188 83.273438 Z M 0.117188 0.898438 " fill-opacity="1" fill-rule="nonzero"/></g></g></g></g></g></g><g clip-path="url(#68cc7231d5)"><g clip-path="url(#1a2ae7b8ce)"><g transform="matrix(1, 0, 0, 1, 253, 39)"><g clip-path="url(#a2b6623048)"><g clip-path="url(#a5fe00a90d)"><g clip-path="url(#3c9c17259a)"><path fill="#0f1131" d="M 0.757812 0.898438 L 19.882812 0.898438 L 19.882812 83.234375 L 0.757812 83.234375 Z M 0.757812 0.898438 " fill-opacity="1" fill-rule="nonzero"/></g></g></g></g></g></g><g clip-path="url(#6077ec42a6)"><g clip-path="url(#725672cf59)"><path stroke-linecap="butt" transform="matrix(0.75, 0, 0, 0.75, 55.060455, 79.026887)" fill="none" stroke-linejoin="miter" d="M 365.169399 70.000611 L 365.169399 282.563114 C 365.169399 321.224573 333.830857 352.563115 295.169398 352.563115 L 69.99752 352.563115 C 31.341269 352.563115 -0.00248145 321.224573 -0.00248145 282.563114 L -0.00248145 70.000611 C -0.00248145 31.339152 31.341269 0.000609608 69.99752 0.000609608 L 295.169398 0.000609608 C 333.830857 0.000609608 365.169399 31.339152 365.169399 70.000611 Z M 365.169399 70.000611 " stroke="#0f1131" stroke-width="32" stroke-opacity="1" stroke-miterlimit="4"/></g></g><g mask="url(#4bc59fe30c)"><g transform="matrix(1, 0, 0, 1, 107, 170)"><g clip-path="url(#09f6570c97)"><g clip-path="url(#55bd4192a1)"><g clip-path="url(#becab43064)"><g transform="matrix(1, 0, 0, 1, -0.000000000000014211, 0)"><g clip-path="url(#eb61e1bdaa)"><g clip-path="url(#29da437678)"><g clip-path="url(#baf7a17d73)"><path fill="#000000" d="M 0.191406 0.214844 L 121.09375 0.214844 L 121.09375 139.53125 L 0.191406 139.53125 Z M 0.191406 0.214844 " fill-opacity="1" fill-rule="nonzero"/></g></g></g></g></g></g></g></g></g><g mask="url(#e4deccc253)"><g transform="matrix(1, 0, 0, 1, 242, 170)"><g clip-path="url(#3160f5671e)"><g clip-path="url(#2917059780)"><g clip-path="url(#df8e86d756)"><g transform="matrix(1, 0, 0, 1, 1, 0)"><g clip-path="url(#9f54491f77)"><g clip-path="url(#b052376470)"><g clip-path="url(#a0694cdd31)"><path fill="#000000" d="M 0.0429688 0.214844 L 35.636719 0.214844 L 35.636719 82.667969 L 0.0429688 82.667969 Z M 0.0429688 0.214844 " fill-opacity="1" fill-rule="nonzero"/></g></g></g></g></g></g></g></g></g><g mask="url(#4d87e32deb)"><g transform="matrix(1, 0, 0, 1, 242, 264)"><g clip-path="url(#88f9ea8fa5)"><g clip-path="url(#737c7e7229)"><g clip-path="url(#65c5a69233)"><g transform="matrix(1, 0, 0, 1, 1, 0)"><g clip-path="url(#332d36311a)"><g clip-path="url(#a2ae646031)"><g clip-path="url(#031c1c3181)"><path fill="#000000" d="M 0.0429688 0.847656 L 35.636719 0.847656 L 35.636719 45.339844 L 0.0429688 45.339844 Z M 0.0429688 0.847656 " fill-opacity="1" fill-rule="nonzero"/></g></g></g></g></g></g></g></g></g></svg>