<svg xmlns="http://www.w3.org/2000/svg" xmlns:xlink="http://www.w3.org/1999/xlink" width="512" zoomAndPan="magnify" viewBox="0 0 384 383.999986" height="512" preserveAspectRatio="xMidYMid meet" version="1.0"><defs><clipPath id="16d5cb34f9"><path d="M 52.5 0 L 331.5 0 C 360.496094 0 384 23.503906 384 52.5 L 384 331.5 C 384 360.496094 360.496094 384 331.5 384 L 52.5 384 C 23.503906 384 0 360.496094 0 331.5 L 0 52.5 C 0 23.503906 23.503906 0 52.5 0 Z M 52.5 0 " clip-rule="nonzero"/></clipPath><clipPath id="fa31f66259"><path d="M 0 0 L 384 0 L 384 384 L 0 384 Z M 0 0 " clip-rule="nonzero"/></clipPath><clipPath id="615f5887f2"><path d="M 52.5 0 L 331.5 0 C 360.496094 0 384 23.503906 384 52.5 L 384 331.5 C 384 360.496094 360.496094 384 331.5 384 L 52.5 384 C 23.503906 384 0 360.496094 0 331.5 L 0 52.5 C 0 23.503906 23.503906 0 52.5 0 Z M 52.5 0 " clip-rule="nonzero"/></clipPath><clipPath id="51efcd79c4"><rect x="0" width="384" y="0" height="384"/></clipPath><clipPath id="8082f9abfb"><path d="M 62.140625 88.6875 L 320.183594 88.6875 L 320.183594 147.5625 L 62.140625 147.5625 Z M 62.140625 88.6875 " clip-rule="nonzero"/></clipPath><clipPath id="ed943d0b3c"><path d="M 91.578125 88.6875 L 290.589844 88.6875 C 306.851562 88.6875 320.03125 101.867188 320.03125 118.125 C 320.03125 134.382812 306.851562 147.5625 290.589844 147.5625 L 91.578125 147.5625 C 75.320312 147.5625 62.140625 134.382812 62.140625 118.125 C 62.140625 101.867188 75.320312 88.6875 91.578125 88.6875 Z M 91.578125 88.6875 " clip-rule="nonzero"/></clipPath><clipPath id="8c81824fcb"><path d="M 0.140625 0.6875 L 258 0.6875 L 258 59.5625 L 0.140625 59.5625 Z M 0.140625 0.6875 " clip-rule="nonzero"/></clipPath><clipPath id="81238363a5"><path d="M 29.578125 0.6875 L 228.589844 0.6875 C 244.851562 0.6875 258.03125 13.867188 258.03125 30.125 C 258.03125 46.382812 244.851562 59.5625 228.589844 59.5625 L 29.578125 59.5625 C 13.320312 59.5625 0.140625 46.382812 0.140625 30.125 C 0.140625 13.867188 13.320312 0.6875 29.578125 0.6875 Z M 29.578125 0.6875 " clip-rule="nonzero"/></clipPath><clipPath id="91dd55a126"><rect x="0" width="259" y="0" height="60"/></clipPath><clipPath id="d1be9900f6"><path d="M 63.96875 119.746094 L 321.859375 119.746094 L 321.859375 147.5625 L 63.96875 147.5625 Z M 63.96875 119.746094 " clip-rule="nonzero"/></clipPath><clipPath id="af47eff61b"><path d="M 0.96875 0.746094 L 258.859375 0.746094 L 258.859375 28.5625 L 0.96875 28.5625 Z M 0.96875 0.746094 " clip-rule="nonzero"/></clipPath><clipPath id="c6afd63ca1"><rect x="0" width="259" y="0" height="29"/></clipPath><clipPath id="90e7b29e20"><path d="M 63.550781 147.5625 L 321.851562 147.5625 L 321.851562 336.492188 L 63.550781 336.492188 Z M 63.550781 147.5625 " clip-rule="nonzero"/></clipPath><clipPath id="7e144788b0"><path d="M 288.101562 336.492188 L 97.714844 336.492188 C 88.761719 336.492188 80.179688 332.9375 73.847656 326.609375 C 67.519531 320.277344 63.964844 311.695312 63.964844 302.742188 L 63.964844 181.3125 C 63.964844 172.363281 67.519531 163.777344 73.847656 157.449219 C 80.179688 151.117188 88.761719 147.5625 97.714844 147.5625 L 288.101562 147.5625 C 297.054688 147.5625 305.640625 151.117188 311.96875 157.449219 C 318.296875 163.777344 321.851562 172.363281 321.851562 181.3125 L 321.851562 302.742188 C 321.851562 311.695312 318.296875 320.277344 311.96875 326.609375 C 305.640625 332.9375 297.054688 336.492188 288.101562 336.492188 Z M 288.101562 336.492188 " clip-rule="nonzero"/></clipPath><clipPath id="a46593b3c7"><path d="M 1 0.5625 L 258.851562 0.5625 L 258.851562 189.492188 L 1 189.492188 Z M 1 0.5625 " clip-rule="nonzero"/></clipPath><clipPath id="1445b56044"><path d="M 225.101562 189.492188 L 34.714844 189.492188 C 25.761719 189.492188 17.179688 185.9375 10.847656 179.609375 C 4.519531 173.277344 0.964844 164.695312 0.964844 155.742188 L 0.964844 34.3125 C 0.964844 25.363281 4.519531 16.777344 10.847656 10.449219 C 17.179688 4.117188 25.761719 0.5625 34.714844 0.5625 L 225.101562 0.5625 C 234.054688 0.5625 242.640625 4.117188 248.96875 10.449219 C 255.296875 16.777344 258.851562 25.363281 258.851562 34.3125 L 258.851562 155.742188 C 258.851562 164.695312 255.296875 173.277344 248.96875 179.609375 C 242.640625 185.9375 234.054688 189.492188 225.101562 189.492188 Z M 225.101562 189.492188 " clip-rule="nonzero"/></clipPath><clipPath id="3f2117e9b4"><rect x="0" width="259" y="0" height="190"/></clipPath><clipPath id="b2e3460fd9"><path d="M 62.132812 147.5625 L 320.023438 147.5625 L 320.023438 236.824219 L 62.132812 236.824219 Z M 62.132812 147.5625 " clip-rule="nonzero"/></clipPath><clipPath id="884b9d5207"><path d="M 0.132812 0.5625 L 258.023438 0.5625 L 258.023438 89.824219 L 0.132812 89.824219 Z M 0.132812 0.5625 " clip-rule="nonzero"/></clipPath><clipPath id="95f9f2a475"><rect x="0" width="259" y="0" height="90"/></clipPath><clipPath id="2e3f3f3fdf"><path d="M 111.117188 39.898438 L 130.660156 39.898438 L 130.660156 122.273438 L 111.117188 122.273438 Z M 111.117188 39.898438 " clip-rule="nonzero"/></clipPath><clipPath id="2b98c48f8e"><path d="M 120.890625 39.898438 C 123.480469 39.898438 125.964844 40.929688 127.800781 42.761719 C 129.632812 44.59375 130.660156 47.082031 130.660156 49.671875 L 130.660156 112.480469 C 130.660156 115.070312 129.632812 117.554688 127.800781 119.390625 C 125.964844 121.222656 123.480469 122.25 120.890625 122.25 C 118.296875 122.25 115.8125 121.222656 113.980469 119.390625 C 112.148438 117.554688 111.117188 115.070312 111.117188 112.480469 L 111.117188 49.671875 C 111.117188 47.082031 112.148438 44.59375 113.980469 42.761719 C 115.8125 40.929688 118.296875 39.898438 120.890625 39.898438 Z M 120.890625 39.898438 " clip-rule="nonzero"/></clipPath><clipPath id="e4f3aa24e2"><path d="M 0.117188 0.898438 L 19.660156 0.898438 L 19.660156 83.273438 L 0.117188 83.273438 Z M 0.117188 0.898438 " clip-rule="nonzero"/></clipPath><clipPath id="b4da64b77d"><path d="M 9.890625 0.898438 C 12.480469 0.898438 14.964844 1.929688 16.800781 3.761719 C 18.632812 5.59375 19.660156 8.082031 19.660156 10.671875 L 19.660156 73.480469 C 19.660156 76.070312 18.632812 78.554688 16.800781 80.390625 C 14.964844 82.222656 12.480469 83.25 9.890625 83.25 C 7.296875 83.25 4.8125 82.222656 2.980469 80.390625 C 1.148438 78.554688 0.117188 76.070312 0.117188 73.480469 L 0.117188 10.671875 C 0.117188 8.082031 1.148438 5.59375 2.980469 3.761719 C 4.8125 1.929688 7.296875 0.898438 9.890625 0.898438 Z M 9.890625 0.898438 " clip-rule="nonzero"/></clipPath><clipPath id="989aa9e941"><rect x="0" width="20" y="0" height="84"/></clipPath><clipPath id="9f364daf39"><path d="M 253.757812 39.898438 L 272.882812 39.898438 L 272.882812 122.308594 L 253.757812 122.308594 Z M 253.757812 39.898438 " clip-rule="nonzero"/></clipPath><clipPath id="b7c5a745c3"><path d="M 263.320312 39.898438 C 268.601562 39.898438 272.882812 44.179688 272.882812 49.464844 L 272.882812 112.6875 C 272.882812 117.96875 268.601562 122.25 263.320312 122.25 C 258.039062 122.25 253.757812 117.96875 253.757812 112.6875 L 253.757812 49.464844 C 253.757812 44.179688 258.039062 39.898438 263.320312 39.898438 Z M 263.320312 39.898438 " clip-rule="nonzero"/></clipPath><clipPath id="6ba520f7a8"><path d="M 0.757812 0.898438 L 19.882812 0.898438 L 19.882812 83.308594 L 0.757812 83.308594 Z M 0.757812 0.898438 " clip-rule="nonzero"/></clipPath><clipPath id="6bf8b9c6b7"><path d="M 10.320312 0.898438 C 15.601562 0.898438 19.882812 5.179688 19.882812 10.464844 L 19.882812 73.6875 C 19.882812 78.96875 15.601562 83.25 10.320312 83.25 C 5.039062 83.25 0.757812 78.96875 0.757812 73.6875 L 0.757812 10.464844 C 0.757812 5.179688 5.039062 0.898438 10.320312 0.898438 Z M 10.320312 0.898438 " clip-rule="nonzero"/></clipPath><clipPath id="46b8dc931f"><rect x="0" width="20" y="0" height="84"/></clipPath><clipPath id="29073966c8"><path d="M 55.058594 79.027344 L 328.808594 79.027344 L 328.808594 343.777344 L 55.058594 343.777344 Z M 55.058594 79.027344 " clip-rule="nonzero"/></clipPath><clipPath id="7d164dd2fc"><path d="M 328.9375 131.527344 L 328.9375 290.949219 C 328.9375 319.945312 305.433594 343.449219 276.4375 343.449219 L 107.558594 343.449219 C 78.566406 343.449219 55.058594 319.945312 55.058594 290.949219 L 55.058594 131.527344 C 55.058594 102.53125 78.566406 79.027344 107.558594 79.027344 L 276.4375 79.027344 C 305.433594 79.027344 328.9375 102.53125 328.9375 131.527344 Z M 328.9375 131.527344 " clip-rule="nonzero"/></clipPath><clipPath id="d86d6a9d7b"><path d="M 130.660156 170.851562 L 262 170.851562 L 262 302.851562 L 130.660156 302.851562 Z M 130.660156 170.851562 " clip-rule="nonzero"/></clipPath></defs><g clip-path="url(#16d5cb34f9)"><g><g clip-path="url(#51efcd79c4)"><g clip-path="url(#fa31f66259)"><g clip-path="url(#615f5887f2)"><rect x="-84.48" width="552.96" fill="#ffffff" height="552.959979" y="-84.479997" fill-opacity="1"/></g></g></g></g><path stroke-linecap="butt" transform="matrix(0.75, 0, 0, 0.75, 0.0000072, 0.000000000000021316)" fill="none" stroke-linejoin="miter" d="M 69.999991 -0.000000000000028422 L 441.999997 -0.000000000000028422 C 480.661456 -0.000000000000028422 511.999998 31.338542 511.999998 70.000001 L 511.999998 442.000007 C 511.999998 480.661466 480.661456 512.000008 441.999997 512.000008 L 69.999991 512.000008 C 31.338533 512.000008 -0.0000096 480.661466 -0.0000096 442.000007 L -0.0000096 70.000001 C -0.0000096 31.338542 31.338533 -0.000000000000028422 69.999991 -0.000000000000028422 Z M 69.999991 -0.000000000000028422 " stroke="#000000" stroke-width="12" stroke-opacity="1" stroke-miterlimit="4"/></g><g clip-path="url(#8082f9abfb)"><g clip-path="url(#ed943d0b3c)"><g transform="matrix(1, 0, 0, 1, 62, 88)"><g clip-path="url(#91dd55a126)"><g clip-path="url(#8c81824fcb)"><g clip-path="url(#81238363a5)"><path fill="#0693e3" d="M 0.140625 0.6875 L 257.953125 0.6875 L 257.953125 59.5625 L 0.140625 59.5625 Z M 0.140625 0.6875 " fill-opacity="1" fill-rule="nonzero"/></g></g></g></g></g></g><g clip-path="url(#d1be9900f6)"><g transform="matrix(1, 0, 0, 1, 63, 119)"><g clip-path="url(#c6afd63ca1)"><g clip-path="url(#af47eff61b)"><path fill="#0693e3" d="M 0.96875 0.746094 L 258.816406 0.746094 L 258.816406 28.5625 L 0.96875 28.5625 Z M 0.96875 0.746094 " fill-opacity="1" fill-rule="nonzero"/></g></g></g></g><g clip-path="url(#90e7b29e20)"><g clip-path="url(#7e144788b0)"><g transform="matrix(1, 0, 0, 1, 63, 147)"><g clip-path="url(#3f2117e9b4)"><g clip-path="url(#a46593b3c7)"><g clip-path="url(#1445b56044)"><path fill="#ffffff" d="M 258.851562 189.492188 L 1.289062 189.492188 L 1.289062 0.5625 L 258.851562 0.5625 Z M 258.851562 189.492188 " fill-opacity="1" fill-rule="nonzero"/></g></g></g></g></g></g><g clip-path="url(#b2e3460fd9)"><g transform="matrix(1, 0, 0, 1, 62, 147)"><g clip-path="url(#95f9f2a475)"><g clip-path="url(#884b9d5207)"><path fill="#ffffff" d="M 258.023438 89.824219 L 0 89.824219 L 0 0.5625 L 258.023438 0.5625 Z M 258.023438 89.824219 " fill-opacity="1" fill-rule="nonzero"/></g></g></g></g><g clip-path="url(#2e3f3f3fdf)"><g clip-path="url(#2b98c48f8e)"><g transform="matrix(1, 0, 0, 1, 111, 39)"><g clip-path="url(#989aa9e941)"><g clip-path="url(#e4f3aa24e2)"><g clip-path="url(#b4da64b77d)"><path fill="#0f1131" d="M 0.117188 0.898438 L 19.660156 0.898438 L 19.660156 83.273438 L 0.117188 83.273438 Z M 0.117188 0.898438 " fill-opacity="1" fill-rule="nonzero"/></g></g></g></g></g></g><g clip-path="url(#9f364daf39)"><g clip-path="url(#b7c5a745c3)"><g transform="matrix(1, 0, 0, 1, 253, 39)"><g clip-path="url(#46b8dc931f)"><g clip-path="url(#6ba520f7a8)"><g clip-path="url(#6bf8b9c6b7)"><path fill="#0f1131" d="M 0.757812 0.898438 L 19.882812 0.898438 L 19.882812 83.234375 L 0.757812 83.234375 Z M 0.757812 0.898438 " fill-opacity="1" fill-rule="nonzero"/></g></g></g></g></g></g><g clip-path="url(#29073966c8)"><g clip-path="url(#7d164dd2fc)"><path stroke-linecap="butt" transform="matrix(0.75, 0, 0, 0.75, 55.060455, 79.026887)" fill="none" stroke-linejoin="miter" d="M 365.169399 70.000611 L 365.169399 282.563114 C 365.169399 321.224573 333.830857 352.563115 295.169398 352.563115 L 69.99752 352.563115 C 31.341269 352.563115 -0.00248145 321.224573 -0.00248145 282.563114 L -0.00248145 70.000611 C -0.00248145 31.339152 31.341269 0.000609608 69.99752 0.000609608 L 295.169398 0.000609608 C 333.830857 0.000609608 365.169399 31.339152 365.169399 70.000611 Z M 365.169399 70.000611 " stroke="#0f1131" stroke-width="32" stroke-opacity="1" stroke-miterlimit="4"/></g></g><g clip-path="url(#d86d6a9d7b)"><path fill="#0693e3" d="M 215.46875 267.332031 L 247.785156 299.636719 C 250.984375 302.835938 256.179688 302.835938 259.378906 299.636719 C 262.578125 296.433594 262.578125 291.238281 259.375 288.039062 L 227.082031 255.753906 C 233.578125 246.917969 237.417969 236.007812 237.417969 224.203125 C 237.417969 194.757812 213.511719 170.851562 184.066406 170.851562 C 154.617188 170.851562 130.710938 194.757812 130.710938 224.203125 C 130.710938 253.652344 154.617188 277.558594 184.066406 277.558594 C 195.800781 277.558594 206.652344 273.761719 215.46875 267.332031 Z M 184.066406 187.25 C 204.460938 187.25 221.019531 203.808594 221.019531 224.203125 C 221.019531 244.601562 204.460938 261.160156 184.066406 261.160156 C 163.667969 261.160156 147.109375 244.601562 147.109375 224.203125 C 147.109375 203.808594 163.667969 187.25 184.066406 187.25 Z M 184.066406 187.25 " fill-opacity="1" fill-rule="evenodd"/></g></svg>