<svg width="250" height="46" viewBox="0 0 250 46" fill="none" xmlns="http://www.w3.org/2000/svg">
<rect width="46" height="46" rx="2" fill="#00B67A"/>
<rect x="51" width="46" height="46" rx="2" fill="#00B67A"/>
<rect x="102" width="46" height="46" rx="2" fill="#00B67A"/>
<rect x="153" width="46" height="46" rx="2" fill="#00B67A"/>
<rect x="204" width="46" height="46" rx="2" fill="#00B67A"/>
<path d="M22.5 30.4086L28.0773 33.7818C29.0987 34.4 30.3486 33.4862 30.0798 32.3304L28.6015 25.987L33.5337 21.7133C34.4341 20.9338 33.9503 19.4555 32.7677 19.3614L26.2765 18.8104L23.7364 12.8164C23.2795 11.7279 21.7205 11.7279 21.2636 12.8164L18.7235 18.797L12.2323 19.348C11.0497 19.442 10.5659 20.9204 11.4663 21.6999L16.3985 25.9736L14.9202 32.3169C14.6514 33.4727 15.9013 34.3866 16.9227 33.7684L22.5 30.4086Z" fill="white"/>
<path d="M73.5 30.4086L79.0773 33.7818C80.0987 34.4 81.3486 33.4862 81.0798 32.3304L79.6015 25.987L84.5337 21.7133C85.4341 20.9338 84.9503 19.4555 83.7677 19.3614L77.2765 18.8104L74.7364 12.8164C74.2795 11.7279 72.7205 11.7279 72.2636 12.8164L69.7235 18.797L63.2323 19.348C62.0497 19.442 61.5659 20.9204 62.4663 21.6999L67.3985 25.9736L65.9202 32.3169C65.6514 33.4727 66.9013 34.3866 67.9227 33.7684L73.5 30.4086Z" fill="white"/>
<path d="M124.5 30.4086L130.077 33.7818C131.099 34.4 132.349 33.4862 132.08 32.3304L130.601 25.987L135.534 21.7133C136.434 20.9338 135.95 19.4555 134.768 19.3614L128.276 18.8104L125.736 12.8164C125.279 11.7279 123.721 11.7279 123.264 12.8164L120.724 18.797L114.232 19.348C113.05 19.442 112.566 20.9204 113.466 21.6999L118.399 25.9736L116.92 32.3169C116.651 33.4727 117.901 34.3866 118.923 33.7684L124.5 30.4086Z" fill="white"/>
<path d="M175.5 30.4086L181.077 33.7818C182.099 34.4 183.349 33.4862 183.08 32.3304L181.601 25.987L186.534 21.7133C187.434 20.9338 186.95 19.4555 185.768 19.3614L179.276 18.8104L176.736 12.8164C176.279 11.7279 174.721 11.7279 174.264 12.8164L171.724 18.797L165.232 19.348C164.05 19.442 163.566 20.9204 164.466 21.6999L169.399 25.9736L167.92 32.3169C167.651 33.4727 168.901 34.3866 169.923 33.7684L175.5 30.4086Z" fill="white"/>
<path d="M226.5 30.4086L232.077 33.7818C233.099 34.4 234.349 33.4862 234.08 32.3304L232.601 25.987L237.534 21.7133C238.434 20.9338 237.95 19.4555 236.768 19.3614L230.276 18.8104L227.736 12.8164C227.279 11.7279 225.721 11.7279 225.264 12.8164L222.724 18.797L216.232 19.348C215.05 19.442 214.566 20.9204 215.466 21.6999L220.399 25.9736L218.92 32.3169C218.651 33.4727 219.901 34.3866 220.923 33.7684L226.5 30.4086Z" fill="white"/>
</svg>
