<svg viewBox="0 0 16 16" fill="none" xmlns="http://www.w3.org/2000/svg">
	<path
		d="M8.7225 7.35809C8.57589 7.35809 8.42929 7.29358 8.33546 7.18216L6.90456 5.5167C6.72277 5.29972 6.74623 4.97718 6.95734 4.79538C7.17432 4.61359 7.49686 4.63705 7.67865 4.84816L8.71664 6.06208L13.455 0.514429C13.6368 0.297449 13.9652 0.273992 14.1763 0.455786C14.3933 0.63758 14.4168 0.965982 14.235 1.1771L9.10955 7.18216C9.01572 7.29358 8.86911 7.35809 8.7225 7.35809Z"
		fill="currentColor"
	/>
	<path
		d="M14.2588 5.24708C13.9773 5.18257 13.7076 5.35264 13.6431 5.63413L12.8924 8.89469H4.98146L3.83205 4.88349C3.78514 4.73689 3.67371 4.61374 3.53297 4.55509L1.24002 3.6168C0.976126 3.51124 0.677045 3.63439 0.571487 3.89829C0.460065 4.16218 0.58908 4.46126 0.847111 4.56682L2.91135 5.41128L4.958 12.5247C5.02251 12.7475 5.22189 12.8942 5.4506 12.8942H12.6461C12.9276 12.8942 13.1622 12.6654 13.1622 12.3781C13.1622 12.0907 12.9335 11.862 12.6461 11.862H5.83765L5.28054 9.91508H13.2971C13.5375 9.91508 13.7428 9.75088 13.7955 9.51631L14.64 5.85697C14.7045 5.58135 14.5344 5.30573 14.2588 5.24708Z"
		fill="currentColor"
	/>
	<path
		d="M6.07777 15.1321C5.67313 15.1321 5.34473 14.8037 5.34473 14.3991C5.34473 13.9944 5.67313 13.666 6.07777 13.666C6.4824 13.666 6.81081 13.9944 6.81081 14.3991C6.81081 14.8037 6.4824 15.1321 6.07777 15.1321Z"
		fill="currentColor"
	/>
	<path
		d="M12.1823 15.1321C11.7776 15.1321 11.4492 14.8037 11.4492 14.3991C11.4492 13.9944 11.7776 13.666 12.1823 13.666C12.5869 13.666 12.9153 13.9944 12.9153 14.3991C12.9153 14.8037 12.5869 15.1321 12.1823 15.1321Z"
		fill="currentColor"
	/>
</svg>
