<svg width="300" height="300" viewBox="0 0 300 300" fill="none" xmlns="http://www.w3.org/2000/svg">
<rect width="300" height="300" rx="16" fill="#EBEBEB"/>
<path d="M0 16C0 7.16344 7.16344 0 16 0H284C292.837 0 300 7.16344 300 16V40H0V16Z" fill="#3D3D3D"/>
<ellipse cx="27.0673" cy="20" rx="7.06728" ry="7" fill="#FF4F59"/>
<ellipse cx="50.6254" cy="20" rx="7.06728" ry="7" fill="#FCFEFF"/>
<ellipse cx="74.183" cy="20" rx="7.06728" ry="7" fill="#FFF507"/>
<rect x="16" y="56" width="268" height="228" rx="10" fill="white"/>
<rect x="31.3" y="71.3" width="237.4" height="41.4" rx="5.7" stroke="black" stroke-opacity="0.24" stroke-width="0.6"/>
<path d="M52.917 89.2507V84.209L57.9587 89.2507M46.5003 82.834C45.4828 82.834 44.667 83.6498 44.667 84.6673V99.334C44.667 99.8202 44.8601 100.287 45.204 100.63C45.5478 100.974 46.0141 101.167 46.5003 101.167H57.5003C57.9866 101.167 58.4529 100.974 58.7967 100.63C59.1405 100.287 59.3337 99.8202 59.3337 99.334V88.334L53.8337 82.834H46.5003Z" fill="#7D7D7D"/>
<rect x="70" y="89" width="84" height="6" rx="3" fill="#7D7D7D"/>
<mask id="mask0_744_20385" style="mask-type:luminance" maskUnits="userSpaceOnUse" x="237" y="82" width="20" height="20">
<path d="M257 102H237V82H257V102Z" fill="white"/>
</mask>
<g mask="url(#mask0_744_20385)">
<path d="M241.001 86.1364H253.001V91.55H255.572V84.332C255.572 84.0927 255.482 83.8632 255.321 83.694C255.161 83.5248 254.942 83.4297 254.715 83.4297H239.287C239.059 83.4297 238.842 83.5248 238.681 83.694C238.52 83.8632 238.429 84.0927 238.429 84.332V91.55H241.001V86.1364ZM248.714 94.2567V88.8432H245.287V94.2567H241.621C241.393 94.2567 241.278 94.5484 241.44 94.7188L247.001 100.573L252.561 94.7188C252.723 94.5484 252.609 94.2567 252.38 94.2567H248.714Z" fill="#383838"/>
</g>
<rect x="31.3" y="123.3" width="237.4" height="41.4" rx="5.7" stroke="black" stroke-opacity="0.24" stroke-width="0.6"/>
<path d="M52.917 141.251V136.209L57.9587 141.251M46.5003 134.834C45.4828 134.834 44.667 135.65 44.667 136.667V151.334C44.667 151.82 44.8601 152.287 45.204 152.63C45.5478 152.974 46.0141 153.167 46.5003 153.167H57.5003C57.9866 153.167 58.4529 152.974 58.7967 152.63C59.1405 152.287 59.3337 151.82 59.3337 151.334V140.334L53.8337 134.834H46.5003Z" fill="#7D7D7D"/>
<rect x="70" y="141" width="84" height="6" rx="3" fill="#7D7D7D"/>
<mask id="mask1_744_20385" style="mask-type:luminance" maskUnits="userSpaceOnUse" x="237" y="134" width="20" height="20">
<path d="M257 154H237V134H257V154Z" fill="white"/>
</mask>
<g mask="url(#mask1_744_20385)">
<path d="M241.001 138.136H253.001V143.55H255.572V136.332C255.572 136.093 255.482 135.863 255.321 135.694C255.161 135.525 254.942 135.43 254.715 135.43H239.287C239.059 135.43 238.842 135.525 238.681 135.694C238.52 135.863 238.429 136.093 238.429 136.332V143.55H241.001V138.136ZM248.714 146.257V140.843H245.287V146.257H241.621C241.393 146.257 241.278 146.548 241.44 146.719L247.001 152.573L252.561 146.719C252.723 146.548 252.609 146.257 252.38 146.257H248.714Z" fill="#383838"/>
</g>
<rect x="31.3" y="175.3" width="237.4" height="41.4" rx="5.7" stroke="black" stroke-opacity="0.24" stroke-width="0.6"/>
<path d="M52.917 193.251V188.209L57.9587 193.251M46.5003 186.834C45.4828 186.834 44.667 187.65 44.667 188.667V203.334C44.667 203.82 44.8601 204.287 45.204 204.63C45.5478 204.974 46.0141 205.167 46.5003 205.167H57.5003C57.9866 205.167 58.4529 204.974 58.7967 204.63C59.1405 204.287 59.3337 203.82 59.3337 203.334V192.334L53.8337 186.834H46.5003Z" fill="#7D7D7D"/>
<rect x="70" y="193" width="84" height="6" rx="3" fill="#7D7D7D"/>
<mask id="mask2_744_20385" style="mask-type:luminance" maskUnits="userSpaceOnUse" x="237" y="186" width="20" height="20">
<path d="M257 206H237V186H257V206Z" fill="white"/>
</mask>
<g mask="url(#mask2_744_20385)">
<path d="M241.001 190.136H253.001V195.55H255.572V188.332C255.572 188.093 255.482 187.863 255.321 187.694C255.161 187.525 254.942 187.43 254.715 187.43H239.287C239.059 187.43 238.842 187.525 238.681 187.694C238.52 187.863 238.429 188.093 238.429 188.332V195.55H241.001V190.136ZM248.714 198.257V192.843H245.287V198.257H241.621C241.393 198.257 241.278 198.548 241.44 198.719L247.001 204.573L252.561 198.719C252.723 198.548 252.609 198.257 252.38 198.257H248.714Z" fill="#383838"/>
</g>
<rect x="31.3" y="227.3" width="237.4" height="41.4" rx="5.7" stroke="black" stroke-opacity="0.24" stroke-width="0.6"/>
<path d="M52.917 245.251V240.209L57.9587 245.251M46.5003 238.834C45.4828 238.834 44.667 239.65 44.667 240.667V255.334C44.667 255.82 44.8601 256.287 45.204 256.63C45.5478 256.974 46.0141 257.167 46.5003 257.167H57.5003C57.9866 257.167 58.4529 256.974 58.7967 256.63C59.1405 256.287 59.3337 255.82 59.3337 255.334V244.334L53.8337 238.834H46.5003Z" fill="#7D7D7D"/>
<rect x="70" y="245" width="84" height="6" rx="3" fill="#7D7D7D"/>
<mask id="mask3_744_20385" style="mask-type:luminance" maskUnits="userSpaceOnUse" x="237" y="238" width="20" height="20">
<path d="M257 258H237V238H257V258Z" fill="white"/>
</mask>
<g mask="url(#mask3_744_20385)">
<path d="M241.001 242.136H253.001V247.55H255.572V240.332C255.572 240.093 255.482 239.863 255.321 239.694C255.161 239.525 254.942 239.43 254.715 239.43H239.287C239.059 239.43 238.842 239.525 238.681 239.694C238.52 239.863 238.429 240.093 238.429 240.332V247.55H241.001V242.136ZM248.714 250.257V244.843H245.287V250.257H241.621C241.393 250.257 241.278 250.548 241.44 250.719L247.001 256.573L252.561 250.719C252.723 250.548 252.609 250.257 252.38 250.257H248.714Z" fill="#383838"/>
</g>
</svg>
