<svg width="31" height="30" viewBox="0 0 31 30" fill="none" xmlns="http://www.w3.org/2000/svg">
<path d="M22.414 0C22.6562 0.0546875 22.8906 0.101562 23.1328 0.15625C26.0781 0.820312 28.2187 3.14844 28.6094 6.14062C29.0937 9.82031 26.3984 13.3672 22.7187 13.8906C21.7969 14.0234 20.8906 13.9922 19.9922 13.7656C19.8047 13.7188 19.7187 13.7656 19.6094 13.9141C18.789 15.0469 17.9687 16.1719 17.1406 17.2891C16.8984 17.6172 16.789 17.9688 16.789 18.375C16.7969 20.7109 16.7812 23.0391 16.7969 25.375C16.8047 26.1797 16.5 26.7969 15.8515 27.2812C14.8359 28.0313 13.8437 28.8047 12.8359 29.5469C12.5937 29.7266 12.3047 29.8516 12.039 30C11.8437 30 11.6484 30 11.4531 30C11.4219 29.9766 11.3984 29.9453 11.3672 29.9375C10.7031 29.6797 10.4062 29.1875 10.4062 28.4844C10.414 26.2656 10.4062 24.0547 10.4062 21.8359C10.4062 20.6875 10.3984 19.5312 10.414 18.3828C10.4219 17.9531 10.289 17.5938 10.039 17.2422C7.58592 13.8984 5.1328 10.5469 2.67967 7.19531C2.27342 6.64062 2.22655 6.09375 2.55467 5.59375C2.84373 5.15625 3.27342 4.99219 3.78123 4.99219C5.74998 4.99219 7.72655 4.99219 9.6953 4.99219C11.4297 4.99219 13.1719 4.99219 14.9219 4.99219C14.9453 4.94531 14.9765 4.89844 14.9922 4.84375C15.9687 2.16406 17.8594 0.578125 20.6562 0.0703125C20.7187 0.0625 20.7734 0.0234375 20.8281 0C21.3594 0 21.8906 0 22.414 0ZM4.56248 6.76562C4.6328 6.875 4.67967 6.95312 4.73436 7.02344C6.96873 10.0781 9.20311 13.1328 11.4531 16.1797C11.9453 16.8516 12.1875 17.5781 12.1875 18.4062C12.1719 21.4297 12.1797 24.4609 12.1797 27.4844C12.1797 27.5859 12.1797 27.6875 12.1797 27.8359C12.2969 27.75 12.375 27.7031 12.4531 27.6406C13.2109 27.0703 13.9531 26.4922 14.7265 25.9375C14.9687 25.7656 15.0469 25.5703 15.0469 25.2812C15.039 22.9609 15.0469 20.6328 15.039 18.3125C15.039 17.5547 15.25 16.875 15.7109 16.2656C15.9922 15.8984 16.2578 15.5312 16.5234 15.1562C17.0469 14.4453 17.5703 13.7266 18.1015 13C15.8281 11.5234 14.6719 9.45312 14.6562 6.75781C11.289 6.76562 7.9453 6.76562 4.56248 6.76562ZM26.9062 6.98438C26.9062 4.10938 24.5547 1.75781 21.6719 1.75781C18.7812 1.75781 16.4375 4.08594 16.4297 6.96875C16.4219 9.85938 18.75 12.1953 21.6406 12.2109C24.5312 12.2266 26.9062 9.875 26.9062 6.98438Z" fill="#2FB44B"/>
<path d="M22.9297 7.0156C23.2422 7.32028 23.5625 7.63278 23.8828 7.9531C24.289 8.35935 24.3203 8.89059 23.9609 9.25778C23.6015 9.63278 23.0547 9.60934 22.6406 9.19528C22.3203 8.88278 22.0156 8.55466 21.6718 8.20309C21.3359 8.54684 21.0234 8.86716 20.7109 9.17966C20.289 9.60153 19.7578 9.63278 19.3906 9.26559C19.0234 8.89841 19.0547 8.35934 19.4687 7.94528C19.7812 7.63278 20.1093 7.32028 20.4453 6.98435C20.1093 6.64841 19.7812 6.34372 19.4687 6.02341C19.0547 5.60934 19.0234 5.07028 19.3906 4.7031C19.7578 4.33591 20.2968 4.36716 20.7109 4.78122C21.0312 5.10153 21.3359 5.42185 21.664 5.7656C22.0156 5.41403 22.3359 5.08591 22.6562 4.76559C23.0625 4.36716 23.5937 4.34372 23.9531 4.7031C24.3125 5.06247 24.289 5.60153 23.8906 6.00778C23.5859 6.32028 23.2734 6.63278 22.9609 6.94528C22.9453 6.95309 22.9453 6.97653 22.9297 7.0156Z" fill="#82D293"/>
</svg>
