<svg width="31" height="30" viewBox="0 0 31 30" fill="none" xmlns="http://www.w3.org/2000/svg">
<path d="M29.2563 14.6812C28.1855 11.8789 26.3181 9.45106 23.8845 7.69688L28.3751 3.19688L27.0532 1.875L2.12509 26.8031L3.44696 28.125L8.22821 23.3531C10.3627 24.5962 12.7804 25.2708 15.2501 25.3125C18.3059 25.1976 21.261 24.1898 23.7502 22.4137C26.2394 20.6375 28.1537 18.171 29.2563 15.3188C29.3308 15.1128 29.3308 14.8872 29.2563 14.6812ZM15.2501 21.0938C13.9578 21.0932 12.6997 20.6792 11.6595 19.9125L13.3751 18.2156C14.0865 18.6054 14.905 18.754 15.708 18.6391C16.511 18.5243 17.2551 18.1521 17.8287 17.5786C18.4022 17.005 18.7744 16.2609 18.8892 15.4579C19.0041 14.6549 18.8555 13.8364 18.4657 13.125L20.1626 11.4281C20.823 12.3352 21.2198 13.4073 21.309 14.5259C21.3981 15.6444 21.1762 16.7658 20.6679 17.7661C20.1595 18.7664 19.3843 19.6066 18.4282 20.1939C17.4721 20.7812 16.3722 21.0926 15.2501 21.0938ZM4.49696 20.4469L9.18446 15.7594C9.16043 15.507 9.15104 15.2535 9.15634 15C9.15882 13.3846 9.80163 11.8361 10.9439 10.6938C12.0862 9.55154 13.6347 8.90873 15.2501 8.90625C15.4977 8.90789 15.7449 8.92354 15.9907 8.95313L19.5345 5.41875C18.1552 4.9452 16.7083 4.69825 15.2501 4.6875C12.1943 4.80241 9.2392 5.81021 6.74997 7.58633C4.26073 9.36245 2.34649 11.829 1.24384 14.6812C1.16937 14.8872 1.16937 15.1128 1.24384 15.3188C1.96483 17.2332 3.07218 18.9788 4.49696 20.4469Z" fill="#2FB44B"/>
</svg>
