<svg width="26" height="27" viewBox="0 0 26 27" fill="none" xmlns="http://www.w3.org/2000/svg">
<path d="M6.5 1H2.8125C1.70793 1 0.8125 1.89543 0.8125 3V23.375C0.8125 24.4796 1.70793 25.375 2.8125 25.375H23.1875C24.2921 25.375 25.1875 24.4796 25.1875 23.375V3C25.1875 1.89543 24.2894 1 23.1848 1C17.9312 1 15.8524 1 9.75 1" stroke="#2FB44B" stroke-width="1.6" stroke-linecap="round"/>
<path d="M16.1453 8.27461C16.5871 8.27461 16.9453 7.91644 16.9453 7.47461C16.9453 7.03278 16.5871 6.67461 16.1453 6.67461V8.27461ZM1.20581 8.27461H16.1453V6.67461H1.20581V8.27461Z" fill="#2FB44B"/>
<path d="M19.2904 6.67461C18.8486 6.67461 18.4904 7.03278 18.4904 7.47461C18.4904 7.91644 18.8486 8.27461 19.2904 8.27461V6.67461ZM19.2904 8.27461H25.1876V6.67461H19.2904V8.27461Z" fill="#2FB44B"/>
<path d="M5.13001 4.42773C5.13001 4.82597 4.79311 5.17031 4.35058 5.17031C3.90804 5.17031 3.57114 4.82597 3.57114 4.42773C3.57114 4.0295 3.90804 3.68516 4.35058 3.68516C4.79311 3.68516 5.13001 4.0295 5.13001 4.42773Z" stroke="#2FB44B" stroke-width="0.8"/>
<path d="M8.27516 4.42773C8.27516 4.82597 7.93826 5.17031 7.49572 5.17031C7.05318 5.17031 6.71628 4.82597 6.71628 4.42773C6.71628 4.0295 7.05318 3.68516 7.49572 3.68516C7.93826 3.68516 8.27516 4.0295 8.27516 4.42773Z" stroke="#2FB44B" stroke-width="0.8"/>
<path d="M11.4203 4.42773C11.4203 4.82597 11.0834 5.17031 10.6409 5.17031C10.1983 5.17031 9.86143 4.82597 9.86143 4.42773C9.86143 4.0295 10.1983 3.68516 10.6409 3.68516C11.0834 3.68516 11.4203 4.0295 11.4203 4.42773Z" stroke="#2FB44B" stroke-width="0.8"/>
<rect x="3.67114" y="10.6406" width="4.50403" height="4.33203" rx="0.5" stroke="#2FB44B"/>
<rect x="3.67114" y="17.4961" width="4.50403" height="4.33203" rx="0.5" stroke="#2FB44B"/>
<rect x="10.748" y="10.6406" width="4.50403" height="4.33203" rx="0.5" stroke="#2FB44B"/>
<rect x="17.8248" y="10.6406" width="4.50403" height="4.33203" rx="0.5" stroke="#2FB44B"/>
<rect x="17.8248" y="17.4961" width="4.50403" height="4.33203" rx="0.5" stroke="#2FB44B"/>
<path d="M11.0345 19.2812V18.1578C11.0345 17.9369 11.2136 17.7578 11.4345 17.7578H14.9591C15.1801 17.7578 15.3591 17.9369 15.3591 18.1578V21.5473C15.3591 21.7682 15.1801 21.9473 14.9591 21.9473H11.4345C11.2136 21.9473 11.0345 21.7682 11.0345 21.5473V20.8047" stroke="#2FB44B" stroke-linecap="round"/>
</svg>
