<svg width="36" height="36" viewBox="0 0 36 36" fill="none" xmlns="http://www.w3.org/2000/svg">
<circle cx="18" cy="18" r="18" fill="#E0FBFF"/>
<g clip-path="url(#clip0_922_19688)">
<path d="M17.2968 9C17.7562 9 18.2108 9 18.6702 9C18.689 9.00938 18.703 9.02812 18.7218 9.03281C19.0077 9.07031 19.289 9.10312 19.5749 9.14062C19.8468 9.17813 19.9312 9.28125 19.9358 9.5625C19.9358 9.88594 19.9358 10.2047 19.9358 10.4813C20.6343 10.7531 21.3046 11.0109 21.9983 11.2828C22.1858 11.0953 22.4062 10.875 22.6265 10.6547C22.8093 10.4719 22.9358 10.4625 23.1515 10.6125C24.028 11.2266 24.7733 11.9672 25.3874 12.8484C25.5468 13.0781 25.5374 13.1953 25.3358 13.4016C25.1108 13.6266 24.8812 13.8516 24.689 14.0344C24.9749 14.7328 25.2468 15.3891 25.528 16.0688C25.7296 16.0688 25.9733 16.0688 26.2171 16.0688C26.8077 16.0688 26.8218 16.0828 26.9062 16.6734C26.9343 16.8703 26.9718 17.0672 27.0046 17.2641C27.0046 17.7469 27.0046 18.225 27.0046 18.7078C26.9952 18.7266 26.9718 18.7406 26.9718 18.7594C26.9343 19.0266 26.9015 19.2938 26.864 19.5609C26.8218 19.8469 26.7187 19.9359 26.4374 19.9359C26.114 19.9359 25.7952 19.9359 25.5327 19.9359C25.2421 20.625 24.9702 21.2812 24.6796 21.9609C24.8905 22.1672 25.1343 22.4016 25.3733 22.6453C25.528 22.8 25.5374 22.9359 25.4108 23.1141C24.7874 24.0141 24.028 24.7781 23.128 25.4016C22.9312 25.5375 22.8046 25.5281 22.6312 25.3547C22.3968 25.1203 22.1624 24.8812 21.9655 24.675C21.2718 24.9609 20.6155 25.2375 19.9358 25.5187C19.9358 25.8094 19.9358 26.1375 19.9358 26.4656C19.9358 26.6906 19.8468 26.8031 19.6265 26.8453C19.439 26.8781 19.2468 26.9016 19.0546 26.9297C18.914 26.9531 18.778 26.9766 18.6374 27C18.1921 27 17.7468 27 17.3015 27C17.2827 26.9906 17.2687 26.9672 17.2499 26.9672C16.9827 26.9297 16.7155 26.8969 16.4483 26.8594C16.1624 26.8219 16.0733 26.7141 16.0733 26.4328C16.0733 26.1094 16.0733 25.7906 16.0733 25.5234C15.3843 25.2375 14.7327 24.9609 14.0437 24.675C13.8468 24.8766 13.6218 25.1109 13.3921 25.3453C13.2046 25.5328 13.078 25.5422 12.8671 25.3922C11.9858 24.7734 11.2358 24.0234 10.6218 23.1422C10.4718 22.9313 10.4812 22.8047 10.6687 22.6172C10.8983 22.3875 11.1374 22.1578 11.3343 21.9609C11.0483 21.2719 10.7765 20.6156 10.4905 19.9312C10.2093 19.9312 9.87646 19.9312 9.54365 19.9312C9.31396 19.9312 9.19678 19.8328 9.15928 19.6078C9.14053 19.5094 9.13115 19.4109 9.1124 19.3125C9.07959 19.1109 9.04209 18.9047 9.00928 18.7031C9.00928 18.2437 9.00928 17.7891 9.00928 17.3297C9.01865 17.3109 9.0374 17.2969 9.04209 17.2781C9.07959 17.0016 9.1124 16.7203 9.1499 16.4438C9.1874 16.1578 9.29521 16.0688 9.57646 16.0688C9.8999 16.0688 10.2187 16.0688 10.4905 16.0688C10.7765 15.3797 11.0483 14.7234 11.3296 14.0484C11.128 13.8469 10.8983 13.6172 10.6733 13.3875C10.4858 13.2 10.4765 13.0734 10.6218 12.8625C11.2405 11.9813 11.9858 11.2313 12.8671 10.6125C13.078 10.4625 13.2093 10.4719 13.3921 10.6547C13.6218 10.8891 13.8515 11.1234 14.0437 11.3203C14.7374 11.0297 15.3983 10.7578 16.078 10.4766C16.078 10.35 16.078 10.1859 16.078 10.0219C16.078 9.85312 16.078 9.68437 16.078 9.51094C16.0827 9.30469 16.1671 9.19687 16.3687 9.15469C16.5655 9.11719 16.7624 9.09375 16.9593 9.06094C17.0671 9.04687 17.1796 9.02344 17.2968 9ZM12.8577 17.9953C12.853 20.8406 15.1452 23.1375 17.9952 23.1422C20.8358 23.1469 23.1233 20.8641 23.1374 18.0187C23.1515 15.1734 20.8593 12.8719 18.0093 12.8625C15.164 12.8531 12.8671 15.1406 12.8577 17.9953Z" fill="#26CEE6"/>
<path d="M20.4795 15.9657C19.9592 16.486 19.4482 16.997 18.9467 17.5126C18.9092 17.5501 18.8998 17.6485 18.9186 17.7048C19.0732 18.2251 18.792 18.7595 18.2764 18.9188C17.7654 19.0782 17.2311 18.7829 17.0764 18.2579C16.9264 17.7517 17.217 17.2079 17.7373 17.0813C17.9201 17.0345 18.1264 17.086 18.3232 17.0907C18.3795 17.0907 18.4498 17.0907 18.4873 17.0532C19.0029 16.5517 19.5139 16.0407 20.0295 15.5251C20.0061 15.497 19.992 15.4735 19.9686 15.4548C19.0029 14.747 17.9482 14.5782 16.8326 15.0095C15.7217 15.4407 15.0467 16.2704 14.8404 17.4423C14.6529 18.5017 14.9482 19.4345 15.6842 20.222C15.8529 20.4048 15.867 20.5923 15.717 20.7282C15.5764 20.8595 15.3842 20.8407 15.2248 20.6673C14.1982 19.5376 13.8701 18.2298 14.3529 16.7813C14.8311 15.3423 15.867 14.4704 17.3623 14.1985C18.5248 13.9829 19.5607 14.3017 20.4936 15.0423C20.6717 14.8735 20.8686 14.6157 21.1264 14.8923C21.3654 15.1501 21.117 15.3329 20.9529 15.5063C21.5717 16.261 21.8857 17.1142 21.8623 18.0751C21.8389 19.0735 21.4732 19.9407 20.7842 20.672C20.6154 20.8501 20.4045 20.8642 20.2639 20.7095C20.142 20.5735 20.1561 20.4001 20.3107 20.2407C20.7373 19.7954 21.0232 19.2751 21.1451 18.6657C21.3373 17.7001 21.1404 16.8188 20.5451 16.0313C20.5311 16.0173 20.5123 15.9985 20.4795 15.9657ZM17.9951 17.6813C17.8123 17.6813 17.6764 17.822 17.6811 18.0048C17.6857 18.1876 17.8264 18.3188 18.0092 18.3142C18.1826 18.3095 18.3139 18.1735 18.3139 17.9954C18.3186 17.8173 18.1779 17.6813 17.9951 17.6813Z" fill="#26CEE6"/>
</g>
<defs>
<clipPath id="clip0_922_19688">
<rect width="18" height="18" fill="white" transform="translate(9 9)"/>
</clipPath>
</defs>
</svg>
