<svg width="36" height="36" viewBox="0 0 36 36" fill="none" xmlns="http://www.w3.org/2000/svg">
<circle cx="18" cy="18" r="18" fill="#FFF8EA"/>
<path d="M17.9917 25.6584C16.4617 25.6584 14.9276 25.6584 13.3976 25.6584C12.6973 25.6584 12.1762 25.2123 12.0761 24.5161C12.0302 24.2076 12.1261 23.9325 12.2762 23.6699C13.3559 21.8022 14.4315 19.9346 15.5112 18.0669C15.9656 17.279 16.42 16.4911 16.8744 15.7032C17.2246 15.1029 17.9125 14.8778 18.5295 15.1488C18.8088 15.2738 19.0005 15.4823 19.1506 15.7407C20.2762 17.6959 21.406 19.6469 22.5316 21.6021C22.9401 22.315 23.357 23.0195 23.7614 23.7366C24.1741 24.4703 23.803 25.3791 23.0026 25.6C22.8692 25.6376 22.7275 25.6501 22.5857 25.6501C21.0558 25.6584 19.5216 25.6584 17.9917 25.6584ZM13.3017 24.3952C16.4492 24.3952 19.555 24.3952 22.6983 24.3952C21.1308 21.6772 19.5717 18.9841 18 16.2577C16.4284 18.9841 14.8734 21.6772 13.3017 24.3952Z" fill="url(#paint0_linear_4862_11654)"/>
<path d="M13.6602 17.7083C12.568 17.7083 11.4966 17.7083 10.4127 17.7083C10.4919 15.7865 11.1798 14.1315 12.4721 12.7266C13.2434 13.4978 14.0063 14.2565 14.7733 15.0236C14.098 15.7865 13.7228 16.6786 13.6602 17.7083Z" fill="url(#paint1_linear_4862_11654)"/>
<path d="M18.2251 10.3379C20.1469 10.4171 21.802 11.105 23.2027 12.3973C22.4315 13.1685 21.6727 13.9273 20.9057 14.6943C20.1469 14.0273 19.2548 13.6521 18.2251 13.5896C18.2251 12.5099 18.2251 11.4343 18.2251 10.3379Z" fill="url(#paint2_linear_4862_11654)"/>
<path d="M15.0944 14.6985C14.3231 13.9314 13.5644 13.1727 12.7932 12.4015C14.1981 11.1091 15.8531 10.4213 17.7707 10.3379C17.7707 11.4176 17.7707 12.4932 17.7707 13.5896C16.7619 13.6521 15.8656 14.019 15.0944 14.6985Z" fill="url(#paint3_linear_4862_11654)"/>
<path d="M25.5873 17.7083C24.5034 17.7083 23.432 17.7083 22.3523 17.7083C22.3231 17.4998 22.2981 17.2872 22.2689 17.0662C22.5774 16.937 22.8901 16.8161 23.1986 16.6785C23.5946 16.5035 23.7906 16.0824 23.678 15.6864C23.5404 15.2111 23.0402 14.961 22.5732 15.1402C22.2606 15.2611 21.9479 15.3945 21.6353 15.5238C21.5019 15.3529 21.3726 15.1861 21.2476 15.0277C22.0105 14.2648 22.7692 13.5061 23.5321 12.7432C24.6952 13.9021 25.5456 15.7864 25.5873 17.7083Z" fill="url(#paint4_linear_4862_11654)"/>
<path d="M22.3398 18.1582C23.4279 18.1582 24.5034 18.1582 25.579 18.1582C25.5623 19.7507 24.912 21.5767 23.7614 22.8565C23.678 22.7106 23.5946 22.5688 23.5112 22.4271C23.0151 21.5683 22.519 20.7095 22.023 19.8508C21.9729 19.7632 21.9688 19.6965 22.0063 19.6048C22.2064 19.1504 22.3064 18.6668 22.3398 18.1582Z" fill="url(#paint5_linear_4862_11654)"/>
<path d="M13.6602 18.1624C13.6978 18.6835 13.8062 19.1879 14.0188 19.6673C14.0354 19.7007 14.0229 19.759 14.0063 19.7966C13.4226 20.8138 12.8348 21.8309 12.247 22.8481C11.3215 21.8685 10.4669 20.1092 10.4127 18.1582C11.4924 18.1624 12.5722 18.1624 13.6602 18.1624Z" fill="url(#paint6_linear_4862_11654)"/>
<path d="M20.543 17.2832C20.4179 17.0706 20.2928 16.8497 20.1553 16.6162C20.4596 16.4912 20.7514 16.3703 21.0474 16.2452C21.5977 16.0159 22.148 15.7825 22.7024 15.5615C23.0151 15.4364 23.3194 15.6616 23.2486 15.9784C23.2235 16.0868 23.1318 16.2202 23.0401 16.2619C22.2272 16.6162 21.4059 16.9497 20.5847 17.2874C20.5763 17.2874 20.5638 17.2832 20.543 17.2832Z" fill="url(#paint7_linear_4862_11654)"/>
<path d="M17.4372 19.0843C17.4372 19.0634 17.4372 19.0426 17.4331 19.0217C17.4081 18.559 17.5123 18.4673 17.9792 18.4464C18.4586 18.4298 18.6087 18.5965 18.5712 19.0593C18.4961 19.9889 18.4544 20.9186 18.4002 21.8482C18.3836 22.1275 18.271 22.2317 17.9959 22.2276C17.7291 22.2276 17.6165 22.1234 17.5998 21.8565C17.5456 20.9311 17.4914 20.0098 17.4372 19.0843Z" fill="url(#paint8_linear_4862_11654)"/>
<path d="M18 23.7821C17.704 23.7821 17.4664 23.5445 17.4664 23.2443C17.4664 22.9442 17.6998 22.7107 18 22.7149C18.3001 22.7149 18.5336 22.9484 18.5336 23.2485C18.5336 23.5487 18.296 23.7863 18 23.7821Z" fill="url(#paint9_linear_4862_11654)"/>
<defs>
<linearGradient id="paint0_linear_4862_11654" x1="14.6605" y1="24.6637" x2="20.7509" y2="15.713" gradientUnits="userSpaceOnUse">
<stop stop-color="#FEC73A"/>
<stop offset="1" stop-color="#FFA825"/>
</linearGradient>
<linearGradient id="paint1_linear_4862_11654" x1="11.3666" y1="17.2419" x2="14.4067" y2="13.741" gradientUnits="userSpaceOnUse">
<stop stop-color="#FEC73A"/>
<stop offset="1" stop-color="#FFA825"/>
</linearGradient>
<linearGradient id="paint2_linear_4862_11654" x1="19.3139" y1="14.2864" x2="21.7904" y2="10.5639" gradientUnits="userSpaceOnUse">
<stop stop-color="#FEC73A"/>
<stop offset="1" stop-color="#FFA825"/>
</linearGradient>
<linearGradient id="paint3_linear_4862_11654" x1="13.882" y1="14.2902" x2="16.3617" y2="10.5663" gradientUnits="userSpaceOnUse">
<stop stop-color="#FEC73A"/>
<stop offset="1" stop-color="#FFA825"/>
</linearGradient>
<linearGradient id="paint4_linear_4862_11654" x1="22.1969" y1="17.2434" x2="25.2274" y2="13.7585" gradientUnits="userSpaceOnUse">
<stop stop-color="#FEC73A"/>
<stop offset="1" stop-color="#FFA825"/>
</linearGradient>
<linearGradient id="paint5_linear_4862_11654" x1="22.7683" y1="22.4166" x2="25.6639" y2="19.4995" gradientUnits="userSpaceOnUse">
<stop stop-color="#FEC73A"/>
<stop offset="1" stop-color="#FFA825"/>
</linearGradient>
<linearGradient id="paint6_linear_4862_11654" x1="11.2033" y1="22.409" x2="14.0936" y2="19.4789" gradientUnits="userSpaceOnUse">
<stop stop-color="#FEC73A"/>
<stop offset="1" stop-color="#FFA825"/>
</linearGradient>
<linearGradient id="paint7_linear_4862_11654" x1="20.8342" y1="17.1225" x2="21.6236" y2="15.2922" gradientUnits="userSpaceOnUse">
<stop stop-color="#FEC73A"/>
<stop offset="1" stop-color="#FFA825"/>
</linearGradient>
<linearGradient id="paint8_linear_4862_11654" x1="17.6805" y1="21.8735" x2="19.2853" y2="21.2333" gradientUnits="userSpaceOnUse">
<stop stop-color="#FEC73A"/>
<stop offset="1" stop-color="#FFA825"/>
</linearGradient>
<linearGradient id="paint9_linear_4862_11654" x1="17.6998" y1="23.6822" x2="18.3337" y2="22.8484" gradientUnits="userSpaceOnUse">
<stop stop-color="#FEC73A"/>
<stop offset="1" stop-color="#FFA825"/>
</linearGradient>
</defs>
</svg>
