<svg width="106" height="106" viewBox="0 0 106 106" fill="none" xmlns="http://www.w3.org/2000/svg">
<g id="icon">
<path id="Union" fill-rule="evenodd" clip-rule="evenodd" d="M49.5229 48.3191C47.4492 48.0288 45.2847 47.9559 43.0343 48.1119C32.9198 48.8006 24.2888 53.1995 19.209 62.3972C16.2421 67.7292 18.3325 70.9507 24.4011 71.0617C28.8832 71.121 33.3652 71.1012 37.8405 71.0815C39.2436 71.0753 40.646 71.0691 42.0475 71.0653C42.3638 72.7592 42.8559 74.4196 43.5185 76.0193C44.7686 79.0372 46.6009 81.7794 48.9107 84.0893C51.2206 86.3991 53.9628 88.2314 56.9808 89.4815C59.9987 90.7316 63.2334 91.375 66.5 91.375C69.7666 91.375 73.0013 90.7316 76.0192 89.4815C79.0372 88.2314 81.7794 86.3991 84.0893 84.0893C86.3991 81.7794 88.2314 79.0372 89.4815 76.0193C90.7316 73.0013 91.375 69.7666 91.375 66.5C91.375 59.9027 88.7542 53.5757 84.0893 48.9107C79.4243 44.2458 73.0973 41.625 66.5 41.625C60.187 41.625 54.1215 44.0248 49.5229 48.3191ZM44.8549 44.3573C52.0474 44.3573 58.0712 38.5143 58.2285 31.3827C58.3858 24.0957 52.2048 17.875 44.8324 17.875C37.4601 17.875 31.279 24.1401 31.4363 31.4272C31.6161 38.5365 37.6624 44.3795 44.8549 44.3573ZM51.7391 51.7391C55.654 47.8243 60.9636 45.625 66.5 45.625C72.0364 45.625 77.346 47.8243 81.2609 51.7391C85.1757 55.654 87.375 60.9636 87.375 66.5C87.375 69.2413 86.8351 71.9558 85.786 74.4885C84.7369 77.0212 83.1993 79.3224 81.2609 81.2609C79.3224 83.1993 77.0212 84.7369 74.4885 85.786C71.9558 86.8351 69.2413 87.375 66.5 87.375C63.7587 87.375 61.0442 86.8351 58.5115 85.786C55.9788 84.7369 53.6776 83.1993 51.7391 81.2609C49.8007 79.3224 48.2631 77.0212 47.214 74.4885C46.1649 71.9558 45.625 69.2413 45.625 66.5C45.625 60.9636 47.8243 55.654 51.7391 51.7391ZM68.5 56.3333C68.5 55.2288 67.6046 54.3333 66.5 54.3333C65.3954 54.3333 64.5 55.2288 64.5 56.3333V66.5C64.5 67.0304 64.7107 67.5391 65.0858 67.9142L72.7108 75.5392C73.4918 76.3203 74.7582 76.3203 75.5392 75.5392C76.3203 74.7582 76.3203 73.4918 75.5392 72.7108L68.5 65.6716V56.3333Z" fill="#C3C4C7"/>
</g>
</svg>
