<svg width="24" height="18" viewBox="0 0 24 18" fill="none" xmlns="http://www.w3.org/2000/svg">
<path d="M7.05347 17.977C6.18155 17.9191 5.09399 18.1121 4.02518 17.8902C2.0282 17.4752 0.41561 15.7381 0.0874673 13.6825C-0.259427 11.5305 0.424986 9.80303 2.15008 8.52916C2.35634 8.37475 2.37509 8.23964 2.32821 8.01768C1.74693 5.41204 3.8283 3.25998 6.37844 3.86796C6.67845 3.93552 6.74408 3.80041 6.85659 3.5881C8.16916 1.15617 10.8131 -0.281758 13.3819 0.0463599C16.4477 0.43238 18.7541 2.6906 19.2791 5.85597C19.326 6.11653 19.401 6.23234 19.6448 6.29989C23.6575 7.3518 25.3357 12.3411 22.795 15.6995C21.6418 17.2146 20.1417 18.0253 18.2291 17.9963C16.804 17.977 15.3883 17.9867 13.9632 17.9963C13.6538 17.9963 13.5788 17.9095 13.5788 17.6006C13.5976 16.0759 13.5976 14.5414 13.5788 13.0166C13.5788 12.7175 13.6538 12.621 13.9445 12.6403C14.3195 12.6692 14.6945 12.6499 15.0695 12.6499C15.3414 12.6499 15.5946 12.6306 15.7539 12.3508C15.9227 12.0516 15.7633 11.8296 15.6039 11.6077C14.582 10.1504 13.5695 8.69322 12.5381 7.23599C12.1631 6.70521 11.8069 6.70521 11.4318 7.23599C10.4005 8.70287 9.36922 10.1794 8.33792 11.6463C8.19728 11.8489 8.0754 12.0419 8.19728 12.3025C8.32854 12.5824 8.55355 12.6403 8.81607 12.6403C9.25672 12.6499 9.68799 12.6499 10.1286 12.6403C10.3349 12.6306 10.3912 12.7078 10.3912 12.9201C10.3818 14.5125 10.3818 16.1048 10.3912 17.6971C10.3912 17.9867 10.2599 17.9963 10.0536 17.9963C9.12546 17.977 8.18791 17.977 7.05347 17.977Z" fill="#7A7A7A"/>
</svg>
