<svg xmlns="http://www.w3.org/2000/svg" xmlns:xlink="http://www.w3.org/1999/xlink" width="512" zoomAndPan="magnify" viewBox="0 0 384 383.999986" height="512" preserveAspectRatio="xMidYMid meet" version="1.0"><defs><clipPath id="d1db387fb5"><path d="M 52.5 0 L 331.5 0 C 360.496094 0 384 23.503906 384 52.5 L 384 331.5 C 384 360.496094 360.496094 384 331.5 384 L 52.5 384 C 23.503906 384 0 360.496094 0 331.5 L 0 52.5 C 0 23.503906 23.503906 0 52.5 0 Z M 52.5 0 " clip-rule="nonzero"/></clipPath><clipPath id="f4fd70d0de"><path d="M 0 0 L 384 0 L 384 384 L 0 384 Z M 0 0 " clip-rule="nonzero"/></clipPath><clipPath id="cbaa9c96ca"><path d="M 52.5 0 L 331.5 0 C 360.496094 0 384 23.503906 384 52.5 L 384 331.5 C 384 360.496094 360.496094 384 331.5 384 L 52.5 384 C 23.503906 384 0 360.496094 0 331.5 L 0 52.5 C 0 23.503906 23.503906 0 52.5 0 Z M 52.5 0 " clip-rule="nonzero"/></clipPath><clipPath id="1571d196ec"><rect x="0" width="384" y="0" height="384"/></clipPath><clipPath id="1527bcf0cf"><path d="M 62.140625 88.6875 L 320.183594 88.6875 L 320.183594 147.5625 L 62.140625 147.5625 Z M 62.140625 88.6875 " clip-rule="nonzero"/></clipPath><clipPath id="24e96c40eb"><path d="M 91.578125 88.6875 L 290.589844 88.6875 C 306.851562 88.6875 320.03125 101.867188 320.03125 118.125 C 320.03125 134.382812 306.851562 147.5625 290.589844 147.5625 L 91.578125 147.5625 C 75.320312 147.5625 62.140625 134.382812 62.140625 118.125 C 62.140625 101.867188 75.320312 88.6875 91.578125 88.6875 Z M 91.578125 88.6875 " clip-rule="nonzero"/></clipPath><clipPath id="9f7a68b9f1"><path d="M 0.140625 0.6875 L 258 0.6875 L 258 59.5625 L 0.140625 59.5625 Z M 0.140625 0.6875 " clip-rule="nonzero"/></clipPath><clipPath id="5db4d002f7"><path d="M 29.578125 0.6875 L 228.589844 0.6875 C 244.851562 0.6875 258.03125 13.867188 258.03125 30.125 C 258.03125 46.382812 244.851562 59.5625 228.589844 59.5625 L 29.578125 59.5625 C 13.320312 59.5625 0.140625 46.382812 0.140625 30.125 C 0.140625 13.867188 13.320312 0.6875 29.578125 0.6875 Z M 29.578125 0.6875 " clip-rule="nonzero"/></clipPath><clipPath id="f279b8ede4"><rect x="0" width="259" y="0" height="60"/></clipPath><clipPath id="51d3a52392"><path d="M 63.96875 119.746094 L 321.859375 119.746094 L 321.859375 147.5625 L 63.96875 147.5625 Z M 63.96875 119.746094 " clip-rule="nonzero"/></clipPath><clipPath id="02c7a4758e"><path d="M 0.96875 0.746094 L 258.859375 0.746094 L 258.859375 28.5625 L 0.96875 28.5625 Z M 0.96875 0.746094 " clip-rule="nonzero"/></clipPath><clipPath id="dcbb80029e"><rect x="0" width="259" y="0" height="29"/></clipPath><clipPath id="5c81ab2619"><path d="M 63.550781 147.5625 L 321.851562 147.5625 L 321.851562 336.492188 L 63.550781 336.492188 Z M 63.550781 147.5625 " clip-rule="nonzero"/></clipPath><clipPath id="0e21373660"><path d="M 288.101562 336.492188 L 97.714844 336.492188 C 88.761719 336.492188 80.179688 332.9375 73.847656 326.609375 C 67.519531 320.277344 63.964844 311.695312 63.964844 302.742188 L 63.964844 181.3125 C 63.964844 172.363281 67.519531 163.777344 73.847656 157.449219 C 80.179688 151.117188 88.761719 147.5625 97.714844 147.5625 L 288.101562 147.5625 C 297.054688 147.5625 305.640625 151.117188 311.96875 157.449219 C 318.296875 163.777344 321.851562 172.363281 321.851562 181.3125 L 321.851562 302.742188 C 321.851562 311.695312 318.296875 320.277344 311.96875 326.609375 C 305.640625 332.9375 297.054688 336.492188 288.101562 336.492188 Z M 288.101562 336.492188 " clip-rule="nonzero"/></clipPath><clipPath id="c8e098e801"><path d="M 1 0.5625 L 258.851562 0.5625 L 258.851562 189.492188 L 1 189.492188 Z M 1 0.5625 " clip-rule="nonzero"/></clipPath><clipPath id="b8849a7016"><path d="M 225.101562 189.492188 L 34.714844 189.492188 C 25.761719 189.492188 17.179688 185.9375 10.847656 179.609375 C 4.519531 173.277344 0.964844 164.695312 0.964844 155.742188 L 0.964844 34.3125 C 0.964844 25.363281 4.519531 16.777344 10.847656 10.449219 C 17.179688 4.117188 25.761719 0.5625 34.714844 0.5625 L 225.101562 0.5625 C 234.054688 0.5625 242.640625 4.117188 248.96875 10.449219 C 255.296875 16.777344 258.851562 25.363281 258.851562 34.3125 L 258.851562 155.742188 C 258.851562 164.695312 255.296875 173.277344 248.96875 179.609375 C 242.640625 185.9375 234.054688 189.492188 225.101562 189.492188 Z M 225.101562 189.492188 " clip-rule="nonzero"/></clipPath><clipPath id="df25365deb"><rect x="0" width="259" y="0" height="190"/></clipPath><clipPath id="8684700e39"><path d="M 62.132812 147.5625 L 320.023438 147.5625 L 320.023438 236.824219 L 62.132812 236.824219 Z M 62.132812 147.5625 " clip-rule="nonzero"/></clipPath><clipPath id="7acb694a7d"><path d="M 0.132812 0.5625 L 258.023438 0.5625 L 258.023438 89.824219 L 0.132812 89.824219 Z M 0.132812 0.5625 " clip-rule="nonzero"/></clipPath><clipPath id="5b3fb83746"><rect x="0" width="259" y="0" height="90"/></clipPath><clipPath id="31882902bf"><path d="M 111.117188 39.898438 L 130.660156 39.898438 L 130.660156 122.273438 L 111.117188 122.273438 Z M 111.117188 39.898438 " clip-rule="nonzero"/></clipPath><clipPath id="130a8d3d78"><path d="M 120.890625 39.898438 C 123.480469 39.898438 125.964844 40.929688 127.800781 42.761719 C 129.632812 44.59375 130.660156 47.082031 130.660156 49.671875 L 130.660156 112.480469 C 130.660156 115.070312 129.632812 117.554688 127.800781 119.390625 C 125.964844 121.222656 123.480469 122.25 120.890625 122.25 C 118.296875 122.25 115.8125 121.222656 113.980469 119.390625 C 112.148438 117.554688 111.117188 115.070312 111.117188 112.480469 L 111.117188 49.671875 C 111.117188 47.082031 112.148438 44.59375 113.980469 42.761719 C 115.8125 40.929688 118.296875 39.898438 120.890625 39.898438 Z M 120.890625 39.898438 " clip-rule="nonzero"/></clipPath><clipPath id="5d28d653f0"><path d="M 0.117188 0.898438 L 19.660156 0.898438 L 19.660156 83.273438 L 0.117188 83.273438 Z M 0.117188 0.898438 " clip-rule="nonzero"/></clipPath><clipPath id="f9f71c96b3"><path d="M 9.890625 0.898438 C 12.480469 0.898438 14.964844 1.929688 16.800781 3.761719 C 18.632812 5.59375 19.660156 8.082031 19.660156 10.671875 L 19.660156 73.480469 C 19.660156 76.070312 18.632812 78.554688 16.800781 80.390625 C 14.964844 82.222656 12.480469 83.25 9.890625 83.25 C 7.296875 83.25 4.8125 82.222656 2.980469 80.390625 C 1.148438 78.554688 0.117188 76.070312 0.117188 73.480469 L 0.117188 10.671875 C 0.117188 8.082031 1.148438 5.59375 2.980469 3.761719 C 4.8125 1.929688 7.296875 0.898438 9.890625 0.898438 Z M 9.890625 0.898438 " clip-rule="nonzero"/></clipPath><clipPath id="c803ba42f4"><rect x="0" width="20" y="0" height="84"/></clipPath><clipPath id="d1ea2f5355"><path d="M 253.757812 39.898438 L 272.882812 39.898438 L 272.882812 122.308594 L 253.757812 122.308594 Z M 253.757812 39.898438 " clip-rule="nonzero"/></clipPath><clipPath id="8700ca99f9"><path d="M 263.320312 39.898438 C 268.601562 39.898438 272.882812 44.179688 272.882812 49.464844 L 272.882812 112.6875 C 272.882812 117.96875 268.601562 122.25 263.320312 122.25 C 258.039062 122.25 253.757812 117.96875 253.757812 112.6875 L 253.757812 49.464844 C 253.757812 44.179688 258.039062 39.898438 263.320312 39.898438 Z M 263.320312 39.898438 " clip-rule="nonzero"/></clipPath><clipPath id="a26bdfa443"><path d="M 0.757812 0.898438 L 19.882812 0.898438 L 19.882812 83.308594 L 0.757812 83.308594 Z M 0.757812 0.898438 " clip-rule="nonzero"/></clipPath><clipPath id="86799038df"><path d="M 10.320312 0.898438 C 15.601562 0.898438 19.882812 5.179688 19.882812 10.464844 L 19.882812 73.6875 C 19.882812 78.96875 15.601562 83.25 10.320312 83.25 C 5.039062 83.25 0.757812 78.96875 0.757812 73.6875 L 0.757812 10.464844 C 0.757812 5.179688 5.039062 0.898438 10.320312 0.898438 Z M 10.320312 0.898438 " clip-rule="nonzero"/></clipPath><clipPath id="15c670bedc"><rect x="0" width="20" y="0" height="84"/></clipPath><clipPath id="c7dca1e5d4"><path d="M 55.058594 79.027344 L 328.808594 79.027344 L 328.808594 343.777344 L 55.058594 343.777344 Z M 55.058594 79.027344 " clip-rule="nonzero"/></clipPath><clipPath id="ba8ddb5b0c"><path d="M 328.9375 131.527344 L 328.9375 290.949219 C 328.9375 319.945312 305.433594 343.449219 276.4375 343.449219 L 107.558594 343.449219 C 78.566406 343.449219 55.058594 319.945312 55.058594 290.949219 L 55.058594 131.527344 C 55.058594 102.53125 78.566406 79.027344 107.558594 79.027344 L 276.4375 79.027344 C 305.433594 79.027344 328.9375 102.53125 328.9375 131.527344 Z M 328.9375 131.527344 " clip-rule="nonzero"/></clipPath><clipPath id="4fdc06b418"><path d="M 241.085938 182.042969 L 289.453125 182.042969 L 289.453125 229.125 L 241.085938 229.125 Z M 241.085938 182.042969 " clip-rule="nonzero"/></clipPath><clipPath id="7cb1616c03"><path d="M 248.585938 182.042969 L 281.886719 182.042969 C 283.875 182.042969 285.78125 182.832031 287.1875 184.242188 C 288.59375 185.648438 289.386719 187.554688 289.386719 189.542969 L 289.386719 221.625 C 289.386719 223.613281 288.59375 225.523438 287.1875 226.929688 C 285.78125 228.335938 283.875 229.125 281.886719 229.125 L 248.585938 229.125 C 246.59375 229.125 244.6875 228.335938 243.28125 226.929688 C 241.875 225.523438 241.085938 223.613281 241.085938 221.625 L 241.085938 189.542969 C 241.085938 187.554688 241.875 185.648438 243.28125 184.242188 C 244.6875 182.832031 246.59375 182.042969 248.585938 182.042969 Z M 248.585938 182.042969 " clip-rule="nonzero"/></clipPath><clipPath id="812daeac0e"><path d="M 0.0859375 0.0429688 L 48.441406 0.0429688 L 48.441406 47.125 L 0.0859375 47.125 Z M 0.0859375 0.0429688 " clip-rule="nonzero"/></clipPath><clipPath id="a3dc72d5b1"><path d="M 7.585938 0.0429688 L 40.886719 0.0429688 C 42.875 0.0429688 44.78125 0.832031 46.1875 2.242188 C 47.59375 3.648438 48.386719 5.554688 48.386719 7.542969 L 48.386719 39.625 C 48.386719 41.613281 47.59375 43.523438 46.1875 44.929688 C 44.78125 46.335938 42.875 47.125 40.886719 47.125 L 7.585938 47.125 C 5.59375 47.125 3.6875 46.335938 2.28125 44.929688 C 0.875 43.523438 0.0859375 41.613281 0.0859375 39.625 L 0.0859375 7.542969 C 0.0859375 5.554688 0.875 3.648438 2.28125 2.242188 C 3.6875 0.832031 5.59375 0.0429688 7.585938 0.0429688 Z M 7.585938 0.0429688 " clip-rule="nonzero"/></clipPath><clipPath id="dad833dff8"><rect x="0" width="49" y="0" height="48"/></clipPath><clipPath id="a3778e6aca"><path d="M 94.613281 182.042969 L 142.984375 182.042969 L 142.984375 229.125 L 94.613281 229.125 Z M 94.613281 182.042969 " clip-rule="nonzero"/></clipPath><clipPath id="3a56d287db"><path d="M 102.113281 182.042969 L 135.414062 182.042969 C 137.40625 182.042969 139.3125 182.832031 140.71875 184.242188 C 142.125 185.648438 142.914062 187.554688 142.914062 189.542969 L 142.914062 221.625 C 142.914062 223.613281 142.125 225.523438 140.71875 226.929688 C 139.3125 228.335938 137.40625 229.125 135.414062 229.125 L 102.113281 229.125 C 100.125 229.125 98.21875 228.335938 96.8125 226.929688 C 95.40625 225.523438 94.613281 223.613281 94.613281 221.625 L 94.613281 189.542969 C 94.613281 187.554688 95.40625 185.648438 96.8125 184.242188 C 98.21875 182.832031 100.125 182.042969 102.113281 182.042969 Z M 102.113281 182.042969 " clip-rule="nonzero"/></clipPath><clipPath id="bba03ae84b"><path d="M 0.613281 0.0429688 L 48.984375 0.0429688 L 48.984375 47.125 L 0.613281 47.125 Z M 0.613281 0.0429688 " clip-rule="nonzero"/></clipPath><clipPath id="baeac44393"><path d="M 8.113281 0.0429688 L 41.414062 0.0429688 C 43.40625 0.0429688 45.3125 0.832031 46.71875 2.242188 C 48.125 3.648438 48.914062 5.554688 48.914062 7.542969 L 48.914062 39.625 C 48.914062 41.613281 48.125 43.523438 46.71875 44.929688 C 45.3125 46.335938 43.40625 47.125 41.414062 47.125 L 8.113281 47.125 C 6.125 47.125 4.21875 46.335938 2.8125 44.929688 C 1.40625 43.523438 0.613281 41.613281 0.613281 39.625 L 0.613281 7.542969 C 0.613281 5.554688 1.40625 3.648438 2.8125 2.242188 C 4.21875 0.832031 6.125 0.0429688 8.113281 0.0429688 Z M 8.113281 0.0429688 " clip-rule="nonzero"/></clipPath><clipPath id="2aa37f3072"><rect x="0" width="49" y="0" height="48"/></clipPath><clipPath id="fd0ba4e620"><path d="M 167.851562 182.042969 L 216.21875 182.042969 L 216.21875 229.125 L 167.851562 229.125 Z M 167.851562 182.042969 " clip-rule="nonzero"/></clipPath><clipPath id="5893b78058"><path d="M 175.351562 182.042969 L 208.648438 182.042969 C 210.640625 182.042969 212.546875 182.832031 213.953125 184.242188 C 215.359375 185.648438 216.148438 187.554688 216.148438 189.542969 L 216.148438 221.625 C 216.148438 223.613281 215.359375 225.523438 213.953125 226.929688 C 212.546875 228.335938 210.640625 229.125 208.648438 229.125 L 175.351562 229.125 C 173.359375 229.125 171.453125 228.335938 170.046875 226.929688 C 168.640625 225.523438 167.851562 223.613281 167.851562 221.625 L 167.851562 189.542969 C 167.851562 187.554688 168.640625 185.648438 170.046875 184.242188 C 171.453125 182.832031 173.359375 182.042969 175.351562 182.042969 Z M 175.351562 182.042969 " clip-rule="nonzero"/></clipPath><clipPath id="33198423e8"><path d="M 0.851562 0.0429688 L 49.21875 0.0429688 L 49.21875 47.125 L 0.851562 47.125 Z M 0.851562 0.0429688 " clip-rule="nonzero"/></clipPath><clipPath id="14f492e7f6"><path d="M 8.351562 0.0429688 L 41.648438 0.0429688 C 43.640625 0.0429688 45.546875 0.832031 46.953125 2.242188 C 48.359375 3.648438 49.148438 5.554688 49.148438 7.542969 L 49.148438 39.625 C 49.148438 41.613281 48.359375 43.523438 46.953125 44.929688 C 45.546875 46.335938 43.640625 47.125 41.648438 47.125 L 8.351562 47.125 C 6.359375 47.125 4.453125 46.335938 3.046875 44.929688 C 1.640625 43.523438 0.851562 41.613281 0.851562 39.625 L 0.851562 7.542969 C 0.851562 5.554688 1.640625 3.648438 3.046875 2.242188 C 4.453125 0.832031 6.359375 0.0429688 8.351562 0.0429688 Z M 8.351562 0.0429688 " clip-rule="nonzero"/></clipPath><clipPath id="a86a06de36"><rect x="0" width="50" y="0" height="48"/></clipPath><clipPath id="9d27c5f1ee"><path d="M 94.613281 249.261719 L 142.984375 249.261719 L 142.984375 296.34375 L 94.613281 296.34375 Z M 94.613281 249.261719 " clip-rule="nonzero"/></clipPath><clipPath id="4a4f10e203"><path d="M 102.113281 249.261719 L 135.414062 249.261719 C 137.40625 249.261719 139.3125 250.050781 140.71875 251.457031 C 142.125 252.863281 142.914062 254.769531 142.914062 256.761719 L 142.914062 288.84375 C 142.914062 290.832031 142.125 292.738281 140.71875 294.144531 C 139.3125 295.550781 137.40625 296.34375 135.414062 296.34375 L 102.113281 296.34375 C 100.125 296.34375 98.21875 295.550781 96.8125 294.144531 C 95.40625 292.738281 94.613281 290.832031 94.613281 288.84375 L 94.613281 256.761719 C 94.613281 254.769531 95.40625 252.863281 96.8125 251.457031 C 98.21875 250.050781 100.125 249.261719 102.113281 249.261719 Z M 102.113281 249.261719 " clip-rule="nonzero"/></clipPath><clipPath id="4fe78c915a"><path d="M 0.613281 0.261719 L 48.984375 0.261719 L 48.984375 47.34375 L 0.613281 47.34375 Z M 0.613281 0.261719 " clip-rule="nonzero"/></clipPath><clipPath id="d248c696ea"><path d="M 8.113281 0.261719 L 41.414062 0.261719 C 43.40625 0.261719 45.3125 1.050781 46.71875 2.457031 C 48.125 3.863281 48.914062 5.769531 48.914062 7.761719 L 48.914062 39.84375 C 48.914062 41.832031 48.125 43.738281 46.71875 45.144531 C 45.3125 46.550781 43.40625 47.34375 41.414062 47.34375 L 8.113281 47.34375 C 6.125 47.34375 4.21875 46.550781 2.8125 45.144531 C 1.40625 43.738281 0.613281 41.832031 0.613281 39.84375 L 0.613281 7.761719 C 0.613281 5.769531 1.40625 3.863281 2.8125 2.457031 C 4.21875 1.050781 6.125 0.261719 8.113281 0.261719 Z M 8.113281 0.261719 " clip-rule="nonzero"/></clipPath><clipPath id="aa4d788c15"><rect x="0" width="49" y="0" height="48"/></clipPath><clipPath id="a38fded674"><path d="M 167.851562 249.261719 L 216.21875 249.261719 L 216.21875 296.34375 L 167.851562 296.34375 Z M 167.851562 249.261719 " clip-rule="nonzero"/></clipPath><clipPath id="e286e5b786"><path d="M 175.351562 249.261719 L 208.648438 249.261719 C 210.640625 249.261719 212.546875 250.050781 213.953125 251.457031 C 215.359375 252.863281 216.148438 254.769531 216.148438 256.761719 L 216.148438 288.84375 C 216.148438 290.832031 215.359375 292.738281 213.953125 294.144531 C 212.546875 295.550781 210.640625 296.34375 208.648438 296.34375 L 175.351562 296.34375 C 173.359375 296.34375 171.453125 295.550781 170.046875 294.144531 C 168.640625 292.738281 167.851562 290.832031 167.851562 288.84375 L 167.851562 256.761719 C 167.851562 254.769531 168.640625 252.863281 170.046875 251.457031 C 171.453125 250.050781 173.359375 249.261719 175.351562 249.261719 Z M 175.351562 249.261719 " clip-rule="nonzero"/></clipPath><clipPath id="12d28a0443"><path d="M 0.851562 0.261719 L 49.21875 0.261719 L 49.21875 47.34375 L 0.851562 47.34375 Z M 0.851562 0.261719 " clip-rule="nonzero"/></clipPath><clipPath id="617e1a3488"><path d="M 8.351562 0.261719 L 41.648438 0.261719 C 43.640625 0.261719 45.546875 1.050781 46.953125 2.457031 C 48.359375 3.863281 49.148438 5.769531 49.148438 7.761719 L 49.148438 39.84375 C 49.148438 41.832031 48.359375 43.738281 46.953125 45.144531 C 45.546875 46.550781 43.640625 47.34375 41.648438 47.34375 L 8.351562 47.34375 C 6.359375 47.34375 4.453125 46.550781 3.046875 45.144531 C 1.640625 43.738281 0.851562 41.832031 0.851562 39.84375 L 0.851562 7.761719 C 0.851562 5.769531 1.640625 3.863281 3.046875 2.457031 C 4.453125 1.050781 6.359375 0.261719 8.351562 0.261719 Z M 8.351562 0.261719 " clip-rule="nonzero"/></clipPath><clipPath id="df170665dd"><rect x="0" width="50" y="0" height="48"/></clipPath><clipPath id="9945a30e73"><path d="M 241.085938 249.261719 L 289.453125 249.261719 L 289.453125 296.34375 L 241.085938 296.34375 Z M 241.085938 249.261719 " clip-rule="nonzero"/></clipPath><clipPath id="7d2a8e2552"><path d="M 248.585938 249.261719 L 281.886719 249.261719 C 283.875 249.261719 285.78125 250.050781 287.1875 251.457031 C 288.59375 252.863281 289.386719 254.769531 289.386719 256.761719 L 289.386719 288.84375 C 289.386719 290.832031 288.59375 292.738281 287.1875 294.144531 C 285.78125 295.550781 283.875 296.34375 281.886719 296.34375 L 248.585938 296.34375 C 246.59375 296.34375 244.6875 295.550781 243.28125 294.144531 C 241.875 292.738281 241.085938 290.832031 241.085938 288.84375 L 241.085938 256.761719 C 241.085938 254.769531 241.875 252.863281 243.28125 251.457031 C 244.6875 250.050781 246.59375 249.261719 248.585938 249.261719 Z M 248.585938 249.261719 " clip-rule="nonzero"/></clipPath><clipPath id="01898908c1"><path d="M 0.0859375 0.261719 L 48.441406 0.261719 L 48.441406 47.34375 L 0.0859375 47.34375 Z M 0.0859375 0.261719 " clip-rule="nonzero"/></clipPath><clipPath id="8602932cf3"><path d="M 7.585938 0.261719 L 40.886719 0.261719 C 42.875 0.261719 44.78125 1.050781 46.1875 2.457031 C 47.59375 3.863281 48.386719 5.769531 48.386719 7.761719 L 48.386719 39.84375 C 48.386719 41.832031 47.59375 43.738281 46.1875 45.144531 C 44.78125 46.550781 42.875 47.34375 40.886719 47.34375 L 7.585938 47.34375 C 5.59375 47.34375 3.6875 46.550781 2.28125 45.144531 C 0.875 43.738281 0.0859375 41.832031 0.0859375 39.84375 L 0.0859375 7.761719 C 0.0859375 5.769531 0.875 3.863281 2.28125 2.457031 C 3.6875 1.050781 5.59375 0.261719 7.585938 0.261719 Z M 7.585938 0.261719 " clip-rule="nonzero"/></clipPath><clipPath id="2c2cae898c"><rect x="0" width="49" y="0" height="48"/></clipPath></defs><g clip-path="url(#d1db387fb5)"><g><g clip-path="url(#1571d196ec)"><g clip-path="url(#f4fd70d0de)"><g clip-path="url(#cbaa9c96ca)"><rect x="-84.48" width="552.96" fill="#ffffff" height="552.959979" y="-84.479997" fill-opacity="1"/></g></g></g></g><path stroke-linecap="butt" transform="matrix(0.75, 0, 0, 0.75, 0.0000072, 0.000000000000021316)" fill="none" stroke-linejoin="miter" d="M 69.999991 -0.000000000000028422 L 441.999997 -0.000000000000028422 C 480.661456 -0.000000000000028422 511.999998 31.338542 511.999998 70.000001 L 511.999998 442.000007 C 511.999998 480.661466 480.661456 512.000008 441.999997 512.000008 L 69.999991 512.000008 C 31.338533 512.000008 -0.0000096 480.661466 -0.0000096 442.000007 L -0.0000096 70.000001 C -0.0000096 31.338542 31.338533 -0.000000000000028422 69.999991 -0.000000000000028422 Z M 69.999991 -0.000000000000028422 " stroke="#000000" stroke-width="12" stroke-opacity="1" stroke-miterlimit="4"/></g><g clip-path="url(#1527bcf0cf)"><g clip-path="url(#24e96c40eb)"><g transform="matrix(1, 0, 0, 1, 62, 88)"><g clip-path="url(#f279b8ede4)"><g clip-path="url(#9f7a68b9f1)"><g clip-path="url(#5db4d002f7)"><path fill="#0693e3" d="M 0.140625 0.6875 L 257.953125 0.6875 L 257.953125 59.5625 L 0.140625 59.5625 Z M 0.140625 0.6875 " fill-opacity="1" fill-rule="nonzero"/></g></g></g></g></g></g><g clip-path="url(#51d3a52392)"><g transform="matrix(1, 0, 0, 1, 63, 119)"><g clip-path="url(#dcbb80029e)"><g clip-path="url(#02c7a4758e)"><path fill="#0693e3" d="M 0.96875 0.746094 L 258.816406 0.746094 L 258.816406 28.5625 L 0.96875 28.5625 Z M 0.96875 0.746094 " fill-opacity="1" fill-rule="nonzero"/></g></g></g></g><g clip-path="url(#5c81ab2619)"><g clip-path="url(#0e21373660)"><g transform="matrix(1, 0, 0, 1, 63, 147)"><g clip-path="url(#df25365deb)"><g clip-path="url(#c8e098e801)"><g clip-path="url(#b8849a7016)"><path fill="#ffffff" d="M 258.851562 189.492188 L 1.289062 189.492188 L 1.289062 0.5625 L 258.851562 0.5625 Z M 258.851562 189.492188 " fill-opacity="1" fill-rule="nonzero"/></g></g></g></g></g></g><g clip-path="url(#8684700e39)"><g transform="matrix(1, 0, 0, 1, 62, 147)"><g clip-path="url(#5b3fb83746)"><g clip-path="url(#7acb694a7d)"><path fill="#ffffff" d="M 258.023438 89.824219 L 0 89.824219 L 0 0.5625 L 258.023438 0.5625 Z M 258.023438 89.824219 " fill-opacity="1" fill-rule="nonzero"/></g></g></g></g><g clip-path="url(#31882902bf)"><g clip-path="url(#130a8d3d78)"><g transform="matrix(1, 0, 0, 1, 111, 39)"><g clip-path="url(#c803ba42f4)"><g clip-path="url(#5d28d653f0)"><g clip-path="url(#f9f71c96b3)"><path fill="#0f1131" d="M 0.117188 0.898438 L 19.660156 0.898438 L 19.660156 83.273438 L 0.117188 83.273438 Z M 0.117188 0.898438 " fill-opacity="1" fill-rule="nonzero"/></g></g></g></g></g></g><g clip-path="url(#d1ea2f5355)"><g clip-path="url(#8700ca99f9)"><g transform="matrix(1, 0, 0, 1, 253, 39)"><g clip-path="url(#15c670bedc)"><g clip-path="url(#a26bdfa443)"><g clip-path="url(#86799038df)"><path fill="#0f1131" d="M 0.757812 0.898438 L 19.882812 0.898438 L 19.882812 83.234375 L 0.757812 83.234375 Z M 0.757812 0.898438 " fill-opacity="1" fill-rule="nonzero"/></g></g></g></g></g></g><g clip-path="url(#c7dca1e5d4)"><g clip-path="url(#ba8ddb5b0c)"><path stroke-linecap="butt" transform="matrix(0.75, 0, 0, 0.75, 55.060455, 79.026887)" fill="none" stroke-linejoin="miter" d="M 365.169399 70.000611 L 365.169399 282.563114 C 365.169399 321.224573 333.830857 352.563115 295.169398 352.563115 L 69.99752 352.563115 C 31.341269 352.563115 -0.00248145 321.224573 -0.00248145 282.563114 L -0.00248145 70.000611 C -0.00248145 31.339152 31.341269 0.000609608 69.99752 0.000609608 L 295.169398 0.000609608 C 333.830857 0.000609608 365.169399 31.339152 365.169399 70.000611 Z M 365.169399 70.000611 " stroke="#0f1131" stroke-width="32" stroke-opacity="1" stroke-miterlimit="4"/></g></g><g clip-path="url(#4fdc06b418)"><g clip-path="url(#7cb1616c03)"><g transform="matrix(1, 0, 0, 1, 241, 182)"><g clip-path="url(#dad833dff8)"><g clip-path="url(#812daeac0e)"><g clip-path="url(#a3dc72d5b1)"><path fill="#0693e3" d="M 0.0859375 0.0429688 L 48.453125 0.0429688 L 48.453125 47.125 L 0.0859375 47.125 Z M 0.0859375 0.0429688 " fill-opacity="1" fill-rule="nonzero"/></g></g></g></g></g></g><g clip-path="url(#a3778e6aca)"><g clip-path="url(#3a56d287db)"><g transform="matrix(1, 0, 0, 1, 94, 182)"><g clip-path="url(#2aa37f3072)"><g clip-path="url(#bba03ae84b)"><g clip-path="url(#baeac44393)"><path fill="#0693e3" d="M 0.613281 0.0429688 L 48.984375 0.0429688 L 48.984375 47.125 L 0.613281 47.125 Z M 0.613281 0.0429688 " fill-opacity="1" fill-rule="nonzero"/></g></g></g></g></g></g><g clip-path="url(#fd0ba4e620)"><g clip-path="url(#5893b78058)"><g transform="matrix(1, 0, 0, 1, 167, 182)"><g clip-path="url(#a86a06de36)"><g clip-path="url(#33198423e8)"><g clip-path="url(#14f492e7f6)"><path fill="#0693e3" d="M 0.851562 0.0429688 L 49.21875 0.0429688 L 49.21875 47.125 L 0.851562 47.125 Z M 0.851562 0.0429688 " fill-opacity="1" fill-rule="nonzero"/></g></g></g></g></g></g><g clip-path="url(#9d27c5f1ee)"><g clip-path="url(#4a4f10e203)"><g transform="matrix(1, 0, 0, 1, 94, 249)"><g clip-path="url(#aa4d788c15)"><g clip-path="url(#4fe78c915a)"><g clip-path="url(#d248c696ea)"><path fill="#0693e3" d="M 0.613281 0.261719 L 48.984375 0.261719 L 48.984375 47.34375 L 0.613281 47.34375 Z M 0.613281 0.261719 " fill-opacity="1" fill-rule="nonzero"/></g></g></g></g></g></g><g clip-path="url(#a38fded674)"><g clip-path="url(#e286e5b786)"><g transform="matrix(1, 0, 0, 1, 167, 249)"><g clip-path="url(#df170665dd)"><g clip-path="url(#12d28a0443)"><g clip-path="url(#617e1a3488)"><path fill="#0693e3" d="M 0.851562 0.261719 L 49.21875 0.261719 L 49.21875 47.34375 L 0.851562 47.34375 Z M 0.851562 0.261719 " fill-opacity="1" fill-rule="nonzero"/></g></g></g></g></g></g><g clip-path="url(#9945a30e73)"><g clip-path="url(#7d2a8e2552)"><g transform="matrix(1, 0, 0, 1, 241, 249)"><g clip-path="url(#2c2cae898c)"><g clip-path="url(#01898908c1)"><g clip-path="url(#8602932cf3)"><path fill="#0693e3" d="M 0.0859375 0.261719 L 48.453125 0.261719 L 48.453125 47.34375 L 0.0859375 47.34375 Z M 0.0859375 0.261719 " fill-opacity="1" fill-rule="nonzero"/></g></g></g></g></g></g></svg>