<svg width="24" height="24" viewBox="0 0 24 24" fill="none" xmlns="http://www.w3.org/2000/svg">
<mask id="mask0_720_6068" style="mask-type:luminance" maskUnits="userSpaceOnUse" x="0" y="0" width="24" height="24">
<path d="M24 0H0V24H24V0Z" fill="white"/>
</mask>
<g mask="url(#mask0_720_6068)">
<path d="M11.9561 24C9.58481 24 7.2135 24 4.8422 24C2.1215 24 -0.0126953 21.8772 -0.0126953 19.155C-0.0126953 14.3975 -0.0126953 9.6275 -0.0126953 4.8699C-0.000195312 2.1353 2.1215 0 4.8422 0C6.7143 0 8.58641 0.0125008 10.4584 0.0125008C11.382 0.0125008 11.9935 0.5494 11.9935 1.3486C11.9935 2.1602 11.4194 2.6472 10.446 2.6722C8.499 2.7097 6.5396 2.5598 4.5926 2.7596C3.4319 2.8845 2.89531 3.4464 2.74551 4.5827C2.69561 4.9698 2.67061 5.3694 2.67061 5.7565C2.67061 9.9147 2.67061 14.0728 2.67061 18.2435C2.67061 20.7034 3.30711 21.3403 5.76581 21.3403C9.92181 21.3403 14.0778 21.3403 18.2463 21.3403C20.6925 21.3403 21.329 20.7034 21.3414 18.231C21.3414 16.6701 21.3414 15.1093 21.3414 13.5484C21.3414 12.5744 21.8407 12 22.6519 12C23.4506 12 23.9873 12.5994 23.9873 13.5359C23.9873 15.4339 23.9998 17.3195 23.9998 19.2175C23.9873 21.8772 21.8656 24 19.2073 24C16.7861 24.0125 14.3773 24 11.9561 24Z" fill="white"/>
<path d="M11.9938 10.3267C12.2309 10.1144 12.3307 9.77733 12.5554 9.55253C15.5133 6.58063 18.4836 3.60873 21.454 0.636831C21.7161 0.374631 21.9907 0.0874304 22.3651 0.0249304C22.9392 -0.0749696 23.4384 0.0998291 23.7629 0.611829C24.0874 1.11133 24.0624 1.63573 23.713 2.12273C23.5757 2.31003 23.4134 2.45993 23.2512 2.62223C20.1685 5.70653 16.9361 8.92823 13.8534 12.0249C14.44 12 14.2902 12 14.4399 12C15.4134 12.0124 16.3994 11.9875 17.3729 12.0124C18.1092 12.0249 18.6459 12.6118 18.6334 13.3485C18.6334 14.0728 18.1342 14.6347 17.3978 14.6472C15.1389 14.6722 12.8674 14.6722 10.6084 14.6472C9.85963 14.6472 9.36043 14.1352 9.34793 13.386C9.32293 11.1384 9.33543 8.89073 9.34793 6.65553C9.34793 5.88133 9.89703 5.36943 10.6584 5.36943C11.4197 5.36943 11.9813 5.91883 11.9938 6.70553C12.0063 7.90423 11.9938 9.11553 11.9938 10.3267Z" fill="white"/>
</g>
</svg>
