<svg width="24" height="24" viewBox="0 0 24 24" fill="none" xmlns="http://www.w3.org/2000/svg">
<path d="M4.79485 11.7282C4.95114 11.5531 5.08868 11.3781 5.24497 11.2218C7.01418 9.44633 8.78964 7.67712 10.5651 5.90165C10.7589 5.70785 10.9715 5.58282 11.2465 5.60157C11.5716 5.62658 11.8092 5.78912 11.9342 6.0892C12.0655 6.39553 12.0092 6.68936 11.7842 6.93942C11.6341 7.10822 11.4653 7.26451 11.309 7.4208C10.1212 8.60861 8.93343 9.79642 7.74562 10.9842C7.6831 11.0467 7.62059 11.0968 7.57683 11.203C7.6581 11.203 7.73937 11.203 7.82064 11.203C11.3216 11.203 14.8225 11.203 18.3234 11.203C18.9173 11.203 19.2986 11.6406 19.1798 12.1845C19.1048 12.5159 18.811 12.7722 18.4672 12.7972C18.3796 12.8034 18.2984 12.7972 18.2108 12.7972C14.7599 12.7972 11.3028 12.7972 7.8519 12.7972C7.76437 12.7972 7.6831 12.7972 7.53932 12.7972C7.62059 12.8847 7.67685 12.941 7.73312 12.9973C9.05221 14.3163 10.3713 15.6417 11.6966 16.9545C11.9217 17.1796 12.0592 17.4297 11.9905 17.7485C11.928 18.0423 11.7529 18.2611 11.4591 18.3549C11.1653 18.4487 10.8839 18.3987 10.6526 18.1798C10.3088 17.8485 9.97745 17.5109 9.63986 17.1733C8.15823 15.6917 6.67659 14.2101 5.20121 12.7284C5.05742 12.5846 4.93864 12.4284 4.79485 12.2658C4.79485 12.3283 4.79485 12.3971 4.79485 12.4721C4.79485 14.9478 4.79485 17.4234 4.79485 19.9053C4.79485 20.3492 4.60105 20.6555 4.25096 20.768C3.76333 20.9243 3.27571 20.6117 3.20069 20.0928C3.18818 20.0241 3.19443 19.9553 3.19443 19.8803C3.19443 14.6289 3.19443 9.37756 3.19443 4.12619C3.19443 3.61356 3.42574 3.30098 3.85711 3.21345C4.29472 3.12593 4.73233 3.43851 4.7886 3.88863C4.8011 3.98866 4.8011 4.08868 4.8011 4.19496C4.79485 6.70186 4.79485 9.22127 4.79485 11.7282Z" fill="#111111"/>
</svg>
