<svg xmlns="http://www.w3.org/2000/svg" xmlns:xlink="http://www.w3.org/1999/xlink" width="80" zoomAndPan="magnify" viewBox="0 0 60 60" height="80" preserveAspectRatio="xMidYMid meet" version="1.0"><defs><clipPath id="5375b67553"><path d="M 7.484375 12.046875 L 51.804688 12.046875 L 51.804688 22.167969 L 7.484375 22.167969 Z M 7.484375 12.046875 " clip-rule="nonzero"/></clipPath><clipPath id="61cd14b627"><path d="M 12.542969 12.046875 L 46.75 12.046875 C 49.542969 12.046875 51.808594 14.3125 51.808594 17.105469 C 51.808594 19.902344 49.542969 22.167969 46.75 22.167969 L 12.542969 22.167969 C 9.75 22.167969 7.484375 19.902344 7.484375 17.105469 C 7.484375 14.3125 9.75 12.046875 12.542969 12.046875 " clip-rule="nonzero"/></clipPath><clipPath id="aeca3ed625"><path d="M 12.542969 12.046875 L 46.75 12.046875 C 49.542969 12.046875 51.808594 14.3125 51.808594 17.105469 C 51.808594 19.902344 49.542969 22.167969 46.75 22.167969 L 12.542969 22.167969 C 9.75 22.167969 7.484375 19.902344 7.484375 17.105469 C 7.484375 14.3125 9.75 12.046875 12.542969 12.046875 " clip-rule="nonzero"/></clipPath><clipPath id="32d0c0c423"><path d="M 7.800781 17.386719 L 52.125 17.386719 L 52.125 22.167969 L 7.800781 22.167969 Z M 7.800781 17.386719 " clip-rule="nonzero"/></clipPath><clipPath id="ba615e0ab1"><path d="M 7.804688 22.167969 L 52.121094 22.167969 L 52.121094 54.640625 L 7.804688 54.640625 Z M 7.804688 22.167969 " clip-rule="nonzero"/></clipPath><clipPath id="3ade9632ea"><path d="M 46.320312 54.640625 L 13.597656 54.640625 C 11.996094 54.640625 10.628906 54.074219 9.496094 52.941406 C 8.363281 51.808594 7.796875 50.441406 7.796875 48.839844 L 7.796875 27.96875 C 7.796875 27.199219 7.945312 26.457031 8.238281 25.746094 C 8.535156 25.035156 8.953125 24.410156 9.496094 23.867188 C 10.042969 23.320312 10.667969 22.902344 11.378906 22.609375 C 12.089844 22.3125 12.832031 22.167969 13.597656 22.167969 L 46.320312 22.167969 C 47.089844 22.167969 47.832031 22.3125 48.542969 22.609375 C 49.253906 22.902344 49.878906 23.320312 50.425781 23.867188 C 50.96875 24.410156 51.386719 25.035156 51.679688 25.746094 C 51.976562 26.457031 52.121094 27.199219 52.121094 27.96875 L 52.121094 48.839844 C 52.121094 50.441406 51.558594 51.808594 50.425781 52.941406 C 49.292969 54.074219 47.925781 54.640625 46.320312 54.640625 " clip-rule="nonzero"/></clipPath><clipPath id="de10c45402"><path d="M 46.320312 54.640625 L 13.597656 54.640625 C 11.996094 54.640625 10.628906 54.074219 9.496094 52.941406 C 8.363281 51.808594 7.796875 50.441406 7.796875 48.839844 L 7.796875 27.96875 C 7.796875 27.199219 7.945312 26.457031 8.238281 25.746094 C 8.535156 25.035156 8.953125 24.410156 9.496094 23.867188 C 10.042969 23.320312 10.667969 22.902344 11.378906 22.609375 C 12.089844 22.3125 12.832031 22.167969 13.597656 22.167969 L 46.320312 22.167969 C 47.089844 22.167969 47.832031 22.3125 48.542969 22.609375 C 49.253906 22.902344 49.878906 23.320312 50.425781 23.867188 C 50.96875 24.410156 51.386719 25.039062 51.679688 25.746094 C 51.976562 26.457031 52.121094 27.199219 52.121094 27.96875 L 52.121094 48.839844 C 52.121094 50.441406 51.558594 51.808594 50.425781 52.941406 C 49.292969 54.074219 47.925781 54.640625 46.320312 54.640625 " clip-rule="nonzero"/></clipPath><clipPath id="3022a79566"><path d="M 7.484375 22.167969 L 51.808594 22.167969 L 51.808594 37.507812 L 7.484375 37.507812 Z M 7.484375 22.167969 " clip-rule="nonzero"/></clipPath><clipPath id="afe182765d"><path d="M 15.902344 3.660156 L 19.261719 3.660156 L 19.261719 17.820312 L 15.902344 17.820312 Z M 15.902344 3.660156 " clip-rule="nonzero"/></clipPath><clipPath id="b4087be255"><path d="M 17.582031 3.660156 C 18.046875 3.664062 18.441406 3.828125 18.769531 4.152344 C 19.097656 4.480469 19.261719 4.878906 19.261719 5.34375 L 19.261719 16.136719 C 19.261719 16.601562 19.097656 16.996094 18.769531 17.324219 C 18.441406 17.652344 18.046875 17.816406 17.582031 17.816406 C 17.117188 17.816406 16.722656 17.652344 16.394531 17.324219 C 16.066406 16.996094 15.902344 16.601562 15.902344 16.136719 L 15.902344 5.34375 C 15.902344 4.878906 16.066406 4.480469 16.394531 4.15625 C 16.722656 3.828125 17.117188 3.664062 17.582031 3.660156 " clip-rule="nonzero"/></clipPath><clipPath id="4c7f3d565d"><path d="M 17.582031 3.660156 C 18.046875 3.664062 18.441406 3.828125 18.769531 4.152344 C 19.097656 4.480469 19.261719 4.878906 19.261719 5.34375 L 19.261719 16.136719 C 19.261719 16.601562 19.097656 16.996094 18.769531 17.324219 C 18.441406 17.652344 18.046875 17.816406 17.582031 17.816406 C 17.117188 17.816406 16.722656 17.652344 16.394531 17.324219 C 16.066406 16.996094 15.902344 16.601562 15.902344 16.136719 L 15.902344 5.34375 C 15.902344 4.878906 16.066406 4.480469 16.394531 4.15625 C 16.722656 3.828125 17.117188 3.664062 17.582031 3.660156 " clip-rule="nonzero"/></clipPath><clipPath id="8be83bf2b0"><path d="M 40.417969 3.660156 L 43.707031 3.660156 L 43.707031 17.828125 L 40.417969 17.828125 Z M 40.417969 3.660156 " clip-rule="nonzero"/></clipPath><clipPath id="3c68e797fe"><path d="M 42.0625 3.660156 C 42.96875 3.660156 43.707031 4.398438 43.707031 5.304688 L 43.707031 16.171875 C 43.707031 16.625 43.546875 17.015625 43.226562 17.335938 C 42.902344 17.65625 42.515625 17.816406 42.0625 17.816406 C 41.609375 17.816406 41.222656 17.65625 40.902344 17.335938 C 40.578125 17.015625 40.417969 16.625 40.417969 16.171875 L 40.417969 5.304688 C 40.417969 4.398438 41.15625 3.660156 42.0625 3.660156 " clip-rule="nonzero"/></clipPath><clipPath id="10c40ec8f8"><path d="M 42.0625 3.660156 C 42.96875 3.660156 43.707031 4.398438 43.707031 5.304688 L 43.707031 16.171875 C 43.707031 16.625 43.546875 17.015625 43.226562 17.335938 C 42.902344 17.65625 42.515625 17.816406 42.0625 17.816406 C 41.609375 17.816406 41.222656 17.65625 40.902344 17.335938 C 40.578125 17.015625 40.417969 16.625 40.417969 16.171875 L 40.417969 5.304688 C 40.417969 4.398438 41.15625 3.660156 42.0625 3.660156 " clip-rule="nonzero"/></clipPath><clipPath id="931767e597"><path d="M 6.269531 10.386719 L 53.320312 10.386719 L 53.320312 55.890625 L 6.269531 55.890625 Z M 6.269531 10.386719 " clip-rule="nonzero"/></clipPath><clipPath id="7836de8086"><path d="M 53.339844 19.410156 L 53.339844 46.8125 C 53.339844 51.796875 49.300781 55.835938 44.316406 55.835938 L 15.292969 55.835938 C 10.308594 55.835938 6.269531 51.796875 6.269531 46.8125 L 6.269531 19.410156 C 6.269531 14.425781 10.308594 10.386719 15.292969 10.386719 L 44.316406 10.386719 C 49.300781 10.386719 53.339844 14.425781 53.339844 19.410156 " clip-rule="nonzero"/></clipPath><clipPath id="048f1fbc44"><path d="M 13.066406 28.09375 L 21.378906 28.09375 L 21.378906 36.183594 L 13.066406 36.183594 Z M 13.066406 28.09375 " clip-rule="nonzero"/></clipPath><clipPath id="0caa9819a5"><path d="M 17.113281 28.09375 L 17.320312 28.09375 C 17.859375 28.09375 18.375 28.195312 18.871094 28.402344 C 19.367188 28.605469 19.804688 28.898438 20.183594 29.277344 C 20.5625 29.65625 20.855469 30.09375 21.058594 30.589844 C 21.265625 31.085938 21.367188 31.601562 21.367188 32.140625 C 21.367188 32.675781 21.265625 33.191406 21.058594 33.6875 C 20.855469 34.183594 20.5625 34.621094 20.183594 35 C 19.804688 35.378906 19.367188 35.671875 18.871094 35.878906 C 18.375 36.082031 17.859375 36.183594 17.320312 36.183594 L 17.113281 36.183594 C 16.039062 36.183594 15.011719 35.757812 14.25 35 C 13.871094 34.621094 13.578125 34.183594 13.375 33.6875 C 13.167969 33.191406 13.066406 32.675781 13.066406 32.140625 C 13.066406 31.601562 13.167969 31.085938 13.375 30.589844 C 13.578125 30.09375 13.871094 29.65625 14.25 29.277344 C 15.042969 28.488281 15.996094 28.09375 17.113281 28.09375 " clip-rule="nonzero"/></clipPath><clipPath id="e993a82212"><path d="M 17.113281 28.09375 L 17.320312 28.09375 C 17.859375 28.09375 18.375 28.195312 18.871094 28.402344 C 19.367188 28.605469 19.804688 28.898438 20.183594 29.277344 C 20.5625 29.65625 20.855469 30.09375 21.058594 30.589844 C 21.265625 31.085938 21.367188 31.601562 21.367188 32.140625 C 21.367188 32.675781 21.265625 33.191406 21.058594 33.6875 C 20.855469 34.183594 20.5625 34.621094 20.183594 35 C 19.804688 35.378906 19.367188 35.671875 18.871094 35.878906 C 18.375 36.082031 17.859375 36.183594 17.320312 36.183594 L 17.113281 36.183594 C 16.039062 36.183594 15.011719 35.757812 14.25 35 C 13.871094 34.621094 13.578125 34.183594 13.375 33.6875 C 13.167969 33.191406 13.066406 32.675781 13.066406 32.140625 C 13.066406 31.601562 13.167969 31.085938 13.375 30.589844 C 13.578125 30.09375 13.871094 29.65625 14.25 29.277344 C 15.042969 28.488281 15.996094 28.09375 17.113281 28.09375 " clip-rule="nonzero"/></clipPath><clipPath id="d0a6ecda11"><path d="M 25.652344 28.09375 L 33.96875 28.09375 L 33.96875 36.183594 L 25.652344 36.183594 Z M 25.652344 28.09375 " clip-rule="nonzero"/></clipPath><clipPath id="20761d99af"><path d="M 29.699219 28.09375 L 29.910156 28.09375 C 30.445312 28.09375 30.960938 28.195312 31.457031 28.402344 C 31.953125 28.605469 32.390625 28.898438 32.769531 29.277344 C 33.148438 29.65625 33.441406 30.09375 33.648438 30.589844 C 33.851562 31.085938 33.957031 31.601562 33.957031 32.140625 C 33.957031 32.675781 33.851562 33.191406 33.648438 33.6875 C 33.441406 34.183594 33.148438 34.621094 32.769531 35 C 32.390625 35.378906 31.953125 35.671875 31.457031 35.878906 C 30.960938 36.082031 30.445312 36.183594 29.910156 36.183594 L 29.699219 36.183594 C 29.164062 36.183594 28.648438 36.082031 28.152344 35.878906 C 27.65625 35.671875 27.21875 35.378906 26.839844 35 C 26.460938 34.621094 26.167969 34.183594 25.960938 33.6875 C 25.757812 33.191406 25.652344 32.675781 25.652344 32.140625 C 25.652344 31.601562 25.757812 31.085938 25.960938 30.589844 C 26.167969 30.09375 26.460938 29.65625 26.839844 29.277344 C 27.21875 28.898438 27.65625 28.605469 28.152344 28.402344 C 28.648438 28.195312 29.164062 28.09375 29.699219 28.09375 " clip-rule="nonzero"/></clipPath><clipPath id="43129b6247"><path d="M 29.699219 28.09375 L 29.910156 28.09375 C 30.445312 28.09375 30.960938 28.195312 31.457031 28.402344 C 31.953125 28.605469 32.390625 28.898438 32.769531 29.277344 C 33.148438 29.65625 33.441406 30.09375 33.644531 30.589844 C 33.851562 31.085938 33.953125 31.601562 33.953125 32.140625 C 33.953125 32.675781 33.851562 33.191406 33.644531 33.6875 C 33.441406 34.183594 33.148438 34.621094 32.769531 35 C 32.390625 35.378906 31.953125 35.671875 31.457031 35.878906 C 30.960938 36.082031 30.445312 36.183594 29.910156 36.183594 L 29.699219 36.183594 C 29.164062 36.183594 28.648438 36.082031 28.152344 35.878906 C 27.65625 35.671875 27.21875 35.378906 26.839844 35 C 26.460938 34.621094 26.167969 34.183594 25.960938 33.6875 C 25.757812 33.191406 25.652344 32.675781 25.652344 32.140625 C 25.652344 31.601562 25.757812 31.085938 25.960938 30.589844 C 26.167969 30.09375 26.460938 29.65625 26.839844 29.277344 C 27.21875 28.898438 27.65625 28.605469 28.152344 28.402344 C 28.648438 28.195312 29.164062 28.09375 29.699219 28.09375 " clip-rule="nonzero"/></clipPath><clipPath id="73ae89a0d5"><path d="M 38.242188 28.09375 L 46.550781 28.09375 L 46.550781 36.183594 L 38.242188 36.183594 Z M 38.242188 28.09375 " clip-rule="nonzero"/></clipPath><clipPath id="03cfda9116"><path d="M 42.285156 28.09375 L 42.496094 28.09375 C 43.570312 28.09375 44.597656 28.519531 45.355469 29.277344 C 45.9375 29.855469 46.304688 30.546875 46.464844 31.351562 C 46.625 32.152344 46.546875 32.933594 46.234375 33.6875 C 45.921875 34.445312 45.425781 35.050781 44.746094 35.503906 C 44.0625 35.957031 43.316406 36.1875 42.496094 36.183594 L 42.285156 36.183594 C 41.75 36.183594 41.234375 36.082031 40.738281 35.878906 C 40.242188 35.671875 39.804688 35.378906 39.425781 35 C 39.046875 34.621094 38.753906 34.183594 38.550781 33.6875 C 38.34375 33.191406 38.242188 32.675781 38.242188 32.140625 C 38.242188 31.601562 38.34375 31.085938 38.550781 30.589844 C 38.753906 30.09375 39.046875 29.65625 39.425781 29.277344 C 39.804688 28.898438 40.242188 28.605469 40.738281 28.402344 C 41.234375 28.195312 41.75 28.09375 42.285156 28.09375 " clip-rule="nonzero"/></clipPath><clipPath id="abc8087cf9"><path d="M 42.285156 28.09375 L 42.496094 28.09375 C 43.570312 28.09375 44.597656 28.519531 45.355469 29.277344 C 45.9375 29.855469 46.304688 30.546875 46.464844 31.351562 C 46.625 32.152344 46.546875 32.933594 46.234375 33.6875 C 45.921875 34.445312 45.425781 35.050781 44.746094 35.503906 C 44.0625 35.957031 43.316406 36.1875 42.496094 36.183594 L 42.285156 36.183594 C 41.75 36.183594 41.234375 36.082031 40.738281 35.878906 C 40.242188 35.671875 39.804688 35.378906 39.425781 35 C 39.046875 34.621094 38.753906 34.183594 38.550781 33.6875 C 38.34375 33.191406 38.242188 32.675781 38.242188 32.140625 C 38.242188 31.601562 38.34375 31.085938 38.550781 30.589844 C 38.753906 30.09375 39.046875 29.65625 39.425781 29.277344 C 39.804688 28.898438 40.242188 28.605469 40.738281 28.402344 C 41.234375 28.195312 41.75 28.09375 42.285156 28.09375 " clip-rule="nonzero"/></clipPath><clipPath id="528973543a"><path d="M 13.066406 39.644531 L 21.378906 39.644531 L 21.378906 47.738281 L 13.066406 47.738281 Z M 13.066406 39.644531 " clip-rule="nonzero"/></clipPath><clipPath id="ecd7fde328"><path d="M 17.113281 39.644531 L 17.320312 39.644531 C 17.859375 39.644531 18.375 39.75 18.871094 39.953125 C 19.367188 40.160156 19.804688 40.453125 20.183594 40.832031 C 20.5625 41.210938 20.855469 41.648438 21.058594 42.144531 C 21.265625 42.640625 21.367188 43.15625 21.367188 43.691406 C 21.367188 44.230469 21.265625 44.746094 21.058594 45.242188 C 20.855469 45.738281 20.5625 46.175781 20.183594 46.554688 C 19.804688 46.933594 19.367188 47.226562 18.871094 47.429688 C 18.375 47.636719 17.859375 47.738281 17.320312 47.738281 L 17.113281 47.738281 C 16.039062 47.738281 15.011719 47.3125 14.25 46.554688 C 13.671875 45.976562 13.304688 45.285156 13.144531 44.480469 C 12.984375 43.679688 13.0625 42.898438 13.375 42.144531 C 13.6875 41.386719 14.183594 40.78125 14.863281 40.328125 C 15.542969 39.875 16.292969 39.644531 17.113281 39.644531 " clip-rule="nonzero"/></clipPath><clipPath id="9c3be8003a"><path d="M 17.113281 39.644531 L 17.320312 39.644531 C 17.859375 39.644531 18.375 39.75 18.871094 39.953125 C 19.367188 40.160156 19.804688 40.453125 20.183594 40.832031 C 20.5625 41.210938 20.855469 41.648438 21.058594 42.144531 C 21.265625 42.640625 21.367188 43.15625 21.367188 43.691406 C 21.367188 44.230469 21.265625 44.746094 21.058594 45.242188 C 20.855469 45.738281 20.5625 46.175781 20.183594 46.554688 C 19.804688 46.933594 19.367188 47.226562 18.871094 47.429688 C 18.375 47.636719 17.859375 47.738281 17.320312 47.738281 L 17.113281 47.738281 C 16.039062 47.738281 15.011719 47.3125 14.25 46.554688 C 13.671875 45.976562 13.304688 45.285156 13.144531 44.480469 C 12.984375 43.679688 13.0625 42.898438 13.375 42.144531 C 13.6875 41.386719 14.183594 40.78125 14.863281 40.328125 C 15.542969 39.875 16.292969 39.644531 17.113281 39.644531 " clip-rule="nonzero"/></clipPath><clipPath id="6dd40a79f7"><path d="M 25.652344 39.644531 L 33.96875 39.644531 L 33.96875 47.738281 L 25.652344 47.738281 Z M 25.652344 39.644531 " clip-rule="nonzero"/></clipPath><clipPath id="5181c6d1d6"><path d="M 29.699219 39.644531 L 29.910156 39.644531 C 30.445312 39.644531 30.960938 39.75 31.457031 39.953125 C 31.953125 40.160156 32.390625 40.453125 32.769531 40.832031 C 33.148438 41.210938 33.441406 41.648438 33.648438 42.144531 C 33.851562 42.640625 33.957031 43.15625 33.957031 43.691406 C 33.957031 44.230469 33.851562 44.746094 33.648438 45.242188 C 33.441406 45.738281 33.148438 46.175781 32.769531 46.554688 C 32.390625 46.933594 31.953125 47.226562 31.457031 47.429688 C 30.960938 47.636719 30.445312 47.738281 29.910156 47.738281 L 29.699219 47.738281 C 29.164062 47.738281 28.648438 47.636719 28.152344 47.429688 C 27.65625 47.226562 27.21875 46.933594 26.839844 46.554688 C 26.460938 46.175781 26.167969 45.738281 25.960938 45.242188 C 25.757812 44.746094 25.652344 44.230469 25.652344 43.691406 C 25.652344 43.15625 25.757812 42.640625 25.960938 42.144531 C 26.167969 41.648438 26.460938 41.210938 26.839844 40.832031 C 27.21875 40.453125 27.65625 40.160156 28.152344 39.953125 C 28.648438 39.75 29.164062 39.644531 29.699219 39.644531 " clip-rule="nonzero"/></clipPath><clipPath id="6667516b6e"><path d="M 29.699219 39.644531 L 29.910156 39.644531 C 30.445312 39.644531 30.960938 39.75 31.457031 39.953125 C 31.953125 40.160156 32.390625 40.453125 32.769531 40.832031 C 33.148438 41.210938 33.441406 41.648438 33.648438 42.144531 C 33.851562 42.640625 33.957031 43.15625 33.957031 43.691406 C 33.957031 44.230469 33.851562 44.746094 33.648438 45.242188 C 33.441406 45.738281 33.148438 46.175781 32.769531 46.554688 C 32.390625 46.933594 31.953125 47.226562 31.457031 47.429688 C 30.960938 47.636719 30.445312 47.738281 29.910156 47.738281 L 29.699219 47.738281 C 29.164062 47.738281 28.648438 47.636719 28.152344 47.429688 C 27.65625 47.226562 27.21875 46.933594 26.839844 46.554688 C 26.460938 46.175781 26.167969 45.738281 25.960938 45.242188 C 25.757812 44.746094 25.652344 44.230469 25.652344 43.691406 C 25.652344 43.15625 25.757812 42.640625 25.960938 42.144531 C 26.167969 41.648438 26.460938 41.210938 26.839844 40.832031 C 27.21875 40.453125 27.65625 40.160156 28.152344 39.953125 C 28.648438 39.75 29.164062 39.644531 29.699219 39.644531 " clip-rule="nonzero"/></clipPath><clipPath id="43ffd5fb19"><path d="M 38.242188 39.644531 L 46.550781 39.644531 L 46.550781 47.738281 L 38.242188 47.738281 Z M 38.242188 39.644531 " clip-rule="nonzero"/></clipPath><clipPath id="1c7639c252"><path d="M 42.285156 39.644531 L 42.496094 39.644531 C 43.570312 39.644531 44.597656 40.074219 45.355469 40.832031 C 45.738281 41.210938 46.027344 41.648438 46.234375 42.144531 C 46.441406 42.640625 46.542969 43.15625 46.542969 43.691406 C 46.542969 44.230469 46.441406 44.746094 46.234375 45.242188 C 46.027344 45.738281 45.738281 46.175781 45.355469 46.554688 C 44.566406 47.34375 43.613281 47.738281 42.496094 47.738281 L 42.285156 47.738281 C 41.75 47.738281 41.234375 47.636719 40.738281 47.429688 C 40.242188 47.226562 39.804688 46.933594 39.425781 46.554688 C 39.046875 46.175781 38.753906 45.738281 38.550781 45.242188 C 38.34375 44.746094 38.242188 44.230469 38.242188 43.691406 C 38.242188 43.15625 38.34375 42.640625 38.550781 42.144531 C 38.753906 41.648438 39.046875 41.210938 39.425781 40.832031 C 39.804688 40.453125 40.242188 40.160156 40.738281 39.953125 C 41.234375 39.75 41.75 39.644531 42.285156 39.644531 " clip-rule="nonzero"/></clipPath><clipPath id="0e0c5e2967"><path d="M 42.285156 39.644531 L 42.496094 39.644531 C 43.570312 39.644531 44.597656 40.074219 45.355469 40.832031 C 45.738281 41.210938 46.027344 41.648438 46.234375 42.144531 C 46.441406 42.640625 46.542969 43.15625 46.542969 43.691406 C 46.542969 44.230469 46.441406 44.746094 46.234375 45.242188 C 46.027344 45.738281 45.738281 46.175781 45.355469 46.554688 C 44.566406 47.34375 43.613281 47.738281 42.496094 47.738281 L 42.285156 47.738281 C 41.75 47.738281 41.234375 47.636719 40.738281 47.429688 C 40.242188 47.226562 39.804688 46.933594 39.425781 46.554688 C 39.046875 46.175781 38.753906 45.738281 38.550781 45.242188 C 38.34375 44.746094 38.242188 44.230469 38.242188 43.691406 C 38.242188 43.15625 38.34375 42.640625 38.550781 42.144531 C 38.753906 41.648438 39.046875 41.210938 39.425781 40.832031 C 39.804688 40.453125 40.242188 40.160156 40.738281 39.953125 C 41.234375 39.75 41.75 39.644531 42.285156 39.644531 " clip-rule="nonzero"/></clipPath></defs><g clip-path="url(#5375b67553)"><g clip-path="url(#61cd14b627)"><g clip-path="url(#aeca3ed625)"><path fill="#0693e3" d="M 7.484375 12.046875 L 51.796875 12.046875 L 51.796875 22.167969 L 7.484375 22.167969 Z M 7.484375 12.046875 " fill-opacity="1" fill-rule="nonzero"/></g></g></g><g clip-path="url(#32d0c0c423)"><path fill="#0693e3" d="M 7.800781 17.386719 L 52.117188 17.386719 L 52.117188 22.167969 L 7.800781 22.167969 Z M 7.800781 17.386719 " fill-opacity="1" fill-rule="nonzero"/></g><g clip-path="url(#ba615e0ab1)"><g clip-path="url(#3ade9632ea)"><g clip-path="url(#de10c45402)"><path fill="#ffffff" d="M 7.855469 22.167969 L 52.121094 22.167969 L 52.121094 54.640625 L 7.855469 54.640625 Z M 7.855469 22.167969 " fill-opacity="1" fill-rule="nonzero"/></g></g></g><g clip-path="url(#3022a79566)"><path fill="#ffffff" d="M 7.460938 22.167969 L 51.808594 22.167969 L 51.808594 37.507812 L 7.460938 37.507812 Z M 7.460938 22.167969 " fill-opacity="1" fill-rule="nonzero"/></g><g clip-path="url(#afe182765d)"><g clip-path="url(#b4087be255)"><g clip-path="url(#4c7f3d565d)"><path fill="#0f1131" d="M 15.902344 3.660156 L 19.261719 3.660156 L 19.261719 17.820312 L 15.902344 17.820312 Z M 15.902344 3.660156 " fill-opacity="1" fill-rule="nonzero"/></g></g></g><g clip-path="url(#8be83bf2b0)"><g clip-path="url(#3c68e797fe)"><g clip-path="url(#10c40ec8f8)"><path fill="#0f1131" d="M 40.417969 3.660156 L 43.707031 3.660156 L 43.707031 17.8125 L 40.417969 17.8125 Z M 40.417969 3.660156 " fill-opacity="1" fill-rule="nonzero"/></g></g></g><g clip-path="url(#931767e597)"><g clip-path="url(#7836de8086)"><path stroke-linecap="butt" transform="matrix(0.171875, 0, 0, 0.171875, -3.19545, -3.195448)" fill="none" stroke-linejoin="miter" d="M 328.932644 131.523527 L 328.932644 290.955357 C 328.932644 319.955359 305.432643 343.455361 276.43264 343.455361 L 107.568992 343.455361 C 78.568989 343.455361 55.068988 319.955359 55.068988 290.955357 L 55.068988 131.523527 C 55.068988 102.523525 78.568989 79.023523 107.568992 79.023523 L 276.43264 79.023523 C 305.432643 79.023523 328.932644 102.523525 328.932644 131.523527 Z M 328.932644 131.523527 " stroke="#0f1131" stroke-width="24" stroke-opacity="1" stroke-miterlimit="4"/></g></g><g clip-path="url(#048f1fbc44)"><g clip-path="url(#0caa9819a5)"><g clip-path="url(#e993a82212)"><path fill="#0693e3" d="M 13.066406 28.09375 L 21.378906 28.09375 L 21.378906 36.183594 L 13.066406 36.183594 Z M 13.066406 28.09375 " fill-opacity="1" fill-rule="nonzero"/></g></g></g><g clip-path="url(#d0a6ecda11)"><g clip-path="url(#20761d99af)"><g clip-path="url(#43129b6247)"><path fill="#0693e3" d="M 25.652344 28.09375 L 33.96875 28.09375 L 33.96875 36.183594 L 25.652344 36.183594 Z M 25.652344 28.09375 " fill-opacity="1" fill-rule="nonzero"/></g></g></g><g clip-path="url(#73ae89a0d5)"><g clip-path="url(#03cfda9116)"><g clip-path="url(#abc8087cf9)"><path fill="#0693e3" d="M 38.242188 28.09375 L 46.554688 28.09375 L 46.554688 36.183594 L 38.242188 36.183594 Z M 38.242188 28.09375 " fill-opacity="1" fill-rule="nonzero"/></g></g></g><g clip-path="url(#528973543a)"><g clip-path="url(#ecd7fde328)"><g clip-path="url(#9c3be8003a)"><path fill="#0693e3" d="M 13.066406 39.644531 L 21.378906 39.644531 L 21.378906 47.738281 L 13.066406 47.738281 Z M 13.066406 39.644531 " fill-opacity="1" fill-rule="nonzero"/></g></g></g><g clip-path="url(#6dd40a79f7)"><g clip-path="url(#5181c6d1d6)"><g clip-path="url(#6667516b6e)"><path fill="#0693e3" d="M 25.652344 39.644531 L 33.96875 39.644531 L 33.96875 47.738281 L 25.652344 47.738281 Z M 25.652344 39.644531 " fill-opacity="1" fill-rule="nonzero"/></g></g></g><g clip-path="url(#43ffd5fb19)"><g clip-path="url(#1c7639c252)"><g clip-path="url(#0e0c5e2967)"><path fill="#0693e3" d="M 38.242188 39.644531 L 46.554688 39.644531 L 46.554688 47.738281 L 38.242188 47.738281 Z M 38.242188 39.644531 " fill-opacity="1" fill-rule="nonzero"/></g></g></g></svg>