<svg width="31" height="31" viewBox="0 0 31 31" fill="none" xmlns="http://www.w3.org/2000/svg">
<path d="M21.9287 21.5578C20.3258 21.5578 18.7229 21.5578 17.1106 21.5578C16.3607 21.5578 16.1264 21.7928 16.1264 22.5545C16.1264 24.4446 16.1358 26.3347 16.1264 28.2343C16.1264 29.4097 15.3578 30.4065 14.3173 30.4817C13.7455 30.5193 13.1456 30.4535 12.5831 30.3218C6.43401 28.9207 2.42207 25.1969 0.81917 19.0752C-0.914963 12.4552 2.38458 5.29908 8.4681 2.19592C14.5704 -0.916643 21.7131 0.296411 26.3718 5.33669C29.3902 8.59971 30.6837 12.5022 30.29 16.9406C30.2338 17.6271 30.1026 18.3135 29.9432 18.9812C29.5964 20.4669 28.3403 21.4825 26.8218 21.5484C26.7655 21.5484 26.7093 21.5578 26.6437 21.5578C25.0689 21.5578 23.5035 21.5578 21.9287 21.5578ZM13.1268 8.76898C13.1268 7.52771 12.1051 6.51213 10.8678 6.51213C9.64918 6.52154 8.63683 7.52771 8.62745 8.75017C8.61808 9.99143 9.63981 11.0164 10.8678 11.0258C12.1051 11.0352 13.1268 10.0102 13.1268 8.76898ZM22.1256 8.75017C22.1162 7.51831 21.0851 6.50273 19.8478 6.51213C18.6292 6.52154 17.6262 7.54652 17.6262 8.76898C17.6262 10.0102 18.6479 11.0258 19.8853 11.0258C21.1132 11.0258 22.1256 9.99143 22.1256 8.75017ZM7.12766 17.0441C8.36499 17.0441 9.38672 16.0097 9.37735 14.7778C9.36797 13.5554 8.35562 12.5398 7.13704 12.5304C5.90908 12.521 4.88735 13.546 4.87798 14.7872C4.87798 16.0285 5.88096 17.0441 7.12766 17.0441ZM25.8657 14.7872C25.8657 13.546 24.8439 12.521 23.616 12.521C22.388 12.5304 21.3569 13.5742 21.3663 14.7966C21.3757 16.0191 22.388 17.0253 23.6066 17.0347C24.8533 17.0441 25.8657 16.0379 25.8657 14.7872Z" fill="#2FB44B"/>
</svg>
