<svg width="24" height="24" viewBox="0 0 24 24" fill="none" xmlns="http://www.w3.org/2000/svg">
<g clip-path="url(#clip0_815_15525)">
<path d="M7.45625 0C10.925 0 14.3937 0 17.8625 0C17.8625 1.75625 17.8625 3.5125 17.8625 5.26875C17.8625 5.81875 18.1312 6.09375 18.675 6.09375C20.3437 6.09375 22.0187 6.09375 23.6875 6.09375C23.7687 6.09375 23.8562 6.09375 23.9562 6.09375C23.9562 6.2 23.9562 6.28125 23.9562 6.36875C23.9562 9.8125 23.9562 13.2563 23.9562 16.7C23.9562 18.425 23.9625 20.15 23.9562 21.875C23.9562 22.8 23.3938 23.5813 22.5438 23.8813C22.4062 23.9312 22.2688 23.9625 22.1313 24C18.3938 24 14.6625 24 10.925 24C10.9688 23.9438 11 23.8687 11.05 23.8312C12.0188 23.0938 12.7688 22.1812 13.3125 21.0938C13.7375 20.2437 13.9875 19.3375 14.0813 18.375C14.175 18.375 14.2625 18.375 14.3438 18.375C16.1938 18.375 18.0437 18.375 19.9 18.375C20.2312 18.375 20.4812 18.25 20.6187 17.95C20.8375 17.4688 20.475 16.9688 19.9125 16.9688C18.0563 16.9688 16.1937 16.9688 14.3375 16.9688C14.2562 16.9688 14.1687 16.9688 14.0813 16.9688C13.9875 15.975 13.7188 15.05 13.2688 14.1562C14.0188 14.1562 14.7437 14.1562 15.4688 14.1562C16.9438 14.1562 18.4187 14.1562 19.9 14.1562C20.2562 14.1562 20.5125 14 20.625 13.7125C20.8188 13.2312 20.4688 12.75 19.9125 12.75C17.4938 12.75 15.0687 12.7438 12.65 12.7563C12.425 12.7563 12.2812 12.6875 12.1375 12.525C10.8875 11.1437 9.35 10.2875 7.5 10.0312C6.90625 9.95 6.29375 9.95 5.68125 9.9125C5.6875 9.93125 5.68125 9.91875 5.68125 9.90625C5.68125 7.275 5.675 4.64375 5.6875 2.0125C5.69375 1.38125 5.96875 0.8375 6.49375 0.46875C6.775 0.2625 7.125 0.15 7.45625 0ZM14.8375 8.53125C13.1375 8.53125 11.4312 8.53125 9.73125 8.53125C9.375 8.53125 9.11875 8.6875 9.00625 8.975C8.8125 9.45625 9.16875 9.9375 9.71875 9.9375C12.1937 9.9375 14.6687 9.9375 17.1437 9.9375C18.075 9.9375 19 9.9375 19.9312 9.9375C20.25 9.9375 20.4875 9.79375 20.6187 9.5C20.825 9.025 20.4687 8.53125 19.925 8.53125C18.225 8.53125 16.5312 8.53125 14.8375 8.53125Z" fill="#FFF"/>
<path d="M5.67476 24C5.41226 23.9375 5.15601 23.875 4.89351 23.8187C2.34351 23.2437 0.337262 20.9562 0.0872616 18.35C-0.212738 15.1937 1.68101 12.4312 4.73101 11.5625C8.26226 10.5562 12.0498 12.9875 12.6123 16.6187C13.1435 20.0625 10.9873 23.1812 7.58726 23.875C7.38726 23.9187 7.18726 23.9562 6.98726 23.9937C6.54976 24 6.10601 24 5.67476 24ZM5.38101 18.7C5.07476 18.3875 4.79351 18.1 4.50601 17.8125C4.31851 17.625 4.09351 17.5375 3.82476 17.6C3.27476 17.7375 3.09976 18.375 3.50601 18.7937C3.93726 19.2437 4.38726 19.6812 4.83101 20.1187C5.19976 20.4812 5.58726 20.4875 5.95601 20.1187C7.01226 19.0687 8.06851 18.0125 9.11851 16.9562C9.44976 16.625 9.46226 16.1875 9.16851 15.9C8.87476 15.6125 8.45601 15.6375 8.12476 15.9625C7.74976 16.3375 7.37476 16.7125 6.99976 17.0875C6.46851 17.6187 5.93726 18.1437 5.38101 18.7Z" fill="#FFF"/>
<path d="M19.2749 4.67495C19.2749 3.26245 19.2749 1.86245 19.2749 0.481201C20.6687 1.87495 22.0749 3.2812 23.4687 4.67495C22.0937 4.67495 20.6937 4.67495 19.2749 4.67495Z" fill="#FFF"/>
</g>
<defs>
<clipPath id="clip0_815_15525">
<rect width="24" height="24" fill="white"/>
</clipPath>
</defs>
</svg>
