<svg width="22" height="28" viewBox="0 0 22 28" fill="none" xmlns="http://www.w3.org/2000/svg">
<path fill-rule="evenodd" clip-rule="evenodd" d="M12.9206 9.41803V2.21803L19.9897 9.41803H12.9206ZM2.57059 0.254395C1.14391 0.254395 0 1.41948 0 2.87257V25.1271C0 25.8215 0.270829 26.4875 0.752908 26.9785C1.23499 27.4694 1.88883 27.7453 2.57059 27.7453H19.3471C20.0288 27.7453 20.6827 27.4694 21.1647 26.9785C21.6468 26.4875 21.9177 25.8215 21.9177 25.1271V8.10894L14.2059 0.254395H2.57059ZM4.38452 14.4145C3.53258 14.4145 2.83334 13.7027 2.84138 12.8354C2.84942 11.9845 3.54866 11.2809 4.38452 11.2727C5.22039 11.2727 5.91963 11.9763 5.91963 12.8272C5.92767 13.7109 5.2445 14.4145 4.38452 14.4145ZM4.89087 12.86C4.89891 12.5736 4.64975 12.32 4.37648 12.3281C4.1193 12.3281 3.87818 12.5818 3.87014 12.8436C3.86211 13.1136 4.09518 13.359 4.36041 13.3672C4.64975 13.3754 4.89087 13.1545 4.89087 12.86ZM19.3475 13.7185V12.0506C15.9075 12.0506 6.90014 11.9687 6.90014 11.9687V13.7185H19.3475ZM4.38452 19.869C3.53258 19.869 2.83334 19.1572 2.84138 18.29C2.84942 17.439 3.54866 16.7354 4.38452 16.7272C5.22039 16.7272 5.91963 17.4309 5.91963 18.2818C5.92767 19.1654 5.2445 19.869 4.38452 19.869ZM4.89087 18.3145C4.89891 18.0281 4.64975 17.7745 4.37648 17.7827C4.1193 17.7827 3.87818 18.0363 3.87014 18.2981C3.86211 18.5681 4.09518 18.8136 4.36041 18.8218C4.64975 18.83 4.89087 18.609 4.89087 18.3145ZM19.3475 19.173V17.5052C15.9075 17.5052 6.90014 17.4232 6.90014 17.4232V19.173H19.3475ZM4.38452 25.3236C3.53258 25.3236 2.83334 24.6118 2.84138 23.7445C2.84942 22.8936 3.54866 22.19 4.38452 22.1818C5.22039 22.1818 5.91963 22.8854 5.91963 23.7363C5.92767 24.62 5.2445 25.3236 4.38452 25.3236ZM4.89087 23.769C4.89891 23.4827 4.64975 23.229 4.37648 23.2372C4.1193 23.2372 3.87818 23.4909 3.87014 23.7527C3.86211 24.0227 4.09518 24.2681 4.36041 24.2763C4.64975 24.2845 4.89087 24.0636 4.89087 23.769ZM19.3475 24.6276V22.9597C15.9075 22.9597 6.90014 22.8778 6.90014 22.8778V24.6276H19.3475Z" fill="url(#paint0_linear_785_15551)"/>
<defs>
<linearGradient id="paint0_linear_785_15551" x1="3.75167" y1="2.11189" x2="23.5136" y2="23.4283" gradientUnits="userSpaceOnUse">
<stop stop-color="#F7CCDC"/>
<stop offset="1" stop-color="#FD80D2"/>
</linearGradient>
</defs>
</svg>
