<svg width="24" height="24" viewBox="0 0 24 24" fill="none" xmlns="http://www.w3.org/2000/svg">
<path fill-rule="evenodd" clip-rule="evenodd" d="M2.07399 0.0842476C1.57532 0.21549 1.19629 0.43515 0.82088 0.810443C0.439367 1.19179 0.224282 1.56732 0.0926686 2.08164C0.00239296 2.43451 0 2.62654 0 9.46367C0 14.3042 0.0158123 16.5699 0.0508622 16.7617C0.078827 16.9148 0.18393 17.2161 0.284434 17.4313C0.427918 17.7386 0.540293 17.8952 0.808305 18.1614C1.21004 18.5604 1.53506 18.7562 2.01666 18.8895C2.30902 18.9704 2.50257 18.9867 3.17621 18.9867H3.9848L3.99826 21.2264L4.01173 23.4662L4.12204 23.6435C4.30794 23.9425 4.6849 24.076 5.00575 23.9564C5.07838 23.9293 6.2468 22.8001 7.60221 21.4469L10.0666 18.9867L15.7899 18.9859C22.1227 18.9849 21.876 18.9961 22.4985 18.6821C23.1449 18.356 23.635 17.788 23.8715 17.0907L24 16.7117V9.5117C24 2.65408 23.9959 2.2983 23.9137 2.03023C23.6273 1.09652 22.9581 0.419436 22.0059 0.0998672C21.7586 0.0169378 21.341 0.012857 12.0821 0.00371035C2.68157 -0.00562391 2.40704 -0.00341933 2.07399 0.0842476ZM12.9028 5.33029C13.0955 5.43362 13.2786 5.75117 13.2786 5.982C13.2786 6.20311 11.2348 13.3058 11.1292 13.4518C11.0261 13.5943 10.6758 13.7801 10.5103 13.7801C10.3214 13.7801 9.98217 13.5852 9.86548 13.4097C9.79345 13.3013 9.75953 13.1803 9.75953 13.0317C9.75953 12.7783 11.7636 5.74128 11.8911 5.54662C12.084 5.25233 12.5654 5.14942 12.9028 5.33029ZM8.85147 6.32544C9.21567 6.50166 9.36755 6.90801 9.20586 7.27341C9.12765 7.45015 8.93006 7.63571 7.96988 8.43414C7.34128 8.95681 6.8 9.40917 6.76706 9.43933C6.71986 9.48253 6.96558 9.7096 7.92296 10.5075C9.00049 11.4055 9.14801 11.545 9.22013 11.7337C9.31294 11.9766 9.29225 12.1752 9.14984 12.4086C8.94297 12.7476 8.45729 12.8571 8.11228 12.6424C8.01919 12.5845 7.25602 11.9615 6.41633 11.2581C4.83894 9.93658 4.739 9.83184 4.739 9.50026C4.739 9.1585 4.87775 9.01464 6.53851 7.63505C7.41213 6.90932 8.17225 6.29725 8.22766 6.27488C8.40108 6.20494 8.64296 6.22455 8.85147 6.32544ZM14.7963 6.27248C14.8602 6.29678 15.627 6.91017 16.5003 7.63557C18.1315 8.99063 18.2991 9.16174 18.2991 9.47122C18.2991 9.8377 18.2235 9.918 16.6232 11.2521C15.7845 11.9514 15.0237 12.574 14.9326 12.6358C14.7243 12.7771 14.3617 12.7885 14.1224 12.6612C13.7735 12.4756 13.6426 11.9639 13.8541 11.6127C13.9159 11.5103 14.4386 11.0404 15.1254 10.47C16.2503 9.53586 16.2888 9.49834 16.2046 9.41902C16.1566 9.3738 15.6183 8.92243 15.0084 8.41603C13.8575 7.46042 13.7478 7.338 13.7478 7.00994C13.7478 6.46025 14.289 6.07965 14.7963 6.27248Z" fill="url(#paint0_linear_854_15337)"/>
<defs>
<linearGradient id="paint0_linear_854_15337" x1="2.48649" y1="-1.65999e-07" x2="14.9189" y2="25.0811" gradientUnits="userSpaceOnUse">
<stop stop-color="#BBE897"/>
<stop offset="1" stop-color="#08CD87"/>
</linearGradient>
</defs>
</svg>
