<svg width="300" height="300" viewBox="0 0 300 300" fill="none" xmlns="http://www.w3.org/2000/svg">
<rect width="300" height="300" rx="16" fill="#EBEBEB"/>
<path d="M0 16C0 7.16344 7.16344 0 16 0H284C292.837 0 300 7.16344 300 16V40H0V16Z" fill="#3D3D3D"/>
<ellipse cx="27.0673" cy="20" rx="7.06728" ry="7" fill="#FF4F59"/>
<ellipse cx="50.6254" cy="20" rx="7.06728" ry="7" fill="#FCFEFF"/>
<ellipse cx="74.183" cy="20" rx="7.06728" ry="7" fill="#FFF507"/>
<rect x="16" y="56" width="268" height="228" rx="10" fill="white"/>
<mask id="path-7-inside-1_744_19989" fill="white">
<path d="M31 66H269V108H31V66Z"/>
</mask>
<path d="M269 107.4H31V108.6H269V107.4Z" fill="black" fill-opacity="0.24" mask="url(#path-7-inside-1_744_19989)"/>
<path d="M52.917 84.2507V79.209L57.9587 84.2507M46.5003 77.834C45.4828 77.834 44.667 78.6498 44.667 79.6673V94.334C44.667 94.8202 44.8601 95.2865 45.204 95.6303C45.5478 95.9742 46.0141 96.1673 46.5003 96.1673H57.5003C57.9866 96.1673 58.4529 95.9742 58.7967 95.6303C59.1405 95.2865 59.3337 94.8202 59.3337 94.334V83.334L53.8337 77.834H46.5003Z" fill="#7D7D7D"/>
<rect x="70" y="84" width="84" height="6" rx="3" fill="#7D7D7D"/>
<rect x="204" y="76" width="55" height="22" rx="4" fill="#3A83F3"/>
<path fill-rule="evenodd" clip-rule="evenodd" d="M223.688 86.9997L224.051 86.8177V86.816L224.048 86.8134L224.043 86.8029L224.025 86.7679L223.955 86.6419C223.869 86.4945 223.778 86.3503 223.682 86.2096C223.362 85.7397 222.994 85.3042 222.584 84.9102C221.599 83.9652 220.083 83.001 218 83.001C215.919 83.001 214.402 83.9644 213.417 84.9102C213.007 85.3042 212.639 85.7397 212.319 86.2096C212.189 86.4013 212.069 86.5993 211.958 86.8029L211.953 86.8134L211.951 86.816V86.8169C211.951 86.8169 211.95 86.8177 212.314 86.9997L211.95 86.8169C211.922 86.8736 211.908 86.936 211.908 86.9993C211.908 87.0626 211.922 87.125 211.95 87.1817L211.95 87.1835L211.952 87.1861L211.957 87.1966C211.985 87.2513 212.014 87.305 212.045 87.3576C212.422 87.9941 212.883 88.5768 213.415 89.0901C214.401 90.0351 215.918 90.9976 218 90.9976C220.082 90.9976 221.599 90.0351 222.585 89.0892C222.994 88.6948 223.362 88.2594 223.682 87.7899C223.805 87.6092 223.919 87.4229 224.025 87.2316L224.043 87.1966L224.048 87.1861L224.05 87.1835V87.1826C224.05 87.1826 224.051 87.1817 223.688 86.9997ZM223.688 86.9997L224.051 87.1826C224.079 87.1259 224.093 87.0634 224.093 87.0002C224.093 86.9369 224.079 86.8744 224.051 86.8177L223.688 86.9997ZM217.948 85.6557C217.591 85.6557 217.249 85.7973 216.997 86.0494C216.745 86.3014 216.604 86.6433 216.604 86.9997C216.604 87.3562 216.745 87.698 216.997 87.9501C217.249 88.2021 217.591 88.3437 217.948 88.3437C218.304 88.3437 218.646 88.2021 218.898 87.9501C219.15 87.698 219.292 87.3562 219.292 86.9997C219.292 86.6433 219.15 86.3014 218.898 86.0494C218.646 85.7973 218.304 85.6557 217.948 85.6557ZM215.793 86.9997C215.793 86.4279 216.021 85.8795 216.425 85.4752C216.829 85.0709 217.378 84.8437 217.949 84.8437C218.521 84.8437 219.07 85.0709 219.474 85.4752C219.878 85.8795 220.105 86.4279 220.105 86.9997C220.105 87.5715 219.878 88.1199 219.474 88.5242C219.07 88.9286 218.521 89.1557 217.949 89.1557C217.378 89.1557 216.829 88.9286 216.425 88.5242C216.021 88.1199 215.793 87.5715 215.793 86.9997Z" fill="white"/>
<rect x="229" y="85.5" width="23" height="3" rx="1.5" fill="white"/>
<mask id="path-14-inside-2_744_19989" fill="white">
<path d="M31 118H269V160H31V118Z"/>
</mask>
<path d="M269 159.4H31V160.6H269V159.4Z" fill="black" fill-opacity="0.24" mask="url(#path-14-inside-2_744_19989)"/>
<path d="M52.917 136.251V131.209L57.9587 136.251M46.5003 129.834C45.4828 129.834 44.667 130.65 44.667 131.667V146.334C44.667 146.82 44.8601 147.287 45.204 147.63C45.5478 147.974 46.0141 148.167 46.5003 148.167H57.5003C57.9866 148.167 58.4529 147.974 58.7967 147.63C59.1405 147.287 59.3337 146.82 59.3337 146.334V135.334L53.8337 129.834H46.5003Z" fill="#7D7D7D"/>
<rect x="70" y="136" width="84" height="6" rx="3" fill="#7D7D7D"/>
<rect x="204" y="128" width="55" height="22" rx="4" fill="#3A83F3"/>
<path fill-rule="evenodd" clip-rule="evenodd" d="M223.688 139L224.051 138.818V138.816L224.048 138.813L224.043 138.803L224.025 138.768L223.955 138.642C223.869 138.495 223.778 138.35 223.682 138.21C223.362 137.74 222.994 137.304 222.584 136.91C221.599 135.965 220.083 135.001 218 135.001C215.919 135.001 214.402 135.964 213.417 136.91C213.007 137.304 212.639 137.74 212.319 138.21C212.189 138.401 212.069 138.599 211.958 138.803L211.953 138.813L211.951 138.816V138.817C211.951 138.817 211.95 138.818 212.314 139L211.95 138.817C211.922 138.874 211.908 138.936 211.908 138.999C211.908 139.063 211.922 139.125 211.95 139.182L211.95 139.183L211.952 139.186L211.957 139.197C211.985 139.251 212.014 139.305 212.045 139.358C212.422 139.994 212.883 140.577 213.415 141.09C214.401 142.035 215.918 142.998 218 142.998C220.082 142.998 221.599 142.035 222.585 141.089C222.994 140.695 223.362 140.259 223.682 139.79C223.805 139.609 223.919 139.423 224.025 139.232L224.043 139.197L224.048 139.186L224.05 139.183V139.183C224.05 139.183 224.051 139.182 223.688 139ZM223.688 139L224.051 139.183C224.079 139.126 224.093 139.063 224.093 139C224.093 138.937 224.079 138.874 224.051 138.818L223.688 139ZM217.948 137.656C217.591 137.656 217.249 137.797 216.997 138.049C216.745 138.301 216.604 138.643 216.604 139C216.604 139.356 216.745 139.698 216.997 139.95C217.249 140.202 217.591 140.344 217.948 140.344C218.304 140.344 218.646 140.202 218.898 139.95C219.15 139.698 219.292 139.356 219.292 139C219.292 138.643 219.15 138.301 218.898 138.049C218.646 137.797 218.304 137.656 217.948 137.656ZM215.793 139C215.793 138.428 216.021 137.88 216.425 137.475C216.829 137.071 217.378 136.844 217.949 136.844C218.521 136.844 219.07 137.071 219.474 137.475C219.878 137.88 220.105 138.428 220.105 139C220.105 139.572 219.878 140.12 219.474 140.524C219.07 140.929 218.521 141.156 217.949 141.156C217.378 141.156 216.829 140.929 216.425 140.524C216.021 140.12 215.793 139.572 215.793 139Z" fill="white"/>
<rect x="229" y="137.5" width="23" height="3" rx="1.5" fill="white"/>
<mask id="path-21-inside-3_744_19989" fill="white">
<path d="M31 170H269V212H31V170Z"/>
</mask>
<path d="M269 211.4H31V212.6H269V211.4Z" fill="black" fill-opacity="0.24" mask="url(#path-21-inside-3_744_19989)"/>
<path d="M52.917 188.251V183.209L57.9587 188.251M46.5003 181.834C45.4828 181.834 44.667 182.65 44.667 183.667V198.334C44.667 198.82 44.8601 199.287 45.204 199.63C45.5478 199.974 46.0141 200.167 46.5003 200.167H57.5003C57.9866 200.167 58.4529 199.974 58.7967 199.63C59.1405 199.287 59.3337 198.82 59.3337 198.334V187.334L53.8337 181.834H46.5003Z" fill="#7D7D7D"/>
<rect x="70" y="188" width="84" height="6" rx="3" fill="#7D7D7D"/>
<rect x="204" y="180" width="55" height="22" rx="4" fill="#3A83F3"/>
<path fill-rule="evenodd" clip-rule="evenodd" d="M223.688 191L224.051 190.818V190.816L224.048 190.813L224.043 190.803L224.025 190.768L223.955 190.642C223.869 190.495 223.778 190.35 223.682 190.21C223.362 189.74 222.994 189.304 222.584 188.91C221.599 187.965 220.083 187.001 218 187.001C215.919 187.001 214.402 187.964 213.417 188.91C213.007 189.304 212.639 189.74 212.319 190.21C212.189 190.401 212.069 190.599 211.958 190.803L211.953 190.813L211.951 190.816V190.817C211.951 190.817 211.95 190.818 212.314 191L211.95 190.817C211.922 190.874 211.908 190.936 211.908 190.999C211.908 191.063 211.922 191.125 211.95 191.182L211.95 191.183L211.952 191.186L211.957 191.197C211.985 191.251 212.014 191.305 212.045 191.358C212.422 191.994 212.883 192.577 213.415 193.09C214.401 194.035 215.918 194.998 218 194.998C220.082 194.998 221.599 194.035 222.585 193.089C222.994 192.695 223.362 192.259 223.682 191.79C223.805 191.609 223.919 191.423 224.025 191.232L224.043 191.197L224.048 191.186L224.05 191.183V191.183C224.05 191.183 224.051 191.182 223.688 191ZM223.688 191L224.051 191.183C224.079 191.126 224.093 191.063 224.093 191C224.093 190.937 224.079 190.874 224.051 190.818L223.688 191ZM217.948 189.656C217.591 189.656 217.249 189.797 216.997 190.049C216.745 190.301 216.604 190.643 216.604 191C216.604 191.356 216.745 191.698 216.997 191.95C217.249 192.202 217.591 192.344 217.948 192.344C218.304 192.344 218.646 192.202 218.898 191.95C219.15 191.698 219.292 191.356 219.292 191C219.292 190.643 219.15 190.301 218.898 190.049C218.646 189.797 218.304 189.656 217.948 189.656ZM215.793 191C215.793 190.428 216.021 189.88 216.425 189.475C216.829 189.071 217.378 188.844 217.949 188.844C218.521 188.844 219.07 189.071 219.474 189.475C219.878 189.88 220.105 190.428 220.105 191C220.105 191.572 219.878 192.12 219.474 192.524C219.07 192.929 218.521 193.156 217.949 193.156C217.378 193.156 216.829 192.929 216.425 192.524C216.021 192.12 215.793 191.572 215.793 191Z" fill="white"/>
<rect x="229" y="189.5" width="23" height="3" rx="1.5" fill="white"/>
<mask id="path-28-inside-4_744_19989" fill="white">
<path d="M31 222H269V264H31V222Z"/>
</mask>
<path d="M269 263.4H31V264.6H269V263.4Z" fill="black" fill-opacity="0.24" mask="url(#path-28-inside-4_744_19989)"/>
<path d="M52.917 240.251V235.209L57.9587 240.251M46.5003 233.834C45.4828 233.834 44.667 234.65 44.667 235.667V250.334C44.667 250.82 44.8601 251.287 45.204 251.63C45.5478 251.974 46.0141 252.167 46.5003 252.167H57.5003C57.9866 252.167 58.4529 251.974 58.7967 251.63C59.1405 251.287 59.3337 250.82 59.3337 250.334V239.334L53.8337 233.834H46.5003Z" fill="#7D7D7D"/>
<rect x="70" y="240" width="84" height="6" rx="3" fill="#7D7D7D"/>
<rect x="204" y="232" width="55" height="22" rx="4" fill="#3A83F3"/>
<path fill-rule="evenodd" clip-rule="evenodd" d="M223.688 243L224.051 242.818V242.816L224.048 242.813L224.043 242.803L224.025 242.768L223.955 242.642C223.869 242.495 223.778 242.35 223.682 242.21C223.362 241.74 222.994 241.304 222.584 240.91C221.599 239.965 220.083 239.001 218 239.001C215.919 239.001 214.402 239.964 213.417 240.91C213.007 241.304 212.639 241.74 212.319 242.21C212.189 242.401 212.069 242.599 211.958 242.803L211.953 242.813L211.951 242.816V242.817C211.951 242.817 211.95 242.818 212.314 243L211.95 242.817C211.922 242.874 211.908 242.936 211.908 242.999C211.908 243.063 211.922 243.125 211.95 243.182L211.95 243.183L211.952 243.186L211.957 243.197C211.985 243.251 212.014 243.305 212.045 243.358C212.422 243.994 212.883 244.577 213.415 245.09C214.401 246.035 215.918 246.998 218 246.998C220.082 246.998 221.599 246.035 222.585 245.089C222.994 244.695 223.362 244.259 223.682 243.79C223.805 243.609 223.919 243.423 224.025 243.232L224.043 243.197L224.048 243.186L224.05 243.183V243.183C224.05 243.183 224.051 243.182 223.688 243ZM223.688 243L224.051 243.183C224.079 243.126 224.093 243.063 224.093 243C224.093 242.937 224.079 242.874 224.051 242.818L223.688 243ZM217.948 241.656C217.591 241.656 217.249 241.797 216.997 242.049C216.745 242.301 216.604 242.643 216.604 243C216.604 243.356 216.745 243.698 216.997 243.95C217.249 244.202 217.591 244.344 217.948 244.344C218.304 244.344 218.646 244.202 218.898 243.95C219.15 243.698 219.292 243.356 219.292 243C219.292 242.643 219.15 242.301 218.898 242.049C218.646 241.797 218.304 241.656 217.948 241.656ZM215.793 243C215.793 242.428 216.021 241.88 216.425 241.475C216.829 241.071 217.378 240.844 217.949 240.844C218.521 240.844 219.07 241.071 219.474 241.475C219.878 241.88 220.105 242.428 220.105 243C220.105 243.572 219.878 244.12 219.474 244.524C219.07 244.929 218.521 245.156 217.949 245.156C217.378 245.156 216.829 244.929 216.425 244.524C216.021 244.12 215.793 243.572 215.793 243Z" fill="white"/>
<rect x="229" y="241.5" width="23" height="3" rx="1.5" fill="white"/>
</svg>
