<svg width="300" height="300" viewBox="0 0 300 300" fill="none" xmlns="http://www.w3.org/2000/svg">
<rect width="300" height="300" rx="16" fill="#EBEBEB"/>
<path d="M0 16C0 7.16344 7.16344 0 16 0H284C292.837 0 300 7.16344 300 16V40H0V16Z" fill="#3D3D3D"/>
<ellipse cx="27.0673" cy="20" rx="7.06728" ry="7" fill="#FF4F59"/>
<ellipse cx="50.6254" cy="20" rx="7.06728" ry="7" fill="#FCFEFF"/>
<ellipse cx="74.183" cy="20" rx="7.06728" ry="7" fill="#FFF507"/>
<rect x="16" y="56" width="268" height="228" rx="10" fill="white"/>
<mask id="path-7-inside-1_744_20089" fill="white">
<path d="M31 66H269V108H31V66Z"/>
</mask>
<path d="M269 107.4H31V108.6H269V107.4Z" fill="black" fill-opacity="0.24" mask="url(#path-7-inside-1_744_20089)"/>
<path d="M52.917 84.2507V79.209L57.9587 84.2507M46.5003 77.834C45.4828 77.834 44.667 78.6498 44.667 79.6673V94.334C44.667 94.8202 44.8601 95.2865 45.204 95.6303C45.5478 95.9742 46.0141 96.1673 46.5003 96.1673H57.5003C57.9866 96.1673 58.4529 95.9742 58.7967 95.6303C59.1405 95.2865 59.3337 94.8202 59.3337 94.334V83.334L53.8337 77.834H46.5003Z" fill="#7D7D7D"/>
<rect x="70" y="84" width="84" height="6" rx="3" fill="#7D7D7D"/>
<path fill-rule="evenodd" clip-rule="evenodd" d="M256.938 86.9996L257.508 86.7136V86.7108L257.504 86.7067L257.496 86.6902L257.467 86.6352L257.357 86.4372C257.223 86.2057 257.08 85.9791 256.929 85.7579C256.426 85.0195 255.848 84.3352 255.204 83.7161C253.655 82.2311 251.273 80.7158 248 80.7158C244.73 80.7158 242.346 82.2297 240.798 83.7161C240.154 84.3352 239.575 85.0195 239.072 85.7579C238.868 86.0591 238.679 86.3703 238.506 86.6902L238.497 86.7067L238.495 86.7108V86.7122C238.495 86.7122 238.493 86.7136 239.064 86.9996L238.493 86.7122C238.449 86.8013 238.426 86.8994 238.426 86.9989C238.426 87.0983 238.449 87.1964 238.493 87.2856L238.492 87.2883L238.496 87.2924L238.504 87.3089C238.547 87.3949 238.593 87.4792 238.642 87.5619C239.234 88.5621 239.958 89.4779 240.795 90.2844C242.345 91.7694 244.728 93.2819 248 93.2819C251.271 93.2819 253.655 91.7694 255.205 90.2831C255.848 89.6632 256.426 88.979 256.929 88.2412C257.122 87.9573 257.302 87.6646 257.467 87.3639L257.496 87.3089L257.504 87.2924L257.507 87.2883V87.2869C257.507 87.2869 257.508 87.2856 256.938 86.9996ZM256.938 86.9996L257.508 87.2869C257.552 87.1978 257.575 87.0997 257.575 87.0003C257.575 86.9008 257.552 86.8027 257.508 86.7136L256.938 86.9996ZM247.918 84.8876C247.357 84.8876 246.82 85.1101 246.424 85.5062C246.028 85.9022 245.806 86.4394 245.806 86.9996C245.806 87.5597 246.028 88.0969 246.424 88.493C246.82 88.8891 247.357 89.1116 247.918 89.1116C248.478 89.1116 249.015 88.8891 249.411 88.493C249.807 88.0969 250.03 87.5597 250.03 86.9996C250.03 86.4394 249.807 85.9022 249.411 85.5062C249.015 85.1101 248.478 84.8876 247.918 84.8876ZM244.532 86.9996C244.532 86.101 244.889 85.2393 245.525 84.6039C246.16 83.9685 247.022 83.6116 247.92 83.6116C248.819 83.6116 249.681 83.9685 250.316 84.6039C250.951 85.2393 251.308 86.101 251.308 86.9996C251.308 87.8981 250.951 88.7599 250.316 89.3952C249.681 90.0306 248.819 90.3876 247.92 90.3876C247.022 90.3876 246.16 90.0306 245.525 89.3952C244.889 88.7599 244.532 87.8981 244.532 86.9996Z" fill="#383838"/>
<mask id="path-12-inside-2_744_20089" fill="white">
<path d="M31 118H269V160H31V118Z"/>
</mask>
<path d="M269 159.4H31V160.6H269V159.4Z" fill="black" fill-opacity="0.24" mask="url(#path-12-inside-2_744_20089)"/>
<path d="M52.917 136.251V131.209L57.9587 136.251M46.5003 129.834C45.4828 129.834 44.667 130.65 44.667 131.667V146.334C44.667 146.82 44.8601 147.287 45.204 147.63C45.5478 147.974 46.0141 148.167 46.5003 148.167H57.5003C57.9866 148.167 58.4529 147.974 58.7967 147.63C59.1405 147.287 59.3337 146.82 59.3337 146.334V135.334L53.8337 129.834H46.5003Z" fill="#7D7D7D"/>
<rect x="70" y="136" width="84" height="6" rx="3" fill="#7D7D7D"/>
<path fill-rule="evenodd" clip-rule="evenodd" d="M256.938 139L257.508 138.714V138.711L257.504 138.707L257.496 138.69L257.467 138.635L257.357 138.437C257.223 138.206 257.08 137.979 256.929 137.758C256.426 137.02 255.848 136.335 255.204 135.716C253.655 134.231 251.273 132.716 248 132.716C244.73 132.716 242.346 134.23 240.798 135.716C240.154 136.335 239.575 137.02 239.072 137.758C238.868 138.059 238.679 138.37 238.506 138.69L238.497 138.707L238.495 138.711V138.712C238.495 138.712 238.493 138.714 239.064 139L238.493 138.712C238.449 138.801 238.426 138.899 238.426 138.999C238.426 139.098 238.449 139.196 238.493 139.286L238.492 139.288L238.496 139.292L238.504 139.309C238.547 139.395 238.593 139.479 238.642 139.562C239.234 140.562 239.958 141.478 240.795 142.284C242.345 143.769 244.728 145.282 248 145.282C251.271 145.282 253.655 143.769 255.205 142.283C255.848 141.663 256.426 140.979 256.929 140.241C257.122 139.957 257.302 139.665 257.467 139.364L257.496 139.309L257.504 139.292L257.507 139.288V139.287C257.507 139.287 257.508 139.286 256.938 139ZM256.938 139L257.508 139.287C257.552 139.198 257.575 139.1 257.575 139C257.575 138.901 257.552 138.803 257.508 138.714L256.938 139ZM247.918 136.888C247.357 136.888 246.82 137.11 246.424 137.506C246.028 137.902 245.806 138.439 245.806 139C245.806 139.56 246.028 140.097 246.424 140.493C246.82 140.889 247.357 141.112 247.918 141.112C248.478 141.112 249.015 140.889 249.411 140.493C249.807 140.097 250.03 139.56 250.03 139C250.03 138.439 249.807 137.902 249.411 137.506C249.015 137.11 248.478 136.888 247.918 136.888ZM244.532 139C244.532 138.101 244.889 137.239 245.525 136.604C246.16 135.969 247.022 135.612 247.92 135.612C248.819 135.612 249.681 135.969 250.316 136.604C250.951 137.239 251.308 138.101 251.308 139C251.308 139.898 250.951 140.76 250.316 141.395C249.681 142.031 248.819 142.388 247.92 142.388C247.022 142.388 246.16 142.031 245.525 141.395C244.889 140.76 244.532 139.898 244.532 139Z" fill="#383838"/>
<mask id="path-17-inside-3_744_20089" fill="white">
<path d="M31 170H269V212H31V170Z"/>
</mask>
<path d="M269 211.4H31V212.6H269V211.4Z" fill="black" fill-opacity="0.24" mask="url(#path-17-inside-3_744_20089)"/>
<path d="M52.917 188.251V183.209L57.9587 188.251M46.5003 181.834C45.4828 181.834 44.667 182.65 44.667 183.667V198.334C44.667 198.82 44.8601 199.287 45.204 199.63C45.5478 199.974 46.0141 200.167 46.5003 200.167H57.5003C57.9866 200.167 58.4529 199.974 58.7967 199.63C59.1405 199.287 59.3337 198.82 59.3337 198.334V187.334L53.8337 181.834H46.5003Z" fill="#7D7D7D"/>
<rect x="70" y="188" width="84" height="6" rx="3" fill="#7D7D7D"/>
<path fill-rule="evenodd" clip-rule="evenodd" d="M256.938 191L257.508 190.714V190.711L257.504 190.707L257.496 190.69L257.467 190.635L257.357 190.437C257.223 190.206 257.08 189.979 256.929 189.758C256.426 189.02 255.848 188.335 255.204 187.716C253.655 186.231 251.273 184.716 248 184.716C244.73 184.716 242.346 186.23 240.798 187.716C240.154 188.335 239.575 189.02 239.072 189.758C238.868 190.059 238.679 190.37 238.506 190.69L238.497 190.707L238.495 190.711V190.712C238.495 190.712 238.493 190.714 239.064 191L238.493 190.712C238.449 190.801 238.426 190.899 238.426 190.999C238.426 191.098 238.449 191.196 238.493 191.286L238.492 191.288L238.496 191.292L238.504 191.309C238.547 191.395 238.593 191.479 238.642 191.562C239.234 192.562 239.958 193.478 240.795 194.284C242.345 195.769 244.728 197.282 248 197.282C251.271 197.282 253.655 195.769 255.205 194.283C255.848 193.663 256.426 192.979 256.929 192.241C257.122 191.957 257.302 191.665 257.467 191.364L257.496 191.309L257.504 191.292L257.507 191.288V191.287C257.507 191.287 257.508 191.286 256.938 191ZM256.938 191L257.508 191.287C257.552 191.198 257.575 191.1 257.575 191C257.575 190.901 257.552 190.803 257.508 190.714L256.938 191ZM247.918 188.888C247.357 188.888 246.82 189.11 246.424 189.506C246.028 189.902 245.806 190.439 245.806 191C245.806 191.56 246.028 192.097 246.424 192.493C246.82 192.889 247.357 193.112 247.918 193.112C248.478 193.112 249.015 192.889 249.411 192.493C249.807 192.097 250.03 191.56 250.03 191C250.03 190.439 249.807 189.902 249.411 189.506C249.015 189.11 248.478 188.888 247.918 188.888ZM244.532 191C244.532 190.101 244.889 189.239 245.525 188.604C246.16 187.969 247.022 187.612 247.92 187.612C248.819 187.612 249.681 187.969 250.316 188.604C250.951 189.239 251.308 190.101 251.308 191C251.308 191.898 250.951 192.76 250.316 193.395C249.681 194.031 248.819 194.388 247.92 194.388C247.022 194.388 246.16 194.031 245.525 193.395C244.889 192.76 244.532 191.898 244.532 191Z" fill="#383838"/>
<mask id="path-22-inside-4_744_20089" fill="white">
<path d="M31 222H269V264H31V222Z"/>
</mask>
<path d="M269 263.4H31V264.6H269V263.4Z" fill="black" fill-opacity="0.24" mask="url(#path-22-inside-4_744_20089)"/>
<path d="M52.917 240.251V235.209L57.9587 240.251M46.5003 233.834C45.4828 233.834 44.667 234.65 44.667 235.667V250.334C44.667 250.82 44.8601 251.287 45.204 251.63C45.5478 251.974 46.0141 252.167 46.5003 252.167H57.5003C57.9866 252.167 58.4529 251.974 58.7967 251.63C59.1405 251.287 59.3337 250.82 59.3337 250.334V239.334L53.8337 233.834H46.5003Z" fill="#7D7D7D"/>
<rect x="70" y="240" width="84" height="6" rx="3" fill="#7D7D7D"/>
<path fill-rule="evenodd" clip-rule="evenodd" d="M256.938 243L257.508 242.714V242.711L257.504 242.707L257.496 242.69L257.467 242.635L257.357 242.437C257.223 242.206 257.08 241.979 256.929 241.758C256.426 241.02 255.848 240.335 255.204 239.716C253.655 238.231 251.273 236.716 248 236.716C244.73 236.716 242.346 238.23 240.798 239.716C240.154 240.335 239.575 241.02 239.072 241.758C238.868 242.059 238.679 242.37 238.506 242.69L238.497 242.707L238.495 242.711V242.712C238.495 242.712 238.493 242.714 239.064 243L238.493 242.712C238.449 242.801 238.426 242.899 238.426 242.999C238.426 243.098 238.449 243.196 238.493 243.286L238.492 243.288L238.496 243.292L238.504 243.309C238.547 243.395 238.593 243.479 238.642 243.562C239.234 244.562 239.958 245.478 240.795 246.284C242.345 247.769 244.728 249.282 248 249.282C251.271 249.282 253.655 247.769 255.205 246.283C255.848 245.663 256.426 244.979 256.929 244.241C257.122 243.957 257.302 243.665 257.467 243.364L257.496 243.309L257.504 243.292L257.507 243.288V243.287C257.507 243.287 257.508 243.286 256.938 243ZM256.938 243L257.508 243.287C257.552 243.198 257.575 243.1 257.575 243C257.575 242.901 257.552 242.803 257.508 242.714L256.938 243ZM247.918 240.888C247.357 240.888 246.82 241.11 246.424 241.506C246.028 241.902 245.806 242.439 245.806 243C245.806 243.56 246.028 244.097 246.424 244.493C246.82 244.889 247.357 245.112 247.918 245.112C248.478 245.112 249.015 244.889 249.411 244.493C249.807 244.097 250.03 243.56 250.03 243C250.03 242.439 249.807 241.902 249.411 241.506C249.015 241.11 248.478 240.888 247.918 240.888ZM244.532 243C244.532 242.101 244.889 241.239 245.525 240.604C246.16 239.969 247.022 239.612 247.92 239.612C248.819 239.612 249.681 239.969 250.316 240.604C250.951 241.239 251.308 242.101 251.308 243C251.308 243.898 250.951 244.76 250.316 245.395C249.681 246.031 248.819 246.388 247.92 246.388C247.022 246.388 246.16 246.031 245.525 245.395C244.889 244.76 244.532 243.898 244.532 243Z" fill="#383838"/>
</svg>
