<svg width="36" height="36" viewBox="0 0 36 36" fill="none" xmlns="http://www.w3.org/2000/svg">
<circle cx="18" cy="18" r="18" fill="#E4FFF0"/>
<path d="M10 13.4143C10 12.8143 10.3429 12.2143 11.0286 11.9571C13.0857 11.0143 15.0571 10.0714 17.1143 9.12857C17.5429 8.95714 17.8857 8.95714 18.3143 9.12857C20.3714 10.0714 22.4286 11.0143 24.4 11.9571C25.0857 12.2143 25.4286 12.8143 25.3429 13.5C25.2571 14.9571 25.2571 16.5 25.0857 17.9571C24.6571 21.1286 23.1143 23.7 20.5429 25.5857C19.8571 26.1 19 26.5286 18.2286 26.8714C17.8857 27.0429 17.5429 27.0429 17.2 26.8714C13.6 25.3286 11.2857 22.5857 10.4286 18.7286C10.2571 18.0429 10.2571 17.2714 10.1714 16.5857C10.1714 15.5571 10.0857 14.5286 10 13.4143ZM17.1143 18.9857C16.5143 18.3857 15.9143 17.8714 15.3143 17.2714C15.1429 17.1857 15.0571 17.1 14.8857 17.1C14.6286 17.0143 14.3714 17.1857 14.2857 17.4429C14.2 17.7 14.2 17.9571 14.4571 18.2143C15.2286 18.9 16 19.6714 16.7714 20.3571C17.1143 20.7 17.4571 20.6143 17.8 20.2714C18.4 19.5857 19.0857 18.9 19.6857 18.2143C20.2 17.7 20.7143 17.1 21.1429 16.5857C21.4 16.3286 21.4 15.9 21.0571 15.6429C20.8 15.3857 20.3714 15.4714 20.1143 15.7286C20.0286 15.8143 20.0286 15.9 19.9429 15.9C19 16.8429 18.0571 17.8714 17.1143 18.9857Z" fill="url(#paint0_linear_922_19683)"/>
<defs>
<linearGradient id="paint0_linear_922_19683" x1="11.5909" y1="9" x2="21.7699" y2="26.5184" gradientUnits="userSpaceOnUse">
<stop stop-color="#BBE897"/>
<stop offset="1" stop-color="#08CD87"/>
</linearGradient>
</defs>
</svg>
