<svg width="36" height="36" viewBox="0 0 36 36" fill="none" xmlns="http://www.w3.org/2000/svg">
<circle cx="18" cy="18" r="18" fill="#FFF2F0"/>
<g clip-path="url(#clip0_4758_11432)">
<path d="M20.0625 10C20.2125 10.0292 20.3625 10.0542 20.5083 10.0875C22.5041 10.5042 23.925 12.1333 24.0708 14.1583C24.1083 14.7042 24.0416 15.2375 23.8791 15.7583C23.8625 15.8125 23.85 15.8667 23.8416 15.8958C24.1208 15.9542 24.4041 15.9792 24.6583 16.0708C25.5458 16.3875 26.0583 17.3083 25.9041 18.2542C25.7583 19.1583 24.9458 19.8667 24.0166 19.875C22.8041 19.8875 21.5916 19.8792 20.375 19.8792C17.6208 19.8792 14.8666 19.8792 12.1083 19.8792C11.1666 19.8792 10.4083 19.3333 10.15 18.4792C9.76664 17.2083 10.7125 15.9375 12.0375 15.9375C12.0875 15.9375 12.1375 15.9375 12.1958 15.9375C11.6916 14.8458 11.8416 13.8792 12.7291 13.0708C13.325 12.5292 14.4208 12.2708 15.4333 12.9042C15.6291 12.5583 15.8 12.1917 16.0291 11.8708C16.75 10.8583 17.7291 10.2542 18.9541 10.0542C19.0125 10.0458 19.0666 10.0167 19.1208 10C19.4375 10 19.75 10 20.0625 10ZM20.3375 15.7167C20.3166 15.7208 20.3083 15.7208 20.3041 15.7208C20.2791 15.7167 20.2541 15.7083 20.2291 15.7C19.65 15.5667 19.1583 15.725 18.7875 16.175C18.4166 16.625 18.3583 17.1417 18.6083 17.6667C18.8625 18.1958 19.3083 18.4667 19.8958 18.4667C20.6583 18.4667 21.2708 17.8375 21.275 17.0625C21.2791 15.8375 21.275 14.6167 21.275 13.3917C21.275 12.9333 21.025 12.7375 20.5791 12.8542C19.4125 13.1583 18.25 13.4625 17.0833 13.7667C16.675 13.875 16.5875 13.9833 16.5875 14.4125C16.5875 14.85 16.5875 15.2833 16.5875 15.7292C16.5375 15.7167 16.5041 15.7083 16.4666 15.7C15.8875 15.5708 15.3958 15.7292 15.0291 16.1833C14.6583 16.6417 14.6041 17.1625 14.8666 17.6875C15.1291 18.2167 15.5791 18.475 16.1666 18.4667C16.9 18.4542 17.5125 17.8417 17.5208 17.1042C17.5291 16.3333 17.525 15.5625 17.525 14.7917C17.525 14.7375 17.525 14.6792 17.525 14.6208C18.4666 14.375 19.3958 14.1333 20.3333 13.8917C20.3375 14.5083 20.3375 15.1125 20.3375 15.7167Z" fill="url(#paint0_linear_4758_11432)"/>
<path d="M17.875 25.9997C17.7666 25.9122 17.65 25.8372 17.5541 25.7413C16.5625 24.708 15.5791 23.6705 14.5875 22.633C14.4625 22.5038 14.3791 22.3622 14.4125 22.1747C14.4541 21.9413 14.6416 21.7872 14.8875 21.7872C15.2833 21.783 15.6791 21.7872 16.0875 21.7872C16.0875 21.4663 16.0875 21.1538 16.0875 20.833C17.3458 20.833 18.5875 20.833 19.8375 20.833C19.8375 21.1497 19.8375 21.458 19.8375 21.7872C20.1208 21.7872 20.3958 21.7872 20.6666 21.7872C20.8083 21.7872 20.9458 21.7872 21.0875 21.7872C21.3 21.783 21.4625 21.8747 21.55 22.0705C21.6375 22.2663 21.5875 22.4455 21.4416 22.5997C20.9958 23.0663 20.55 23.533 20.1041 24.0038C19.5458 24.5872 18.9916 25.1747 18.4333 25.7538C18.3375 25.8538 18.2041 25.9205 18.0916 26.0038C18.0208 25.9997 17.9458 25.9997 17.875 25.9997Z" fill="url(#paint1_linear_4758_11432)"/>
<path d="M16.5916 17.0666C16.5916 17.3208 16.3791 17.5333 16.1249 17.5333C15.8666 17.5333 15.6499 17.3124 15.6541 17.0541C15.6583 16.7999 15.8749 16.5916 16.1291 16.5958C16.3833 16.5958 16.5916 16.8124 16.5916 17.0666Z" fill="url(#paint2_linear_4758_11432)"/>
<path d="M19.8792 16.5958C20.1333 16.5999 20.3417 16.8124 20.3417 17.0666C20.3417 17.3249 20.1208 17.5416 19.8625 17.5333C19.6083 17.5249 19.4 17.3083 19.4083 17.0541C19.4083 16.7999 19.625 16.5916 19.8792 16.5958Z" fill="url(#paint3_linear_4758_11432)"/>
</g>
<defs>
<linearGradient id="paint0_linear_4758_11432" x1="17.9977" y1="10" x2="17.9977" y2="19.8819" gradientUnits="userSpaceOnUse">
<stop stop-color="#FEA899"/>
<stop offset="1" stop-color="#FD6C87"/>
</linearGradient>
<linearGradient id="paint1_linear_4758_11432" x1="17.9991" y1="20.833" x2="17.9991" y2="26.0038" gradientUnits="userSpaceOnUse">
<stop stop-color="#FEA899"/>
<stop offset="1" stop-color="#FD6C87"/>
</linearGradient>
<linearGradient id="paint2_linear_4758_11432" x1="16.1228" y1="16.5957" x2="16.1228" y2="17.5333" gradientUnits="userSpaceOnUse">
<stop stop-color="#FEA899"/>
<stop offset="1" stop-color="#FD6C87"/>
</linearGradient>
<linearGradient id="paint3_linear_4758_11432" x1="19.8749" y1="16.5957" x2="19.8749" y2="17.5335" gradientUnits="userSpaceOnUse">
<stop stop-color="#FEA899"/>
<stop offset="1" stop-color="#FD6C87"/>
</linearGradient>
<clipPath id="clip0_4758_11432">
<rect width="16" height="16" fill="white" transform="translate(10 10)"/>
</clipPath>
</defs>
</svg>
