<svg width="300" height="300" viewBox="0 0 300 300" fill="none" xmlns="http://www.w3.org/2000/svg">
<rect width="300" height="300" rx="16" fill="#EBEBEB"/>
<path d="M0 16C0 7.16344 7.16344 0 16 0H284C292.837 0 300 7.16344 300 16V40H0V16Z" fill="#3D3D3D"/>
<ellipse cx="27.0673" cy="20" rx="7.06728" ry="7" fill="#FF4F59"/>
<ellipse cx="50.6254" cy="20" rx="7.06728" ry="7" fill="#FCFEFF"/>
<ellipse cx="74.183" cy="20" rx="7.06728" ry="7" fill="#FFF507"/>
<rect x="16" y="56" width="268" height="228" rx="10" fill="white"/>
<rect x="31.3" y="71.3" width="237.4" height="41.4" rx="5.7" stroke="black" stroke-opacity="0.24" stroke-width="0.6"/>
<path d="M52.917 89.2507V84.209L57.9587 89.2507M46.5003 82.834C45.4828 82.834 44.667 83.6498 44.667 84.6673V99.334C44.667 99.8202 44.8601 100.287 45.204 100.63C45.5478 100.974 46.0141 101.167 46.5003 101.167H57.5003C57.9866 101.167 58.4529 100.974 58.7967 100.63C59.1405 100.287 59.3337 99.8202 59.3337 99.334V88.334L53.8337 82.834H46.5003Z" fill="#7D7D7D"/>
<rect x="70" y="89" width="84" height="6" rx="3" fill="#7D7D7D"/>
<rect x="206" y="82" width="53" height="20" rx="4" fill="#3A83F3"/>
<mask id="mask0_744_20239" style="mask-type:luminance" maskUnits="userSpaceOnUse" x="213" y="86" width="12" height="12">
<path d="M225 98H213V86H225V98Z" fill="white"/>
</mask>
<g mask="url(#mask0_744_20239)">
<path d="M215.4 88.4815H222.6V91.7296H224.143V87.3988C224.143 87.2552 224.089 87.1175 223.993 87.016C223.896 86.9145 223.765 86.8574 223.629 86.8574H214.372C214.235 86.8574 214.105 86.9145 214.009 87.016C213.912 87.1175 213.857 87.2552 213.857 87.3988V91.7296H215.4V88.4815ZM220.029 93.3536V90.1055H217.972V93.3536H215.773C215.635 93.3536 215.567 93.5286 215.664 93.6309L219 97.1431L222.337 93.6309C222.434 93.5286 222.365 93.3536 222.228 93.3536H220.029Z" fill="white"/>
</g>
<rect x="229" y="90.5" width="23" height="3" rx="1.5" fill="white"/>
<rect x="31.3" y="123.3" width="237.4" height="41.4" rx="5.7" stroke="black" stroke-opacity="0.24" stroke-width="0.6"/>
<path d="M52.917 141.251V136.209L57.9587 141.251M46.5003 134.834C45.4828 134.834 44.667 135.65 44.667 136.667V151.334C44.667 151.82 44.8601 152.287 45.204 152.63C45.5478 152.974 46.0141 153.167 46.5003 153.167H57.5003C57.9866 153.167 58.4529 152.974 58.7967 152.63C59.1405 152.287 59.3337 151.82 59.3337 151.334V140.334L53.8337 134.834H46.5003Z" fill="#7D7D7D"/>
<rect x="70" y="141" width="84" height="6" rx="3" fill="#7D7D7D"/>
<rect x="206" y="134" width="53" height="20" rx="4" fill="#3A83F3"/>
<mask id="mask1_744_20239" style="mask-type:luminance" maskUnits="userSpaceOnUse" x="213" y="138" width="12" height="12">
<path d="M225 150H213V138H225V150Z" fill="white"/>
</mask>
<g mask="url(#mask1_744_20239)">
<path d="M215.4 140.481H222.6V143.73H224.143V139.399C224.143 139.255 224.089 139.118 223.993 139.016C223.896 138.915 223.765 138.857 223.629 138.857H214.372C214.235 138.857 214.105 138.915 214.009 139.016C213.912 139.118 213.857 139.255 213.857 139.399V143.73H215.4V140.481ZM220.029 145.354V142.106H217.972V145.354H215.773C215.635 145.354 215.567 145.529 215.664 145.631L219 149.143L222.337 145.631C222.434 145.529 222.365 145.354 222.228 145.354H220.029Z" fill="white"/>
</g>
<rect x="229" y="142.5" width="23" height="3" rx="1.5" fill="white"/>
<rect x="31.3" y="175.3" width="237.4" height="41.4" rx="5.7" stroke="black" stroke-opacity="0.24" stroke-width="0.6"/>
<path d="M52.917 193.251V188.209L57.9587 193.251M46.5003 186.834C45.4828 186.834 44.667 187.65 44.667 188.667V203.334C44.667 203.82 44.8601 204.287 45.204 204.63C45.5478 204.974 46.0141 205.167 46.5003 205.167H57.5003C57.9866 205.167 58.4529 204.974 58.7967 204.63C59.1405 204.287 59.3337 203.82 59.3337 203.334V192.334L53.8337 186.834H46.5003Z" fill="#7D7D7D"/>
<rect x="70" y="193" width="84" height="6" rx="3" fill="#7D7D7D"/>
<rect x="206" y="186" width="53" height="20" rx="4" fill="#3A83F3"/>
<mask id="mask2_744_20239" style="mask-type:luminance" maskUnits="userSpaceOnUse" x="213" y="190" width="12" height="12">
<path d="M225 202H213V190H225V202Z" fill="white"/>
</mask>
<g mask="url(#mask2_744_20239)">
<path d="M215.4 192.481H222.6V195.73H224.143V191.399C224.143 191.255 224.089 191.118 223.993 191.016C223.896 190.915 223.765 190.857 223.629 190.857H214.372C214.235 190.857 214.105 190.915 214.009 191.016C213.912 191.118 213.857 191.255 213.857 191.399V195.73H215.4V192.481ZM220.029 197.354V194.106H217.972V197.354H215.773C215.635 197.354 215.567 197.529 215.664 197.631L219 201.143L222.337 197.631C222.434 197.529 222.365 197.354 222.228 197.354H220.029Z" fill="white"/>
</g>
<rect x="229" y="194.5" width="23" height="3" rx="1.5" fill="white"/>
<rect x="31.3" y="227.3" width="237.4" height="41.4" rx="5.7" stroke="black" stroke-opacity="0.24" stroke-width="0.6"/>
<path d="M52.917 245.251V240.209L57.9587 245.251M46.5003 238.834C45.4828 238.834 44.667 239.65 44.667 240.667V255.334C44.667 255.82 44.8601 256.287 45.204 256.63C45.5478 256.974 46.0141 257.167 46.5003 257.167H57.5003C57.9866 257.167 58.4529 256.974 58.7967 256.63C59.1405 256.287 59.3337 255.82 59.3337 255.334V244.334L53.8337 238.834H46.5003Z" fill="#7D7D7D"/>
<rect x="70" y="245" width="84" height="6" rx="3" fill="#7D7D7D"/>
<rect x="206" y="238" width="53" height="20" rx="4" fill="#3A83F3"/>
<mask id="mask3_744_20239" style="mask-type:luminance" maskUnits="userSpaceOnUse" x="213" y="242" width="12" height="12">
<path d="M225 254H213V242H225V254Z" fill="white"/>
</mask>
<g mask="url(#mask3_744_20239)">
<path d="M215.4 244.481H222.6V247.73H224.143V243.399C224.143 243.255 224.089 243.118 223.993 243.016C223.896 242.915 223.765 242.857 223.629 242.857H214.372C214.235 242.857 214.105 242.915 214.009 243.016C213.912 243.118 213.857 243.255 213.857 243.399V247.73H215.4V244.481ZM220.029 249.354V246.106H217.972V249.354H215.773C215.635 249.354 215.567 249.529 215.664 249.631L219 253.143L222.337 249.631C222.434 249.529 222.365 249.354 222.228 249.354H220.029Z" fill="white"/>
</g>
<rect x="229" y="246.5" width="23" height="3" rx="1.5" fill="white"/>
</svg>
