<svg width="300" height="300" viewBox="0 0 300 300" fill="none" xmlns="http://www.w3.org/2000/svg">
<rect width="300" height="300" rx="16" fill="#EBEBEB"/>
<path d="M0 16C0 7.16344 7.16344 0 16 0H284C292.837 0 300 7.16344 300 16V40H0V16Z" fill="#3D3D3D"/>
<ellipse cx="27.0673" cy="20" rx="7.06728" ry="7" fill="#FF4F59"/>
<ellipse cx="50.6254" cy="20" rx="7.06728" ry="7" fill="#FCFEFF"/>
<ellipse cx="74.183" cy="20" rx="7.06728" ry="7" fill="#FFF507"/>
<rect x="16" y="56" width="268" height="228" rx="10" fill="white"/>
<mask id="path-7-inside-1_744_20496" fill="white">
<path d="M31 66H269V108H31V66Z"/>
</mask>
<path d="M269 107.4H31V108.6H269V107.4Z" fill="black" fill-opacity="0.24" mask="url(#path-7-inside-1_744_20496)"/>
<path d="M52.917 84.2507V79.209L57.9587 84.2507M46.5003 77.834C45.4828 77.834 44.667 78.6498 44.667 79.6673V94.334C44.667 94.8202 44.8601 95.2865 45.204 95.6303C45.5478 95.9742 46.0141 96.1673 46.5003 96.1673H57.5003C57.9866 96.1673 58.4529 95.9742 58.7967 95.6303C59.1405 95.2865 59.3337 94.8202 59.3337 94.334V83.334L53.8337 77.834H46.5003Z" fill="#7D7D7D"/>
<rect x="70" y="84" width="84" height="6" rx="3" fill="#7D7D7D"/>
<rect x="206" y="77" width="53" height="20" rx="4" fill="#3A83F3"/>
<mask id="mask0_744_20496" style="mask-type:luminance" maskUnits="userSpaceOnUse" x="213" y="81" width="12" height="12">
<path d="M225 93H213V81H225V93Z" fill="white"/>
</mask>
<g mask="url(#mask0_744_20496)">
<path d="M215.4 83.4815H222.6V86.7296H224.143V82.3988C224.143 82.2552 224.089 82.1175 223.993 82.016C223.896 81.9145 223.765 81.8574 223.629 81.8574H214.372C214.235 81.8574 214.105 81.9145 214.009 82.016C213.912 82.1175 213.857 82.2552 213.857 82.3988V86.7296H215.4V83.4815ZM220.029 88.3536V85.1055H217.972V88.3536H215.773C215.635 88.3536 215.567 88.5286 215.664 88.6309L219 92.1431L222.337 88.6309C222.434 88.5286 222.365 88.3536 222.228 88.3536H220.029Z" fill="white"/>
</g>
<rect x="229" y="85.5" width="23" height="3" rx="1.5" fill="white"/>
<mask id="path-15-inside-2_744_20496" fill="white">
<path d="M31 118H269V160H31V118Z"/>
</mask>
<path d="M269 159.4H31V160.6H269V159.4Z" fill="black" fill-opacity="0.24" mask="url(#path-15-inside-2_744_20496)"/>
<path d="M52.917 136.251V131.209L57.9587 136.251M46.5003 129.834C45.4828 129.834 44.667 130.65 44.667 131.667V146.334C44.667 146.82 44.8601 147.287 45.204 147.63C45.5478 147.974 46.0141 148.167 46.5003 148.167H57.5003C57.9866 148.167 58.4529 147.974 58.7967 147.63C59.1405 147.287 59.3337 146.82 59.3337 146.334V135.334L53.8337 129.834H46.5003Z" fill="#7D7D7D"/>
<rect x="70" y="136" width="84" height="6" rx="3" fill="#7D7D7D"/>
<rect x="206" y="129" width="53" height="20" rx="4" fill="#3A83F3"/>
<mask id="mask1_744_20496" style="mask-type:luminance" maskUnits="userSpaceOnUse" x="213" y="133" width="12" height="12">
<path d="M225 145H213V133H225V145Z" fill="white"/>
</mask>
<g mask="url(#mask1_744_20496)">
<path d="M215.4 135.481H222.6V138.73H224.143V134.399C224.143 134.255 224.089 134.118 223.993 134.016C223.896 133.915 223.765 133.857 223.629 133.857H214.372C214.235 133.857 214.105 133.915 214.009 134.016C213.912 134.118 213.857 134.255 213.857 134.399V138.73H215.4V135.481ZM220.029 140.354V137.106H217.972V140.354H215.773C215.635 140.354 215.567 140.529 215.664 140.631L219 144.143L222.337 140.631C222.434 140.529 222.365 140.354 222.228 140.354H220.029Z" fill="white"/>
</g>
<rect x="229" y="137.5" width="23" height="3" rx="1.5" fill="white"/>
<mask id="path-23-inside-3_744_20496" fill="white">
<path d="M31 170H269V212H31V170Z"/>
</mask>
<path d="M269 211.4H31V212.6H269V211.4Z" fill="black" fill-opacity="0.24" mask="url(#path-23-inside-3_744_20496)"/>
<path d="M52.917 188.251V183.209L57.9587 188.251M46.5003 181.834C45.4828 181.834 44.667 182.65 44.667 183.667V198.334C44.667 198.82 44.8601 199.287 45.204 199.63C45.5478 199.974 46.0141 200.167 46.5003 200.167H57.5003C57.9866 200.167 58.4529 199.974 58.7967 199.63C59.1405 199.287 59.3337 198.82 59.3337 198.334V187.334L53.8337 181.834H46.5003Z" fill="#7D7D7D"/>
<rect x="70" y="188" width="84" height="6" rx="3" fill="#7D7D7D"/>
<rect x="206" y="181" width="53" height="20" rx="4" fill="#3A83F3"/>
<mask id="mask2_744_20496" style="mask-type:luminance" maskUnits="userSpaceOnUse" x="213" y="185" width="12" height="12">
<path d="M225 197H213V185H225V197Z" fill="white"/>
</mask>
<g mask="url(#mask2_744_20496)">
<path d="M215.4 187.481H222.6V190.73H224.143V186.399C224.143 186.255 224.089 186.118 223.993 186.016C223.896 185.915 223.765 185.857 223.629 185.857H214.372C214.235 185.857 214.105 185.915 214.009 186.016C213.912 186.118 213.857 186.255 213.857 186.399V190.73H215.4V187.481ZM220.029 192.354V189.106H217.972V192.354H215.773C215.635 192.354 215.567 192.529 215.664 192.631L219 196.143L222.337 192.631C222.434 192.529 222.365 192.354 222.228 192.354H220.029Z" fill="white"/>
</g>
<rect x="229" y="189.5" width="23" height="3" rx="1.5" fill="white"/>
<mask id="path-31-inside-4_744_20496" fill="white">
<path d="M31 222H269V264H31V222Z"/>
</mask>
<path d="M269 263.4H31V264.6H269V263.4Z" fill="black" fill-opacity="0.24" mask="url(#path-31-inside-4_744_20496)"/>
<path d="M52.917 240.251V235.209L57.9587 240.251M46.5003 233.834C45.4828 233.834 44.667 234.65 44.667 235.667V250.334C44.667 250.82 44.8601 251.287 45.204 251.63C45.5478 251.974 46.0141 252.167 46.5003 252.167H57.5003C57.9866 252.167 58.4529 251.974 58.7967 251.63C59.1405 251.287 59.3337 250.82 59.3337 250.334V239.334L53.8337 233.834H46.5003Z" fill="#7D7D7D"/>
<rect x="70" y="240" width="84" height="6" rx="3" fill="#7D7D7D"/>
<rect x="206" y="233" width="53" height="20" rx="4" fill="#3A83F3"/>
<mask id="mask3_744_20496" style="mask-type:luminance" maskUnits="userSpaceOnUse" x="213" y="237" width="12" height="12">
<path d="M225 249H213V237H225V249Z" fill="white"/>
</mask>
<g mask="url(#mask3_744_20496)">
<path d="M215.4 239.481H222.6V242.73H224.143V238.399C224.143 238.255 224.089 238.118 223.993 238.016C223.896 237.915 223.765 237.857 223.629 237.857H214.372C214.235 237.857 214.105 237.915 214.009 238.016C213.912 238.118 213.857 238.255 213.857 238.399V242.73H215.4V239.481ZM220.029 244.354V241.106H217.972V244.354H215.773C215.635 244.354 215.567 244.529 215.664 244.631L219 248.143L222.337 244.631C222.434 244.529 222.365 244.354 222.228 244.354H220.029Z" fill="white"/>
</g>
<rect x="229" y="241.5" width="23" height="3" rx="1.5" fill="white"/>
</svg>
