<svg width="300" height="300" viewBox="0 0 300 300" fill="none" xmlns="http://www.w3.org/2000/svg">
<rect width="300" height="300" rx="16" fill="#EBEBEB"/>
<path d="M0 16C0 7.16344 7.16344 0 16 0H284C292.837 0 300 7.16344 300 16V40H0V16Z" fill="#3D3D3D"/>
<ellipse cx="27.0673" cy="20" rx="7.06728" ry="7" fill="#FF4F59"/>
<ellipse cx="50.6254" cy="20" rx="7.06728" ry="7" fill="#FCFEFF"/>
<ellipse cx="74.183" cy="20" rx="7.06728" ry="7" fill="#FFF507"/>
<rect x="16" y="56" width="268" height="228" rx="10" fill="white"/>
<mask id="path-7-inside-1_744_20637" fill="white">
<path d="M31 66H269V108H31V66Z"/>
</mask>
<path d="M269 107.4H31V108.6H269V107.4Z" fill="black" fill-opacity="0.24" mask="url(#path-7-inside-1_744_20637)"/>
<path d="M52.917 84.2507V79.209L57.9587 84.2507M46.5003 77.834C45.4828 77.834 44.667 78.6498 44.667 79.6673V94.334C44.667 94.8202 44.8601 95.2865 45.204 95.6303C45.5478 95.9742 46.0141 96.1673 46.5003 96.1673H57.5003C57.9866 96.1673 58.4529 95.9742 58.7967 95.6303C59.1405 95.2865 59.3337 94.8202 59.3337 94.334V83.334L53.8337 77.834H46.5003Z" fill="#7D7D7D"/>
<rect x="70" y="84" width="84" height="6" rx="3" fill="#7D7D7D"/>
<mask id="mask0_744_20637" style="mask-type:luminance" maskUnits="userSpaceOnUse" x="237" y="77" width="20" height="20">
<path d="M257 97H237V77H257V97Z" fill="white"/>
</mask>
<g mask="url(#mask0_744_20637)">
<path d="M241.001 81.1364H253.001V86.55H255.572V79.332C255.572 79.0927 255.482 78.8632 255.321 78.694C255.161 78.5248 254.942 78.4297 254.715 78.4297H239.287C239.059 78.4297 238.842 78.5248 238.681 78.694C238.52 78.8632 238.429 79.0927 238.429 79.332V86.55H241.001V81.1364ZM248.714 89.2567V83.8432H245.287V89.2567H241.621C241.393 89.2567 241.278 89.5484 241.44 89.7188L247.001 95.5725L252.561 89.7188C252.723 89.5484 252.609 89.2567 252.38 89.2567H248.714Z" fill="#383838"/>
</g>
<mask id="path-13-inside-2_744_20637" fill="white">
<path d="M31 118H269V160H31V118Z"/>
</mask>
<path d="M269 159.4H31V160.6H269V159.4Z" fill="black" fill-opacity="0.24" mask="url(#path-13-inside-2_744_20637)"/>
<path d="M52.917 136.251V131.209L57.9587 136.251M46.5003 129.834C45.4828 129.834 44.667 130.65 44.667 131.667V146.334C44.667 146.82 44.8601 147.287 45.204 147.63C45.5478 147.974 46.0141 148.167 46.5003 148.167H57.5003C57.9866 148.167 58.4529 147.974 58.7967 147.63C59.1405 147.287 59.3337 146.82 59.3337 146.334V135.334L53.8337 129.834H46.5003Z" fill="#7D7D7D"/>
<rect x="70" y="136" width="84" height="6" rx="3" fill="#7D7D7D"/>
<mask id="mask1_744_20637" style="mask-type:luminance" maskUnits="userSpaceOnUse" x="237" y="129" width="20" height="20">
<path d="M257 149H237V129H257V149Z" fill="white"/>
</mask>
<g mask="url(#mask1_744_20637)">
<path d="M241.001 133.136H253.001V138.55H255.572V131.332C255.572 131.093 255.482 130.863 255.321 130.694C255.161 130.525 254.942 130.43 254.715 130.43H239.287C239.059 130.43 238.842 130.525 238.681 130.694C238.52 130.863 238.429 131.093 238.429 131.332V138.55H241.001V133.136ZM248.714 141.257V135.843H245.287V141.257H241.621C241.393 141.257 241.278 141.548 241.44 141.719L247.001 147.573L252.561 141.719C252.723 141.548 252.609 141.257 252.38 141.257H248.714Z" fill="#383838"/>
</g>
<mask id="path-19-inside-3_744_20637" fill="white">
<path d="M31 170H269V212H31V170Z"/>
</mask>
<path d="M269 211.4H31V212.6H269V211.4Z" fill="black" fill-opacity="0.24" mask="url(#path-19-inside-3_744_20637)"/>
<path d="M52.917 188.251V183.209L57.9587 188.251M46.5003 181.834C45.4828 181.834 44.667 182.65 44.667 183.667V198.334C44.667 198.82 44.8601 199.287 45.204 199.63C45.5478 199.974 46.0141 200.167 46.5003 200.167H57.5003C57.9866 200.167 58.4529 199.974 58.7967 199.63C59.1405 199.287 59.3337 198.82 59.3337 198.334V187.334L53.8337 181.834H46.5003Z" fill="#7D7D7D"/>
<rect x="70" y="188" width="84" height="6" rx="3" fill="#7D7D7D"/>
<mask id="mask2_744_20637" style="mask-type:luminance" maskUnits="userSpaceOnUse" x="237" y="181" width="20" height="20">
<path d="M257 201H237V181H257V201Z" fill="white"/>
</mask>
<g mask="url(#mask2_744_20637)">
<path d="M241.001 185.136H253.001V190.55H255.572V183.332C255.572 183.093 255.482 182.863 255.321 182.694C255.161 182.525 254.942 182.43 254.715 182.43H239.287C239.059 182.43 238.842 182.525 238.681 182.694C238.52 182.863 238.429 183.093 238.429 183.332V190.55H241.001V185.136ZM248.714 193.257V187.843H245.287V193.257H241.621C241.393 193.257 241.278 193.548 241.44 193.719L247.001 199.573L252.561 193.719C252.723 193.548 252.609 193.257 252.38 193.257H248.714Z" fill="#383838"/>
</g>
<mask id="path-25-inside-4_744_20637" fill="white">
<path d="M31 222H269V264H31V222Z"/>
</mask>
<path d="M269 263.4H31V264.6H269V263.4Z" fill="black" fill-opacity="0.24" mask="url(#path-25-inside-4_744_20637)"/>
<path d="M52.917 240.251V235.209L57.9587 240.251M46.5003 233.834C45.4828 233.834 44.667 234.65 44.667 235.667V250.334C44.667 250.82 44.8601 251.287 45.204 251.63C45.5478 251.974 46.0141 252.167 46.5003 252.167H57.5003C57.9866 252.167 58.4529 251.974 58.7967 251.63C59.1405 251.287 59.3337 250.82 59.3337 250.334V239.334L53.8337 233.834H46.5003Z" fill="#7D7D7D"/>
<rect x="70" y="240" width="84" height="6" rx="3" fill="#7D7D7D"/>
<mask id="mask3_744_20637" style="mask-type:luminance" maskUnits="userSpaceOnUse" x="237" y="233" width="20" height="20">
<path d="M257 253H237V233H257V253Z" fill="white"/>
</mask>
<g mask="url(#mask3_744_20637)">
<path d="M241.001 237.136H253.001V242.55H255.572V235.332C255.572 235.093 255.482 234.863 255.321 234.694C255.161 234.525 254.942 234.43 254.715 234.43H239.287C239.059 234.43 238.842 234.525 238.681 234.694C238.52 234.863 238.429 235.093 238.429 235.332V242.55H241.001V237.136ZM248.714 245.257V239.843H245.287V245.257H241.621C241.393 245.257 241.278 245.548 241.44 245.719L247.001 251.573L252.561 245.719C252.723 245.548 252.609 245.257 252.38 245.257H248.714Z" fill="#383838"/>
</g>
</svg>
