<svg width="300" height="300" viewBox="0 0 300 300" fill="none" xmlns="http://www.w3.org/2000/svg">
<rect width="300" height="300" rx="16" fill="#EBEBEB"/>
<path d="M0 16C0 7.16344 7.16344 0 16 0H284C292.837 0 300 7.16344 300 16V40H0V16Z" fill="#3D3D3D"/>
<ellipse cx="27.0673" cy="20" rx="7.06728" ry="7" fill="#FF4F59"/>
<ellipse cx="50.6254" cy="20" rx="7.06728" ry="7" fill="#FCFEFF"/>
<ellipse cx="74.183" cy="20" rx="7.06728" ry="7" fill="#FFF507"/>
<rect x="16" y="56" width="268" height="228" rx="10" fill="white"/>
<rect x="31.3" y="71.3" width="237.4" height="41.4" rx="5.7" stroke="black" stroke-opacity="0.24" stroke-width="0.6"/>
<path d="M52.917 89.2507V84.209L57.9587 89.2507M46.5003 82.834C45.4828 82.834 44.667 83.6498 44.667 84.6673V99.334C44.667 99.8202 44.8601 100.287 45.204 100.63C45.5478 100.974 46.0141 101.167 46.5003 101.167H57.5003C57.9866 101.167 58.4529 100.974 58.7967 100.63C59.1405 100.287 59.3337 99.8202 59.3337 99.334V88.334L53.8337 82.834H46.5003Z" fill="#7D7D7D"/>
<rect x="70" y="89" width="84" height="6" rx="3" fill="#7D7D7D"/>
<path fill-rule="evenodd" clip-rule="evenodd" d="M256.938 91.9996L257.508 91.7136V91.7108L257.504 91.7067L257.496 91.6902L257.467 91.6352L257.357 91.4372C257.223 91.2057 257.08 90.9791 256.929 90.7579C256.426 90.0195 255.848 89.3352 255.204 88.7161C253.655 87.2311 251.273 85.7158 248 85.7158C244.73 85.7158 242.346 87.2297 240.798 88.7161C240.154 89.3352 239.575 90.0195 239.072 90.7579C238.868 91.0591 238.679 91.3703 238.506 91.6902L238.497 91.7067L238.495 91.7108V91.7122C238.495 91.7122 238.493 91.7136 239.064 91.9996L238.493 91.7122C238.449 91.8013 238.426 91.8994 238.426 91.9989C238.426 92.0983 238.449 92.1964 238.493 92.2856L238.492 92.2883L238.496 92.2924L238.504 92.3089C238.547 92.3949 238.593 92.4792 238.642 92.5619C239.234 93.5621 239.958 94.4779 240.795 95.2844C242.345 96.7694 244.728 98.2819 248 98.2819C251.271 98.2819 253.655 96.7694 255.205 95.2831C255.848 94.6632 256.426 93.979 256.929 93.2412C257.122 92.9573 257.302 92.6646 257.467 92.3639L257.496 92.3089L257.504 92.2924L257.507 92.2883V92.2869C257.507 92.2869 257.508 92.2856 256.938 91.9996ZM256.938 91.9996L257.508 92.2869C257.552 92.1978 257.575 92.0997 257.575 92.0003C257.575 91.9008 257.552 91.8027 257.508 91.7136L256.938 91.9996ZM247.918 89.8876C247.357 89.8876 246.82 90.1101 246.424 90.5062C246.028 90.9022 245.806 91.4394 245.806 91.9996C245.806 92.5597 246.028 93.0969 246.424 93.493C246.82 93.8891 247.357 94.1116 247.918 94.1116C248.478 94.1116 249.015 93.8891 249.411 93.493C249.807 93.0969 250.03 92.5597 250.03 91.9996C250.03 91.4394 249.807 90.9022 249.411 90.5062C249.015 90.1101 248.478 89.8876 247.918 89.8876ZM244.532 91.9996C244.532 91.101 244.889 90.2393 245.525 89.6039C246.16 88.9685 247.022 88.6116 247.92 88.6116C248.819 88.6116 249.681 88.9685 250.316 89.6039C250.951 90.2393 251.308 91.101 251.308 91.9996C251.308 92.8981 250.951 93.7599 250.316 94.3952C249.681 95.0306 248.819 95.3876 247.92 95.3876C247.022 95.3876 246.16 95.0306 245.525 94.3952C244.889 93.7599 244.532 92.8981 244.532 91.9996Z" fill="#383838"/>
<rect x="31.3" y="123.3" width="237.4" height="41.4" rx="5.7" stroke="black" stroke-opacity="0.24" stroke-width="0.6"/>
<path d="M52.917 141.251V136.209L57.9587 141.251M46.5003 134.834C45.4828 134.834 44.667 135.65 44.667 136.667V151.334C44.667 151.82 44.8601 152.287 45.204 152.63C45.5478 152.974 46.0141 153.167 46.5003 153.167H57.5003C57.9866 153.167 58.4529 152.974 58.7967 152.63C59.1405 152.287 59.3337 151.82 59.3337 151.334V140.334L53.8337 134.834H46.5003Z" fill="#7D7D7D"/>
<rect x="70" y="141" width="84" height="6" rx="3" fill="#7D7D7D"/>
<path fill-rule="evenodd" clip-rule="evenodd" d="M256.938 144L257.508 143.714V143.711L257.504 143.707L257.496 143.69L257.467 143.635L257.357 143.437C257.223 143.206 257.08 142.979 256.929 142.758C256.426 142.02 255.848 141.335 255.204 140.716C253.655 139.231 251.273 137.716 248 137.716C244.73 137.716 242.346 139.23 240.798 140.716C240.154 141.335 239.575 142.02 239.072 142.758C238.868 143.059 238.679 143.37 238.506 143.69L238.497 143.707L238.495 143.711V143.712C238.495 143.712 238.493 143.714 239.064 144L238.493 143.712C238.449 143.801 238.426 143.899 238.426 143.999C238.426 144.098 238.449 144.196 238.493 144.286L238.492 144.288L238.496 144.292L238.504 144.309C238.547 144.395 238.593 144.479 238.642 144.562C239.234 145.562 239.958 146.478 240.795 147.284C242.345 148.769 244.728 150.282 248 150.282C251.271 150.282 253.655 148.769 255.205 147.283C255.848 146.663 256.426 145.979 256.929 145.241C257.122 144.957 257.302 144.665 257.467 144.364L257.496 144.309L257.504 144.292L257.507 144.288V144.287C257.507 144.287 257.508 144.286 256.938 144ZM256.938 144L257.508 144.287C257.552 144.198 257.575 144.1 257.575 144C257.575 143.901 257.552 143.803 257.508 143.714L256.938 144ZM247.918 141.888C247.357 141.888 246.82 142.11 246.424 142.506C246.028 142.902 245.806 143.439 245.806 144C245.806 144.56 246.028 145.097 246.424 145.493C246.82 145.889 247.357 146.112 247.918 146.112C248.478 146.112 249.015 145.889 249.411 145.493C249.807 145.097 250.03 144.56 250.03 144C250.03 143.439 249.807 142.902 249.411 142.506C249.015 142.11 248.478 141.888 247.918 141.888ZM244.532 144C244.532 143.101 244.889 142.239 245.525 141.604C246.16 140.969 247.022 140.612 247.92 140.612C248.819 140.612 249.681 140.969 250.316 141.604C250.951 142.239 251.308 143.101 251.308 144C251.308 144.898 250.951 145.76 250.316 146.395C249.681 147.031 248.819 147.388 247.92 147.388C247.022 147.388 246.16 147.031 245.525 146.395C244.889 145.76 244.532 144.898 244.532 144Z" fill="#383838"/>
<rect x="31.3" y="175.3" width="237.4" height="41.4" rx="5.7" stroke="black" stroke-opacity="0.24" stroke-width="0.6"/>
<path d="M52.917 193.251V188.209L57.9587 193.251M46.5003 186.834C45.4828 186.834 44.667 187.65 44.667 188.667V203.334C44.667 203.82 44.8601 204.287 45.204 204.63C45.5478 204.974 46.0141 205.167 46.5003 205.167H57.5003C57.9866 205.167 58.4529 204.974 58.7967 204.63C59.1405 204.287 59.3337 203.82 59.3337 203.334V192.334L53.8337 186.834H46.5003Z" fill="#7D7D7D"/>
<rect x="70" y="193" width="84" height="6" rx="3" fill="#7D7D7D"/>
<path fill-rule="evenodd" clip-rule="evenodd" d="M256.938 196L257.508 195.714V195.711L257.504 195.707L257.496 195.69L257.467 195.635L257.357 195.437C257.223 195.206 257.08 194.979 256.929 194.758C256.426 194.02 255.848 193.335 255.204 192.716C253.655 191.231 251.273 189.716 248 189.716C244.73 189.716 242.346 191.23 240.798 192.716C240.154 193.335 239.575 194.02 239.072 194.758C238.868 195.059 238.679 195.37 238.506 195.69L238.497 195.707L238.495 195.711V195.712C238.495 195.712 238.493 195.714 239.064 196L238.493 195.712C238.449 195.801 238.426 195.899 238.426 195.999C238.426 196.098 238.449 196.196 238.493 196.286L238.492 196.288L238.496 196.292L238.504 196.309C238.547 196.395 238.593 196.479 238.642 196.562C239.234 197.562 239.958 198.478 240.795 199.284C242.345 200.769 244.728 202.282 248 202.282C251.271 202.282 253.655 200.769 255.205 199.283C255.848 198.663 256.426 197.979 256.929 197.241C257.122 196.957 257.302 196.665 257.467 196.364L257.496 196.309L257.504 196.292L257.507 196.288V196.287C257.507 196.287 257.508 196.286 256.938 196ZM256.938 196L257.508 196.287C257.552 196.198 257.575 196.1 257.575 196C257.575 195.901 257.552 195.803 257.508 195.714L256.938 196ZM247.918 193.888C247.357 193.888 246.82 194.11 246.424 194.506C246.028 194.902 245.806 195.439 245.806 196C245.806 196.56 246.028 197.097 246.424 197.493C246.82 197.889 247.357 198.112 247.918 198.112C248.478 198.112 249.015 197.889 249.411 197.493C249.807 197.097 250.03 196.56 250.03 196C250.03 195.439 249.807 194.902 249.411 194.506C249.015 194.11 248.478 193.888 247.918 193.888ZM244.532 196C244.532 195.101 244.889 194.239 245.525 193.604C246.16 192.969 247.022 192.612 247.92 192.612C248.819 192.612 249.681 192.969 250.316 193.604C250.951 194.239 251.308 195.101 251.308 196C251.308 196.898 250.951 197.76 250.316 198.395C249.681 199.031 248.819 199.388 247.92 199.388C247.022 199.388 246.16 199.031 245.525 198.395C244.889 197.76 244.532 196.898 244.532 196Z" fill="#383838"/>
<rect x="31.3" y="227.3" width="237.4" height="41.4" rx="5.7" stroke="black" stroke-opacity="0.24" stroke-width="0.6"/>
<path d="M52.917 245.251V240.209L57.9587 245.251M46.5003 238.834C45.4828 238.834 44.667 239.65 44.667 240.667V255.334C44.667 255.82 44.8601 256.287 45.204 256.63C45.5478 256.974 46.0141 257.167 46.5003 257.167H57.5003C57.9866 257.167 58.4529 256.974 58.7967 256.63C59.1405 256.287 59.3337 255.82 59.3337 255.334V244.334L53.8337 238.834H46.5003Z" fill="#7D7D7D"/>
<rect x="70" y="245" width="84" height="6" rx="3" fill="#7D7D7D"/>
<path fill-rule="evenodd" clip-rule="evenodd" d="M256.938 248L257.508 247.714V247.711L257.504 247.707L257.496 247.69L257.467 247.635L257.357 247.437C257.223 247.206 257.08 246.979 256.929 246.758C256.426 246.02 255.848 245.335 255.204 244.716C253.655 243.231 251.273 241.716 248 241.716C244.73 241.716 242.346 243.23 240.798 244.716C240.154 245.335 239.575 246.02 239.072 246.758C238.868 247.059 238.679 247.37 238.506 247.69L238.497 247.707L238.495 247.711V247.712C238.495 247.712 238.493 247.714 239.064 248L238.493 247.712C238.449 247.801 238.426 247.899 238.426 247.999C238.426 248.098 238.449 248.196 238.493 248.286L238.492 248.288L238.496 248.292L238.504 248.309C238.547 248.395 238.593 248.479 238.642 248.562C239.234 249.562 239.958 250.478 240.795 251.284C242.345 252.769 244.728 254.282 248 254.282C251.271 254.282 253.655 252.769 255.205 251.283C255.848 250.663 256.426 249.979 256.929 249.241C257.122 248.957 257.302 248.665 257.467 248.364L257.496 248.309L257.504 248.292L257.507 248.288V248.287C257.507 248.287 257.508 248.286 256.938 248ZM256.938 248L257.508 248.287C257.552 248.198 257.575 248.1 257.575 248C257.575 247.901 257.552 247.803 257.508 247.714L256.938 248ZM247.918 245.888C247.357 245.888 246.82 246.11 246.424 246.506C246.028 246.902 245.806 247.439 245.806 248C245.806 248.56 246.028 249.097 246.424 249.493C246.82 249.889 247.357 250.112 247.918 250.112C248.478 250.112 249.015 249.889 249.411 249.493C249.807 249.097 250.03 248.56 250.03 248C250.03 247.439 249.807 246.902 249.411 246.506C249.015 246.11 248.478 245.888 247.918 245.888ZM244.532 248C244.532 247.101 244.889 246.239 245.525 245.604C246.16 244.969 247.022 244.612 247.92 244.612C248.819 244.612 249.681 244.969 250.316 245.604C250.951 246.239 251.308 247.101 251.308 248C251.308 248.898 250.951 249.76 250.316 250.395C249.681 251.031 248.819 251.388 247.92 251.388C247.022 251.388 246.16 251.031 245.525 250.395C244.889 249.76 244.532 248.898 244.532 248Z" fill="#383838"/>
</svg>
