<svg width="300" height="300" viewBox="0 0 300 300" fill="none" xmlns="http://www.w3.org/2000/svg">
<rect width="300" height="300" rx="16" fill="#EBEBEB"/>
<path d="M0 16C0 7.16344 7.16344 0 16 0H284C292.837 0 300 7.16344 300 16V40H0V16Z" fill="#3D3D3D"/>
<ellipse cx="27.0673" cy="20" rx="7.06728" ry="7" fill="#FF4F59"/>
<ellipse cx="50.6254" cy="20" rx="7.06728" ry="7" fill="#FCFEFF"/>
<ellipse cx="74.183" cy="20" rx="7.06728" ry="7" fill="#FFF507"/>
<rect x="16" y="56" width="268" height="228" rx="10" fill="white"/>
<rect x="31.3" y="71.3" width="237.4" height="41.4" rx="5.7" stroke="black" stroke-opacity="0.24" stroke-width="0.6"/>
<path d="M52.917 89.2507V84.209L57.9587 89.2507M46.5003 82.834C45.4828 82.834 44.667 83.6498 44.667 84.6673V99.334C44.667 99.8202 44.8601 100.287 45.204 100.63C45.5478 100.974 46.0141 101.167 46.5003 101.167H57.5003C57.9866 101.167 58.4529 100.974 58.7967 100.63C59.1405 100.287 59.3337 99.8202 59.3337 99.334V88.334L53.8337 82.834H46.5003Z" fill="#7D7D7D"/>
<rect x="70" y="89" width="84" height="6" rx="3" fill="#7D7D7D"/>
<rect x="204" y="81" width="55" height="22" rx="4" fill="#3A83F3"/>
<path fill-rule="evenodd" clip-rule="evenodd" d="M223.688 91.9997L224.051 91.8177V91.816L224.048 91.8134L224.043 91.8029L224.025 91.7679L223.955 91.6419C223.869 91.4945 223.778 91.3503 223.682 91.2096C223.362 90.7397 222.994 90.3042 222.584 89.9102C221.599 88.9652 220.083 88.001 218 88.001C215.919 88.001 214.402 88.9644 213.417 89.9102C213.007 90.3042 212.639 90.7397 212.319 91.2096C212.189 91.4013 212.069 91.5993 211.958 91.8029L211.953 91.8134L211.951 91.816V91.8169C211.951 91.8169 211.95 91.8177 212.314 91.9997L211.95 91.8169C211.922 91.8736 211.908 91.936 211.908 91.9993C211.908 92.0626 211.922 92.125 211.95 92.1817L211.95 92.1835L211.952 92.1861L211.957 92.1966C211.985 92.2513 212.014 92.305 212.045 92.3576C212.422 92.9941 212.883 93.5768 213.415 94.0901C214.401 95.0351 215.918 95.9976 218 95.9976C220.082 95.9976 221.599 95.0351 222.585 94.0892C222.994 93.6948 223.362 93.2594 223.682 92.7899C223.805 92.6092 223.919 92.4229 224.025 92.2316L224.043 92.1966L224.048 92.1861L224.05 92.1835V92.1826C224.05 92.1826 224.051 92.1817 223.688 91.9997ZM223.688 91.9997L224.051 92.1826C224.079 92.1259 224.093 92.0634 224.093 92.0002C224.093 91.9369 224.079 91.8744 224.051 91.8177L223.688 91.9997ZM217.948 90.6557C217.591 90.6557 217.249 90.7973 216.997 91.0494C216.745 91.3014 216.604 91.6433 216.604 91.9997C216.604 92.3562 216.745 92.698 216.997 92.9501C217.249 93.2021 217.591 93.3437 217.948 93.3437C218.304 93.3437 218.646 93.2021 218.898 92.9501C219.15 92.698 219.292 92.3562 219.292 91.9997C219.292 91.6433 219.15 91.3014 218.898 91.0494C218.646 90.7973 218.304 90.6557 217.948 90.6557ZM215.793 91.9997C215.793 91.4279 216.021 90.8795 216.425 90.4752C216.829 90.0709 217.378 89.8437 217.949 89.8437C218.521 89.8437 219.07 90.0709 219.474 90.4752C219.878 90.8795 220.105 91.4279 220.105 91.9997C220.105 92.5715 219.878 93.1199 219.474 93.5242C219.07 93.9286 218.521 94.1557 217.949 94.1557C217.378 94.1557 216.829 93.9286 216.425 93.5242C216.021 93.1199 215.793 92.5715 215.793 91.9997Z" fill="white"/>
<rect x="229" y="90.5" width="23" height="3" rx="1.5" fill="white"/>
<rect x="31.3" y="123.3" width="237.4" height="41.4" rx="5.7" stroke="black" stroke-opacity="0.24" stroke-width="0.6"/>
<path d="M52.917 141.251V136.209L57.9587 141.251M46.5003 134.834C45.4828 134.834 44.667 135.65 44.667 136.667V151.334C44.667 151.82 44.8601 152.287 45.204 152.63C45.5478 152.974 46.0141 153.167 46.5003 153.167H57.5003C57.9866 153.167 58.4529 152.974 58.7967 152.63C59.1405 152.287 59.3337 151.82 59.3337 151.334V140.334L53.8337 134.834H46.5003Z" fill="#7D7D7D"/>
<rect x="70" y="141" width="84" height="6" rx="3" fill="#7D7D7D"/>
<rect x="204" y="133" width="55" height="22" rx="4" fill="#3A83F3"/>
<path fill-rule="evenodd" clip-rule="evenodd" d="M223.688 144L224.051 143.818V143.816L224.048 143.813L224.043 143.803L224.025 143.768L223.955 143.642C223.869 143.495 223.778 143.35 223.682 143.21C223.362 142.74 222.994 142.304 222.584 141.91C221.599 140.965 220.083 140.001 218 140.001C215.919 140.001 214.402 140.964 213.417 141.91C213.007 142.304 212.639 142.74 212.319 143.21C212.189 143.401 212.069 143.599 211.958 143.803L211.953 143.813L211.951 143.816V143.817C211.951 143.817 211.95 143.818 212.314 144L211.95 143.817C211.922 143.874 211.908 143.936 211.908 143.999C211.908 144.063 211.922 144.125 211.95 144.182L211.95 144.183L211.952 144.186L211.957 144.197C211.985 144.251 212.014 144.305 212.045 144.358C212.422 144.994 212.883 145.577 213.415 146.09C214.401 147.035 215.918 147.998 218 147.998C220.082 147.998 221.599 147.035 222.585 146.089C222.994 145.695 223.362 145.259 223.682 144.79C223.805 144.609 223.919 144.423 224.025 144.232L224.043 144.197L224.048 144.186L224.05 144.183V144.183C224.05 144.183 224.051 144.182 223.688 144ZM223.688 144L224.051 144.183C224.079 144.126 224.093 144.063 224.093 144C224.093 143.937 224.079 143.874 224.051 143.818L223.688 144ZM217.948 142.656C217.591 142.656 217.249 142.797 216.997 143.049C216.745 143.301 216.604 143.643 216.604 144C216.604 144.356 216.745 144.698 216.997 144.95C217.249 145.202 217.591 145.344 217.948 145.344C218.304 145.344 218.646 145.202 218.898 144.95C219.15 144.698 219.292 144.356 219.292 144C219.292 143.643 219.15 143.301 218.898 143.049C218.646 142.797 218.304 142.656 217.948 142.656ZM215.793 144C215.793 143.428 216.021 142.88 216.425 142.475C216.829 142.071 217.378 141.844 217.949 141.844C218.521 141.844 219.07 142.071 219.474 142.475C219.878 142.88 220.105 143.428 220.105 144C220.105 144.572 219.878 145.12 219.474 145.524C219.07 145.929 218.521 146.156 217.949 146.156C217.378 146.156 216.829 145.929 216.425 145.524C216.021 145.12 215.793 144.572 215.793 144Z" fill="white"/>
<rect x="229" y="142.5" width="23" height="3" rx="1.5" fill="white"/>
<rect x="31.3" y="175.3" width="237.4" height="41.4" rx="5.7" stroke="black" stroke-opacity="0.24" stroke-width="0.6"/>
<path d="M52.917 193.251V188.209L57.9587 193.251M46.5003 186.834C45.4828 186.834 44.667 187.65 44.667 188.667V203.334C44.667 203.82 44.8601 204.287 45.204 204.63C45.5478 204.974 46.0141 205.167 46.5003 205.167H57.5003C57.9866 205.167 58.4529 204.974 58.7967 204.63C59.1405 204.287 59.3337 203.82 59.3337 203.334V192.334L53.8337 186.834H46.5003Z" fill="#7D7D7D"/>
<rect x="70" y="193" width="84" height="6" rx="3" fill="#7D7D7D"/>
<rect x="204" y="185" width="55" height="22" rx="4" fill="#3A83F3"/>
<path fill-rule="evenodd" clip-rule="evenodd" d="M223.688 196L224.051 195.818V195.816L224.048 195.813L224.043 195.803L224.025 195.768L223.955 195.642C223.869 195.495 223.778 195.35 223.682 195.21C223.362 194.74 222.994 194.304 222.584 193.91C221.599 192.965 220.083 192.001 218 192.001C215.919 192.001 214.402 192.964 213.417 193.91C213.007 194.304 212.639 194.74 212.319 195.21C212.189 195.401 212.069 195.599 211.958 195.803L211.953 195.813L211.951 195.816V195.817C211.951 195.817 211.95 195.818 212.314 196L211.95 195.817C211.922 195.874 211.908 195.936 211.908 195.999C211.908 196.063 211.922 196.125 211.95 196.182L211.95 196.183L211.952 196.186L211.957 196.197C211.985 196.251 212.014 196.305 212.045 196.358C212.422 196.994 212.883 197.577 213.415 198.09C214.401 199.035 215.918 199.998 218 199.998C220.082 199.998 221.599 199.035 222.585 198.089C222.994 197.695 223.362 197.259 223.682 196.79C223.805 196.609 223.919 196.423 224.025 196.232L224.043 196.197L224.048 196.186L224.05 196.183V196.183C224.05 196.183 224.051 196.182 223.688 196ZM223.688 196L224.051 196.183C224.079 196.126 224.093 196.063 224.093 196C224.093 195.937 224.079 195.874 224.051 195.818L223.688 196ZM217.948 194.656C217.591 194.656 217.249 194.797 216.997 195.049C216.745 195.301 216.604 195.643 216.604 196C216.604 196.356 216.745 196.698 216.997 196.95C217.249 197.202 217.591 197.344 217.948 197.344C218.304 197.344 218.646 197.202 218.898 196.95C219.15 196.698 219.292 196.356 219.292 196C219.292 195.643 219.15 195.301 218.898 195.049C218.646 194.797 218.304 194.656 217.948 194.656ZM215.793 196C215.793 195.428 216.021 194.88 216.425 194.475C216.829 194.071 217.378 193.844 217.949 193.844C218.521 193.844 219.07 194.071 219.474 194.475C219.878 194.88 220.105 195.428 220.105 196C220.105 196.572 219.878 197.12 219.474 197.524C219.07 197.929 218.521 198.156 217.949 198.156C217.378 198.156 216.829 197.929 216.425 197.524C216.021 197.12 215.793 196.572 215.793 196Z" fill="white"/>
<rect x="229" y="194.5" width="23" height="3" rx="1.5" fill="white"/>
<rect x="31.3" y="227.3" width="237.4" height="41.4" rx="5.7" stroke="black" stroke-opacity="0.24" stroke-width="0.6"/>
<path d="M52.917 245.251V240.209L57.9587 245.251M46.5003 238.834C45.4828 238.834 44.667 239.65 44.667 240.667V255.334C44.667 255.82 44.8601 256.287 45.204 256.63C45.5478 256.974 46.0141 257.167 46.5003 257.167H57.5003C57.9866 257.167 58.4529 256.974 58.7967 256.63C59.1405 256.287 59.3337 255.82 59.3337 255.334V244.334L53.8337 238.834H46.5003Z" fill="#7D7D7D"/>
<rect x="70" y="245" width="84" height="6" rx="3" fill="#7D7D7D"/>
<rect x="204" y="237" width="55" height="22" rx="4" fill="#3A83F3"/>
<path fill-rule="evenodd" clip-rule="evenodd" d="M223.688 248L224.051 247.818V247.816L224.048 247.813L224.043 247.803L224.025 247.768L223.955 247.642C223.869 247.495 223.778 247.35 223.682 247.21C223.362 246.74 222.994 246.304 222.584 245.91C221.599 244.965 220.083 244.001 218 244.001C215.919 244.001 214.402 244.964 213.417 245.91C213.007 246.304 212.639 246.74 212.319 247.21C212.189 247.401 212.069 247.599 211.958 247.803L211.953 247.813L211.951 247.816V247.817C211.951 247.817 211.95 247.818 212.314 248L211.95 247.817C211.922 247.874 211.908 247.936 211.908 247.999C211.908 248.063 211.922 248.125 211.95 248.182L211.95 248.183L211.952 248.186L211.957 248.197C211.985 248.251 212.014 248.305 212.045 248.358C212.422 248.994 212.883 249.577 213.415 250.09C214.401 251.035 215.918 251.998 218 251.998C220.082 251.998 221.599 251.035 222.585 250.089C222.994 249.695 223.362 249.259 223.682 248.79C223.805 248.609 223.919 248.423 224.025 248.232L224.043 248.197L224.048 248.186L224.05 248.183V248.183C224.05 248.183 224.051 248.182 223.688 248ZM223.688 248L224.051 248.183C224.079 248.126 224.093 248.063 224.093 248C224.093 247.937 224.079 247.874 224.051 247.818L223.688 248ZM217.948 246.656C217.591 246.656 217.249 246.797 216.997 247.049C216.745 247.301 216.604 247.643 216.604 248C216.604 248.356 216.745 248.698 216.997 248.95C217.249 249.202 217.591 249.344 217.948 249.344C218.304 249.344 218.646 249.202 218.898 248.95C219.15 248.698 219.292 248.356 219.292 248C219.292 247.643 219.15 247.301 218.898 247.049C218.646 246.797 218.304 246.656 217.948 246.656ZM215.793 248C215.793 247.428 216.021 246.88 216.425 246.475C216.829 246.071 217.378 245.844 217.949 245.844C218.521 245.844 219.07 246.071 219.474 246.475C219.878 246.88 220.105 247.428 220.105 248C220.105 248.572 219.878 249.12 219.474 249.524C219.07 249.929 218.521 250.156 217.949 250.156C217.378 250.156 216.829 249.929 216.425 249.524C216.021 249.12 215.793 248.572 215.793 248Z" fill="white"/>
<rect x="229" y="246.5" width="23" height="3" rx="1.5" fill="white"/>
</svg>
